  0
SECTION
  2
HEADER
  9
$ACADVER
  1
AC1024
  9
$ACADMAINTVER
 70
6
  9
$DWGCODEPAGE
  3
ANSI_1252
  9
$LASTSAVEDBY
  1
ezdxf
  9
$INSBASE
 10
0.0
 20
0.0
 30
0.0
  9
$EXTMIN
 10
1e+20
 20
1e+20
 30
1e+20
  9
$EXTMAX
 10
-1e+20
 20
-1e+20
 30
-1e+20
  9
$LIMMIN
 10
0.0
 20
0.0
  9
$LIMMAX
 10
420.0
 20
297.0
  9
$ORTHOMODE
 70
0
  9
$REGENMODE
 70
1
  9
$FILLMODE
 70
1
  9
$QTEXTMODE
 70
0
  9
$MIRRTEXT
 70
1
  9
$LTSCALE
 40
1.0
  9
$ATTMODE
 70
1
  9
$TEXTSIZE
 40
2.5
  9
$TRACEWID
 40
1.0
  9
$TEXTSTYLE
  7
OpenSans
  9
$CLAYER
  8
0
  9
$CELTYPE
  6
ByLayer
  9
$CECOLOR
 62
256
  9
$CELTSCALE
 40
1.0
  9
$DISPSILH
 70
0
  9
$DIMSCALE
 40
1.0
  9
$DIMASZ
 40
0.175
  9
$DIMEXO
 40
0.125
  9
$DIMDLI
 40
3.75
  9
$DIMRND
 40
0.0
  9
$DIMDLE
 40
0.0
  9
$DIMEXE
 40
0.375
  9
$DIMTP
 40
0.0
  9
$DIMTM
 40
0.0
  9
$DIMTXT
 40
0.25
  9
$DIMCEN
 40
2.5
  9
$DIMTSZ
 40
0.0
  9
$DIMTOL
 70
0
  9
$DIMLIM
 70
0
  9
$DIMTIH
 70
0
  9
$DIMTOH
 70
0
  9
$DIMSE1
 70
0
  9
$DIMSE2
 70
0
  9
$DIMTAD
 70
1
  9
$DIMZIN
 70
12
  9
$DIMBLK
  1
ARCHTICK
  9
$DIMASO
 70
1
  9
$DIMSHO
 70
1
  9
$DIMPOST
  1

  9
$DIMAPOST
  1

  9
$DIMALT
 70
0
  9
$DIMALTD
 70
3
  9
$DIMALTF
 40
0.03937007874
  9
$DIMLFAC
 40
100.0
  9
$DIMTOFL
 70
1
  9
$DIMTVP
 40
0.0
  9
$DIMTIX
 70
0
  9
$DIMSOXD
 70
0
  9
$DIMSAH
 70
0
  9
$DIMBLK1
  1

  9
$DIMBLK2
  1

  9
$DIMSTYLE
  2
EZDXF
  9
$DIMCLRD
 70
0
  9
$DIMCLRE
 70
0
  9
$DIMCLRT
 70
0
  9
$DIMTFAC
 40
0.5
  9
$DIMGAP
 40
0.1
  9
$DIMJUST
 70
0
  9
$DIMSD1
 70
0
  9
$DIMSD2
 70
0
  9
$DIMTOLJ
 70
0
  9
$DIMTZIN
 70
8
  9
$DIMALTZ
 70
0
  9
$DIMALTTZ
 70
0
  9
$DIMUPT
 70
1
  9
$DIMDEC
 70
2
  9
$DIMTDEC
 70
2
  9
$DIMALTU
 70
2
  9
$DIMALTTD
 70
3
  9
$DIMTXSTY
  7
OpenSansCondensed-Light
  9
$DIMAUNIT
 70
0
  9
$DIMADEC
 70
2
  9
$DIMALTRND
 40
0.0
  9
$DIMAZIN
 70
3
  9
$DIMDSEP
 70
46
  9
$DIMATFIT
 70
3
  9
$DIMFRAC
 70
0
  9
$DIMLDRBLK
  1

  9
$DIMLUNIT
 70
2
  9
$DIMLWD
 70
-2
  9
$DIMLWE
 70
-2
  9
$DIMTMOVE
 70
2
  9
$DIMFXL
 40
1.0
  9
$DIMFXLON
 70
0
  9
$DIMJOGANG
 40
0.785398163397
  9
$DIMTFILL
 70
0
  9
$DIMTFILLCLR
 70
0
  9
$DIMARCSYM
 70
0
  9
$DIMLTYPE
  6

  9
$DIMLTEX1
  6

  9
$DIMLTEX2
  6

  9
$DIMTXTDIRECTION
 70
0
  9
$LUNITS
 70
2
  9
$LUPREC
 70
4
  9
$SKETCHINC
 40
1.0
  9
$FILLETRAD
 40
10.0
  9
$AUNITS
 70
0
  9
$AUPREC
 70
2
  9
$MENU
  1
.
  9
$ELEVATION
 40
0.0
  9
$PELEVATION
 40
0.0
  9
$THICKNESS
 40
0.0
  9
$LIMCHECK
 70
0
  9
$CHAMFERA
 40
0.0
  9
$CHAMFERB
 40
0.0
  9
$CHAMFERC
 40
0.0
  9
$CHAMFERD
 40
0.0
  9
$SKPOLY
 70
0
  9
$TDCREATE
 40
2461318.7432291666
  9
$TDUCREATE
 40
2458532.153996898
  9
$TDUPDATE
 40
2461318.7432291666
  9
$TDUUPDATE
 40
2458532.1544311
  9
$TDINDWG
 40
0.0
  9
$TDUSRTIMER
 40
0.0
  9
$USRTIMER
 70
1
  9
$ANGBASE
 50
0.0
  9
$ANGDIR
 70
0
  9
$PDMODE
 70
0
  9
$PDSIZE
 40
0.0
  9
$PLINEWID
 40
0.0
  9
$SPLFRAME
 70
0
  9
$SPLINETYPE
 70
6
  9
$SPLINESEGS
 70
8
  9
$HANDSEED
  5
1B6
  9
$SURFTAB1
 70
6
  9
$SURFTAB2
 70
6
  9
$SURFTYPE
 70
6
  9
$SURFU
 70
6
  9
$SURFV
 70
6
  9
$UCSBASE
  2

  9
$UCSNAME
  2

  9
$UCSORG
 10
0.0
 20
0.0
 30
0.0
  9
$UCSXDIR
 10
1.0
 20
0.0
 30
0.0
  9
$UCSYDIR
 10
0.0
 20
1.0
 30
0.0
  9
$UCSORTHOREF
  2

  9
$UCSORTHOVIEW
 70
0
  9
$UCSORGTOP
 10
0.0
 20
0.0
 30
0.0
  9
$UCSORGBOTTOM
 10
0.0
 20
0.0
 30
0.0
  9
$UCSORGLEFT
 10
0.0
 20
0.0
 30
0.0
  9
$UCSORGRIGHT
 10
0.0
 20
0.0
 30
0.0
  9
$UCSORGFRONT
 10
0.0
 20
0.0
 30
0.0
  9
$UCSORGBACK
 10
0.0
 20
0.0
 30
0.0
  9
$PUCSBASE
  2

  9
$PUCSNAME
  2

  9
$PUCSORG
 10
0.0
 20
0.0
 30
0.0
  9
$PUCSXDIR
 10
1.0
 20
0.0
 30
0.0
  9
$PUCSYDIR
 10
0.0
 20
1.0
 30
0.0
  9
$PUCSORTHOREF
  2

  9
$PUCSORTHOVIEW
 70
0
  9
$PUCSORGTOP
 10
0.0
 20
0.0
 30
0.0
  9
$PUCSORGBOTTOM
 10
0.0
 20
0.0
 30
0.0
  9
$PUCSORGLEFT
 10
0.0
 20
0.0
 30
0.0
  9
$PUCSORGRIGHT
 10
0.0
 20
0.0
 30
0.0
  9
$PUCSORGFRONT
 10
0.0
 20
0.0
 30
0.0
  9
$PUCSORGBACK
 10
0.0
 20
0.0
 30
0.0
  9
$USERI1
 70
0
  9
$USERI2
 70
0
  9
$USERI3
 70
0
  9
$USERI4
 70
0
  9
$USERI5
 70
0
  9
$USERR1
 40
0.0
  9
$USERR2
 40
0.0
  9
$USERR3
 40
0.0
  9
$USERR4
 40
0.0
  9
$USERR5
 40
0.0
  9
$WORLDVIEW
 70
1
  9
$SHADEDGE
 70
3
  9
$SHADEDIF
 70
70
  9
$TILEMODE
 70
1
  9
$MAXACTVP
 70
64
  9
$PINSBASE
 10
0.0
 20
0.0
 30
0.0
  9
$PLIMCHECK
 70
0
  9
$PEXTMIN
 10
1e+20
 20
1e+20
 30
1e+20
  9
$PEXTMAX
 10
-1e+20
 20
-1e+20
 30
-1e+20
  9
$PLIMMIN
 10
0.0
 20
0.0
  9
$PLIMMAX
 10
420.0
 20
297.0
  9
$UNITMODE
 70
0
  9
$VISRETAIN
 70
1
  9
$PLINEGEN
 70
0
  9
$PSLTSCALE
 70
1
  9
$TREEDEPTH
 70
3020
  9
$CMLSTYLE
  2
Standard
  9
$CMLJUST
 70
0
  9
$CMLSCALE
 40
20.0
  9
$PROXYGRAPHICS
 70
1
  9
$MEASUREMENT
 70
1
  9
$CELWEIGHT
370
-1
  9
$ENDCAPS
280
0
  9
$JOINSTYLE
280
0
  9
$LWDISPLAY
290
0
  9
$INSUNITS
 70
4
  9
$HYPERLINKBASE
  1

  9
$STYLESHEET
  1

  9
$XEDIT
290
1
  9
$CEPSNTYPE
380
0
  9
$PSTYLEMODE
290
1
  9
$FINGERPRINTGUID
  2
{95750D8C-0A7D-4586-B5C5-A4762A8560D9}
  9
$VERSIONGUID
  2
{27808631-1960-4F2B-81D2-22D46AB29F64}
  9
$EXTNAMES
290
1
  9
$PSVPSCALE
 40
0.0
  9
$OLESTARTUP
290
0
  9
$SORTENTS
280
127
  9
$INDEXCTL
280
0
  9
$HIDETEXT
280
1
  9
$XCLIPFRAME
280
1
  9
$HALOGAP
280
0
  9
$OBSCOLOR
 70
257
  9
$OBSLTYPE
280
0
  9
$INTERSECTIONDISPLAY
280
0
  9
$INTERSECTIONCOLOR
 70
257
  9
$DIMASSOC
280
2
  9
$PROJECTNAME
  1

  9
$CAMERADISPLAY
290
0
  9
$LENSLENGTH
 40
50.0
  9
$CAMERAHEIGHT
 40
0.0
  9
$STEPSPERSEC
 40
24.0
  9
$STEPSIZE
 40
100.0
  9
$3DDWFPREC
 40
2.0
  9
$PSOLWIDTH
 40
0.005
  9
$PSOLHEIGHT
 40
0.08
  9
$LOFTANG1
 40
1.570796326795
  9
$LOFTANG2
 40
1.570796326795
  9
$LOFTMAG1
 40
0.0
  9
$LOFTMAG2
 40
0.0
  9
$LOFTPARAM
 70
7
  9
$LOFTNORMALS
280
1
  9
$LATITUDE
 40
37.795
  9
$LONGITUDE
 40
-122.394
  9
$NORTHDIRECTION
 40
0.0
  9
$TIMEZONE
 70
-8000
  9
$LIGHTGLYPHDISPLAY
280
1
  9
$TILEMODELIGHTSYNCH
280
1
  9
$CMATERIAL
347
20
  9
$SOLIDHIST
280
0
  9
$SHOWHIST
280
1
  9
$DWFFRAME
280
2
  9
$DGNFRAME
280
2
  9
$REALWORLDSCALE
290
1
  9
$INTERFERECOLOR
 62
256
  9
$CSHADOW
280
0
  9
$SHADOWPLANELOCATION
 40
0.0
  0
ENDSEC
  0
SECTION
  2
CLASSES
  0
CLASS
  1
ACDBDICTIONARYWDFLT
  2
AcDbDictionaryWithDefault
  3
ObjectDBX Classes
 90
0
 91
0
280
0
281
0
  0
CLASS
  1
SUN
  2
AcDbSun
  3
SCENEOE
 90
1153
 91
0
280
0
281
0
  0
CLASS
  1
VISUALSTYLE
  2
AcDbVisualStyle
  3
ObjectDBX Classes
 90
4095
 91
0
280
0
281
0
  0
CLASS
  1
MATERIAL
  2
AcDbMaterial
  3
ObjectDBX Classes
 90
1153
 91
0
280
0
281
0
  0
CLASS
  1
SCALE
  2
AcDbScale
  3
ObjectDBX Classes
 90
1153
 91
0
280
0
281
0
  0
CLASS
  1
TABLESTYLE
  2
AcDbTableStyle
  3
ObjectDBX Classes
 90
4095
 91
0
280
0
281
0
  0
CLASS
  1
MLEADERSTYLE
  2
AcDbMLeaderStyle
  3
ACDB_MLEADERSTYLE_CLASS
 90
4095
 91
0
280
0
281
0
  0
CLASS
  1
DICTIONARYVAR
  2
AcDbDictionaryVar
  3
ObjectDBX Classes
 90
0
 91
0
280
0
281
0
  0
CLASS
  1
CELLSTYLEMAP
  2
AcDbCellStyleMap
  3
ObjectDBX Classes
 90
1152
 91
0
280
0
281
0
  0
CLASS
  1
MENTALRAYRENDERSETTINGS
  2
AcDbMentalRayRenderSettings
  3
SCENEOE
 90
1024
 91
0
280
0
281
0
  0
CLASS
  1
ACDBDETAILVIEWSTYLE
  2
AcDbDetailViewStyle
  3
ObjectDBX Classes
 90
1025
 91
0
280
0
281
0
  0
CLASS
  1
ACDBSECTIONVIEWSTYLE
  2
AcDbSectionViewStyle
  3
ObjectDBX Classes
 90
1025
 91
0
280
0
281
0
  0
CLASS
  1
RASTERVARIABLES
  2
AcDbRasterVariables
  3
ISM
 90
0
 91
0
280
0
281
0
  0
CLASS
  1
LAYOUT
  2
AcDbLayout
  3
ObjectDBX Classes
 90
0
 91
0
280
0
281
0
  0
CLASS
  1
ACDBPLACEHOLDER
  2
AcDbPlaceHolder
  3
ObjectDBX Classes
 90
0
 91
0
280
0
281
0
  0
ENDSEC
  0
SECTION
  2
TABLES
  0
TABLE
  2
VPORT
  5
8
330
0
100
AcDbSymbolTable
 70
1
  0
VPORT
  5
23
330
8
100
AcDbSymbolTableRecord
100
AcDbViewportTableRecord
  2
*Active
 70
0
 10
0.0
 20
0.0
 11
1.0
 21
1.0
 12
0.0
 22
0.0
 13
0.0
 23
0.0
 14
0.5
 24
0.5
 15
0.5
 25
0.5
 16
0.0
 26
0.0
 36
1.0
 17
0.0
 27
0.0
 37
0.0
 40
1000.0
 41
1.34
 42
50.0
 43
0.0
 44
0.0
 50
0.0
 51
0.0
 71
0
 72
1000
 73
1
 74
3
 75
0
 76
0
 77
0
 78
0
281
0
 65
0
146
0.0
  0
ENDTAB
  0
TABLE
  2
LTYPE
  5
2
330
0
100
AcDbSymbolTable
 70
21
  0
LTYPE
  5
24
330
2
100
AcDbSymbolTableRecord
100
AcDbLinetypeTableRecord
  2
ByBlock
 70
0
  3

 72
65
 73
0
 40
0.0
  0
LTYPE
  5
25
330
2
100
AcDbSymbolTableRecord
100
AcDbLinetypeTableRecord
  2
ByLayer
 70
0
  3

 72
65
 73
0
 40
0.0
  0
LTYPE
  5
26
330
2
100
AcDbSymbolTableRecord
100
AcDbLinetypeTableRecord
  2
Continuous
 70
0
  3

 72
65
 73
0
 40
0.0
  0
LTYPE
  5
2F
330
2
100
AcDbSymbolTableRecord
100
AcDbLinetypeTableRecord
  2
CENTER
 70
0
  3
Center ____ _ ____ _ ____ _ ____ _ ____ _ ____
 72
65
 73
4
 40
5.08
 49
3.175
 74
0
 49
-0.635
 74
0
 49
0.635
 74
0
 49
-0.635
 74
0
  0
LTYPE
  5
30
330
2
100
AcDbSymbolTableRecord
100
AcDbLinetypeTableRecord
  2
CENTERX2
 70
0
  3
Center (2x) ________  __  ________  __  ________
 72
65
 73
4
 40
8.89
 49
6.35
 74
0
 49
-0.635
 74
0
 49
1.27
 74
0
 49
-0.635
 74
0
  0
LTYPE
  5
31
330
2
100
AcDbSymbolTableRecord
100
AcDbLinetypeTableRecord
  2
CENTER2
 70
0
  3
Center (.5x) ____ _ ____ _ ____ _ ____ _ ____
 72
65
 73
4
 40
2.54
 49
1.587
 74
0
 49
-0.318
 74
0
 49
0.318
 74
0
 49
-0.318
 74
0
  0
LTYPE
  5
32
330
2
100
AcDbSymbolTableRecord
100
AcDbLinetypeTableRecord
  2
DASHED
 70
0
  3
Dashed __ __ __ __ __ __ __ __ __ __ __ __ __ _
 72
65
 73
2
 40
1.524
 49
1.27
 74
0
 49
-0.254
 74
0
  0
LTYPE
  5
33
330
2
100
AcDbSymbolTableRecord
100
AcDbLinetypeTableRecord
  2
DASHEDX2
 70
0
  3
Dashed (2x) ____  ____  ____  ____  ____  ____
 72
65
 73
2
 40
3.048
 49
2.54
 74
0
 49
-0.508
 74
0
  0
LTYPE
  5
34
330
2
100
AcDbSymbolTableRecord
100
AcDbLinetypeTableRecord
  2
DASHED2
 70
0
  3
Dashed (.5x) _ _ _ _ _ _ _ _ _ _ _ _ _ _
 72
65
 73
2
 40
0.762
 49
0.635
 74
0
 49
-0.127
 74
0
  0
LTYPE
  5
35
330
2
100
AcDbSymbolTableRecord
100
AcDbLinetypeTableRecord
  2
PHANTOM
 70
0
  3
Phantom ______  __  __  ______  __  __  ______
 72
65
 73
6
 40
6.35
 49
3.175
 74
0
 49
-0.635
 74
0
 49
0.635
 74
0
 49
-0.635
 74
0
 49
0.635
 74
0
 49
-0.635
 74
0
  0
LTYPE
  5
36
330
2
100
AcDbSymbolTableRecord
100
AcDbLinetypeTableRecord
  2
PHANTOMX2
 70
0
  3
Phantom (2x)____________    ____    ____    ____________
 72
65
 73
6
 40
10.795
 49
6.35
 74
0
 49
-0.635
 74
0
 49
1.27
 74
0
 49
-0.635
 74
0
 49
1.27
 74
0
 49
-0.635
 74
0
  0
LTYPE
  5
37
330
2
100
AcDbSymbolTableRecord
100
AcDbLinetypeTableRecord
  2
PHANTOM2
 70
0
  3
Phantom (.5x) ___ _ _ ___ _ _ ___ _ _ ___ _ _ ___
 72
65
 73
6
 40
3.175
 49
1.587
 74
0
 49
-0.318
 74
0
 49
0.318
 74
0
 49
-0.318
 74
0
 49
0.318
 74
0
 49
-0.318
 74
0
  0
LTYPE
  5
38
330
2
100
AcDbSymbolTableRecord
100
AcDbLinetypeTableRecord
  2
DASHDOT
 70
0
  3
Dash dot __ . __ . __ . __ . __ . __ . __ . __
 72
65
 73
4
 40
3.556
 49
2.54
 74
0
 49
-0.508
 74
0
 49
0.0
 74
0
 49
-0.508
 74
0
  0
LTYPE
  5
39
330
2
100
AcDbSymbolTableRecord
100
AcDbLinetypeTableRecord
  2
DASHDOTX2
 70
0
  3
Dash dot (2x) ____  .  ____  .  ____  .  ____
 72
65
 73
4
 40
6.096
 49
5.08
 74
0
 49
-0.508
 74
0
 49
0.0
 74
0
 49
-0.508
 74
0
  0
LTYPE
  5
3A
330
2
100
AcDbSymbolTableRecord
100
AcDbLinetypeTableRecord
  2
DASHDOT2
 70
0
  3
Dash dot (.5x) _ . _ . _ . _ . _ . _ . _ . _
 72
65
 73
4
 40
1.778
 49
1.27
 74
0
 49
-0.254
 74
0
 49
0.0
 74
0
 49
-0.254
 74
0
  0
LTYPE
  5
3B
330
2
100
AcDbSymbolTableRecord
100
AcDbLinetypeTableRecord
  2
DOT
 70
0
  3
Dot .  .  .  .  .  .  .  .  .  .  .  .  .  .  .  .
 72
65
 73
2
 40
0.508
 49
0.0
 74
0
 49
-0.508
 74
0
  0
LTYPE
  5
3C
330
2
100
AcDbSymbolTableRecord
100
AcDbLinetypeTableRecord
  2
DOTX2
 70
0
  3
Dot (2x) .    .    .    .    .    .    .    . 
 72
65
 73
2
 40
1.016
 49
0.0
 74
0
 49
-1.016
 74
0
  0
LTYPE
  5
3D
330
2
100
AcDbSymbolTableRecord
100
AcDbLinetypeTableRecord
  2
DOT2
 70
0
  3
Dot (.5) . . . . . . . . . . . . . . . . . . . 
 72
65
 73
2
 40
0.254
 49
0.0
 74
0
 49
-0.254
 74
0
  0
LTYPE
  5
3E
330
2
100
AcDbSymbolTableRecord
100
AcDbLinetypeTableRecord
  2
DIVIDE
 70
0
  3
Divide __ . . __ . . __ . . __ . . __ . . __
 72
65
 73
6
 40
4.064
 49
2.54
 74
0
 49
-0.508
 74
0
 49
0.0
 74
0
 49
-0.508
 74
0
 49
0.0
 74
0
 49
-0.508
 74
0
  0
LTYPE
  5
3F
330
2
100
AcDbSymbolTableRecord
100
AcDbLinetypeTableRecord
  2
DIVIDEX2
 70
0
  3
Divide (2x) ____  . .  ____  . .  ____  . .  ____
 72
65
 73
6
 40
6.604
 49
5.08
 74
0
 49
-0.508
 74
0
 49
0.0
 74
0
 49
-0.508
 74
0
 49
0.0
 74
0
 49
-0.508
 74
0
  0
LTYPE
  5
40
330
2
100
AcDbSymbolTableRecord
100
AcDbLinetypeTableRecord
  2
DIVIDE2
 70
0
  3
Divide(.5x) _ . _ . _ . _ . _ . _ . _ . _
 72
65
 73
6
 40
2.032
 49
1.27
 74
0
 49
-0.254
 74
0
 49
0.0
 74
0
 49
-0.254
 74
0
 49
0.0
 74
0
 49
-0.254
 74
0
  0
ENDTAB
  0
TABLE
  2
LAYER
  5
1
330
0
100
AcDbSymbolTable
 70
15
  0
LAYER
  5
27
330
1
100
AcDbSymbolTableRecord
100
AcDbLayerTableRecord
  2
0
 70
0
 62
7
  6
Continuous
370
-3
390
13
347
21
  0
LAYER
  5
28
330
1
100
AcDbSymbolTableRecord
100
AcDbLayerTableRecord
  2
Defpoints
 70
0
 62
7
  6
Continuous
290
0
370
-3
390
13
347
21
  0
LAYER
  5
8A
330
1
100
AcDbSymbolTableRecord
100
AcDbLayerTableRecord
  2
BOARD_OUTLINE
 70
0
 62
7
  6
Continuous
370
-3
390
13
347
21
  0
LAYER
  5
8B
330
1
100
AcDbSymbolTableRecord
100
AcDbLayerTableRecord
  2
BATTERY_BAY
 70
0
 62
8
  6
Continuous
370
-3
390
13
347
21
  0
LAYER
  5
8C
330
1
100
AcDbSymbolTableRecord
100
AcDbLayerTableRecord
  2
KEYCAPS
 70
0
 62
4
  6
Continuous
370
-3
390
13
347
21
  0
LAYER
  5
8D
330
1
100
AcDbSymbolTableRecord
100
AcDbLayerTableRecord
  2
KEYCAP_GUARD
 70
0
 62
6
  6
Continuous
370
-3
390
13
347
21
  0
LAYER
  5
8E
330
1
100
AcDbSymbolTableRecord
100
AcDbLayerTableRecord
  2
M1_HOLES
 70
0
 62
2
  6
Continuous
370
-3
390
13
347
21
  0
LAYER
  5
8F
330
1
100
AcDbSymbolTableRecord
100
AcDbLayerTableRecord
  2
XIAO
 70
0
 62
1
  6
Continuous
370
-3
390
13
347
21
  0
LAYER
  5
90
330
1
100
AcDbSymbolTableRecord
100
AcDbLayerTableRecord
  2
XIAO_USB
 70
0
 62
1
  6
Continuous
370
-3
390
13
347
21
  0
LAYER
  5
91
330
1
100
AcDbSymbolTableRecord
100
AcDbLayerTableRecord
  2
COVER_STANDOFFS
 70
0
 62
9
  6
Continuous
370
-3
390
13
347
21
  0
LAYER
  5
92
330
1
100
AcDbSymbolTableRecord
100
AcDbLayerTableRecord
  2
LABELS
 70
0
 62
7
  6
Continuous
370
-3
390
13
347
21
  0
LAYER
  5
93
330
1
100
AcDbSymbolTableRecord
100
AcDbLayerTableRecord
  2
COVER_BATTERY_TOP
 70
0
 62
30
  6
Continuous
370
-3
390
13
347
21
  0
LAYER
  5
94
330
1
100
AcDbSymbolTableRecord
100
AcDbLayerTableRecord
  2
COVER_BATTERY_BOTTOM
 70
0
 62
1
  6
Continuous
370
-3
390
13
347
21
  0
LAYER
  5
95
330
1
100
AcDbSymbolTableRecord
100
AcDbLayerTableRecord
  2
COVER_XIAO_COVER
 70
0
 62
5
  6
Continuous
370
-3
390
13
347
21
  0
LAYER
  5
96
330
1
100
AcDbSymbolTableRecord
100
AcDbLayerTableRecord
  2
COVER_DISPLAY_COVER
 70
0
 62
3
  6
Continuous
370
-3
390
13
347
21
  0
ENDTAB
  0
TABLE
  2
STYLE
  5
5
330
0
100
AcDbSymbolTable
 70
26
  0
STYLE
  5
29
330
5
100
AcDbSymbolTableRecord
100
AcDbTextStyleTableRecord
  2
Standard
 70
0
 40
0.0
 41
1.0
 50
0.0
 71
0
 42
2.5
  3
txt
  4

  0
STYLE
  5
41
330
5
100
AcDbSymbolTableRecord
100
AcDbTextStyleTableRecord
  2
OpenSans-Light
 70
0
 40
0.0
 41
1.0
 50
0.0
 71
0
 42
2.5
  3
OpenSans-Light.ttf
  4

  0
STYLE
  5
42
330
5
100
AcDbSymbolTableRecord
100
AcDbTextStyleTableRecord
  2
OpenSans-Light-Italic
 70
0
 40
0.0
 41
1.0
 50
0.0
 71
0
 42
2.5
  3
OpenSans-LightItalic.ttf
  4

  0
STYLE
  5
43
330
5
100
AcDbSymbolTableRecord
100
AcDbTextStyleTableRecord
  2
OpenSans
 70
0
 40
0.0
 41
1.0
 50
0.0
 71
0
 42
2.5
  3
OpenSans-Regular.ttf
  4

  0
STYLE
  5
44
330
5
100
AcDbSymbolTableRecord
100
AcDbTextStyleTableRecord
  2
OpenSans-Italic
 70
0
 40
0.0
 41
1.0
 50
0.0
 71
0
 42
2.5
  3
OpenSans-Italic.ttf
  4

  0
STYLE
  5
45
330
5
100
AcDbSymbolTableRecord
100
AcDbTextStyleTableRecord
  2
OpenSans-SemiBold
 70
0
 40
0.0
 41
1.0
 50
0.0
 71
0
 42
2.5
  3
OpenSans-SemiBold.ttf
  4

  0
STYLE
  5
46
330
5
100
AcDbSymbolTableRecord
100
AcDbTextStyleTableRecord
  2
OpenSans-SemiBoldItalic
 70
0
 40
0.0
 41
1.0
 50
0.0
 71
0
 42
2.5
  3
OpenSans-SemiBoldItalic.ttf
  4

  0
STYLE
  5
47
330
5
100
AcDbSymbolTableRecord
100
AcDbTextStyleTableRecord
  2
OpenSans-Bold
 70
0
 40
0.0
 41
1.0
 50
0.0
 71
0
 42
2.5
  3
OpenSans-Bold.ttf
  4

  0
STYLE
  5
48
330
5
100
AcDbSymbolTableRecord
100
AcDbTextStyleTableRecord
  2
OpenSans-BoldItalic
 70
0
 40
0.0
 41
1.0
 50
0.0
 71
0
 42
2.5
  3
OpenSans-BoldItalic.ttf
  4

  0
STYLE
  5
49
330
5
100
AcDbSymbolTableRecord
100
AcDbTextStyleTableRecord
  2
OpenSans-ExtraBold
 70
0
 40
0.0
 41
1.0
 50
0.0
 71
0
 42
2.5
  3
OpenSans-ExtraBold.ttf
  4

  0
STYLE
  5
4A
330
5
100
AcDbSymbolTableRecord
100
AcDbTextStyleTableRecord
  2
OpenSans-ExtraBoldItalic
 70
0
 40
0.0
 41
1.0
 50
0.0
 71
0
 42
2.5
  3
OpenSans-ExtraBoldItalic.ttf
  4

  0
STYLE
  5
4B
330
5
100
AcDbSymbolTableRecord
100
AcDbTextStyleTableRecord
  2
OpenSansCondensed-Bold
 70
0
 40
0.0
 41
1.0
 50
0.0
 71
0
 42
2.5
  3
OpenSansCondensed-Bold.ttf
  4

  0
STYLE
  5
4C
330
5
100
AcDbSymbolTableRecord
100
AcDbTextStyleTableRecord
  2
OpenSansCondensed-Light
 70
0
 40
0.0
 41
1.0
 50
0.0
 71
0
 42
2.5
  3
OpenSansCondensed-Light.ttf
  4

  0
STYLE
  5
4D
330
5
100
AcDbSymbolTableRecord
100
AcDbTextStyleTableRecord
  2
OpenSansCondensed-Italic
 70
0
 40
0.0
 41
1.0
 50
0.0
 71
0
 42
2.5
  3
OpenSansCondensed-LightItalic.ttf
  4

  0
STYLE
  5
4E
330
5
100
AcDbSymbolTableRecord
100
AcDbTextStyleTableRecord
  2
LiberationSans
 70
0
 40
0.0
 41
1.0
 50
0.0
 71
0
 42
2.5
  3
LiberationSans-Regular.ttf
  4

  0
STYLE
  5
4F
330
5
100
AcDbSymbolTableRecord
100
AcDbTextStyleTableRecord
  2
LiberationSans-Bold
 70
0
 40
0.0
 41
1.0
 50
0.0
 71
0
 42
2.5
  3
LiberationSans-Bold.ttf
  4

  0
STYLE
  5
50
330
5
100
AcDbSymbolTableRecord
100
AcDbTextStyleTableRecord
  2
LiberationSans-BoldItalic
 70
0
 40
0.0
 41
1.0
 50
0.0
 71
0
 42
2.5
  3
LiberationSans-BoldItalic.ttf
  4

  0
STYLE
  5
51
330
5
100
AcDbSymbolTableRecord
100
AcDbTextStyleTableRecord
  2
LiberationSans-Italic
 70
0
 40
0.0
 41
1.0
 50
0.0
 71
0
 42
2.5
  3
LiberationSans-Italic.ttf
  4

  0
STYLE
  5
52
330
5
100
AcDbSymbolTableRecord
100
AcDbTextStyleTableRecord
  2
LiberationSerif
 70
0
 40
0.0
 41
1.0
 50
0.0
 71
0
 42
2.5
  3
LiberationSerif-Regular.ttf
  4

  0
STYLE
  5
53
330
5
100
AcDbSymbolTableRecord
100
AcDbTextStyleTableRecord
  2
LiberationSerif-Bold
 70
0
 40
0.0
 41
1.0
 50
0.0
 71
0
 42
2.5
  3
LiberationSerif-Bold.ttf
  4

  0
STYLE
  5
54
330
5
100
AcDbSymbolTableRecord
100
AcDbTextStyleTableRecord
  2
LiberationSerif-BoldItalic
 70
0
 40
0.0
 41
1.0
 50
0.0
 71
0
 42
2.5
  3
LiberationSerif-BoldItalic.ttf
  4

  0
STYLE
  5
55
330
5
100
AcDbSymbolTableRecord
100
AcDbTextStyleTableRecord
  2
LiberationSerif-Italic
 70
0
 40
0.0
 41
1.0
 50
0.0
 71
0
 42
2.5
  3
LiberationSerif-Italic.ttf
  4

  0
STYLE
  5
56
330
5
100
AcDbSymbolTableRecord
100
AcDbTextStyleTableRecord
  2
LiberationMono
 70
0
 40
0.0
 41
1.0
 50
0.0
 71
0
 42
2.5
  3
LiberationMono-Regular.ttf
  4

  0
STYLE
  5
57
330
5
100
AcDbSymbolTableRecord
100
AcDbTextStyleTableRecord
  2
LiberationMono-Bold
 70
0
 40
0.0
 41
1.0
 50
0.0
 71
0
 42
2.5
  3
LiberationMono-Bold.ttf
  4

  0
STYLE
  5
58
330
5
100
AcDbSymbolTableRecord
100
AcDbTextStyleTableRecord
  2
LiberationMono-BoldItalic
 70
0
 40
0.0
 41
1.0
 50
0.0
 71
0
 42
2.5
  3
LiberationMono-BoldItalic.ttf
  4

  0
STYLE
  5
59
330
5
100
AcDbSymbolTableRecord
100
AcDbTextStyleTableRecord
  2
LiberationMono-Italic
 70
0
 40
0.0
 41
1.0
 50
0.0
 71
0
 42
2.5
  3
LiberationMono-Italic.ttf
  4

  0
ENDTAB
  0
TABLE
  2
VIEW
  5
7
330
0
100
AcDbSymbolTable
 70
0
  0
ENDTAB
  0
TABLE
  2
UCS
  5
6
330
0
100
AcDbSymbolTable
 70
0
  0
ENDTAB
  0
TABLE
  2
APPID
  5
3
330
0
100
AcDbSymbolTable
 70
3
  0
APPID
  5
2A
330
3
100
AcDbSymbolTableRecord
100
AcDbRegAppTableRecord
  2
ACAD
 70
0
  0
APPID
  5
1B3
330
3
100
AcDbSymbolTableRecord
100
AcDbRegAppTableRecord
  2
HATCHBACKGROUNDCOLOR
 70
0
  0
APPID
  5
1B4
330
3
100
AcDbSymbolTableRecord
100
AcDbRegAppTableRecord
  2
EZDXF
 70
0
  0
ENDTAB
  0
TABLE
  2
DIMSTYLE
  5
4
330
0
100
AcDbSymbolTable
 70
12
100
AcDbDimStyleTable
  0
DIMSTYLE
105
2B
330
4
100
AcDbSymbolTableRecord
100
AcDbDimStyleTableRecord
  2
Standard
 70
0
 40
1.0
 41
2.5
 42
0.625
 43
3.75
 44
1.25
 45
0.0
 46
0.0
 47
0.0
 48
0.0
 49
2.5
140
2.5
141
2.5
142
0.0
143
0.03937007874
144
1.0
145
0.0
146
1.0
147
0.625
148
0.0
 69
0
 70
0
 71
0
 72
0
 73
0
 74
0
 75
0
 76
0
 77
1
 78
8
 79
3
170
0
171
3
172
1
173
0
174
0
175
0
176
0
177
0
178
0
179
2
271
2
272
2
273
2
274
3
275
0
276
0
277
2
278
44
279
0
280
0
281
0
282
0
283
0
284
8
285
0
286
0
288
0
289
3
290
0
371
-2
372
-2
  0
DIMSTYLE
105
73
330
4
100
AcDbSymbolTableRecord
100
AcDbDimStyleTableRecord
  2
EZDXF
 70
0
 40
1.0
 41
0.175
 42
0.125
 43
3.75
 44
0.375
 45
0.0
 46
0.0
 47
0.0
 48
0.0
 49
2.5
140
0.25
141
2.5
142
0.0
143
0.03937007874
144
100.0
145
0.0
146
0.5
147
0.1
148
0.0
 69
0
 70
0
 71
0
 72
0
 73
0
 74
0
 75
0
 76
0
 77
1
 78
12
 79
3
170
0
171
3
172
1
173
0
174
0
175
0
176
0
177
0
178
0
179
2
271
2
272
2
273
2
274
3
275
0
276
0
277
2
278
46
279
2
280
0
281
0
282
0
283
0
284
8
285
0
286
0
288
1
289
3
290
0
340
4C
342
74
371
-2
372
-2
  0
DIMSTYLE
105
7C
330
4
100
AcDbSymbolTableRecord
100
AcDbDimStyleTableRecord
  2
EZ_M_100_H25_CM
 70
0
 40
1.0
 41
0.25
 42
0.125
 43
3.75
 44
0.375
 45
0.0
 46
0.0
 47
0.0
 48
0.0
 49
2.5
140
0.25
141
2.5
142
0.125
143
0.03937007874
144
100.0
145
0.0
146
0.5
147
0.1
148
0.0
 69
0
 70
0
 71
0
 72
0
 73
0
 74
0
 75
0
 76
0
 77
1
 78
12
 79
3
170
0
171
3
172
1
173
0
174
0
175
0
176
0
177
0
178
0
179
2
271
2
272
2
273
2
274
3
275
0
276
0
277
2
278
46
279
2
280
0
281
0
282
0
283
0
284
8
285
0
286
0
288
1
289
3
290
0
340
4C
371
-2
372
-2
  0
DIMSTYLE
105
7D
330
4
100
AcDbSymbolTableRecord
100
AcDbDimStyleTableRecord
  2
EZ_M_50_H25_CM
 70
0
 40
1.0
 41
0.125
 42
0.0625
 43
3.75
 44
0.1875
 45
0.0
 46
0.0
 47
0.0
 48
0.0
 49
2.5
140
0.125
141
2.5
142
0.0625
143
0.03937007874
144
100.0
145
0.0
146
0.5
147
0.05
148
0.0
 69
0
 70
0
 71
0
 72
0
 73
0
 74
0
 75
0
 76
0
 77
1
 78
12
 79
3
170
0
171
3
172
1
173
0
174
0
175
0
176
0
177
0
178
0
179
2
271
2
272
2
273
2
274
3
275
0
276
0
277
2
278
46
279
2
280
0
281
0
282
0
283
0
284
8
285
0
286
0
288
1
289
3
290
0
340
4C
371
-2
372
-2
  0
DIMSTYLE
105
7E
330
4
100
AcDbSymbolTableRecord
100
AcDbDimStyleTableRecord
  2
EZ_M_25_H25_CM
 70
0
 40
1.0
 41
0.0625
 42
0.03125
 43
3.75
 44
0.09375
 45
0.0
 46
0.0
 47
0.0
 48
0.0
 49
2.5
140
0.0625
141
2.5
142
0.03125
143
0.03937007874
144
100.0
145
0.0
146
0.5
147
0.025
148
0.0
 69
0
 70
0
 71
0
 72
0
 73
0
 74
0
 75
0
 76
0
 77
1
 78
12
 79
3
170
0
171
3
172
1
173
0
174
0
175
0
176
0
177
0
178
0
179
2
271
2
272
2
273
2
274
3
275
0
276
0
277
2
278
46
279
2
280
0
281
0
282
0
283
0
284
8
285
0
286
0
288
1
289
3
290
0
340
4C
371
-2
372
-2
  0
DIMSTYLE
105
7F
330
4
100
AcDbSymbolTableRecord
100
AcDbDimStyleTableRecord
  2
EZ_M_20_H25_CM
 70
0
 40
1.0
 41
0.05
 42
0.025
 43
3.75
 44
0.07500000000000001
 45
0.0
 46
0.0
 47
0.0
 48
0.0
 49
2.5
140
0.05
141
2.5
142
0.025
143
0.03937007874
144
100.0
145
0.0
146
0.5
147
0.020000000000000004
148
0.0
 69
0
 70
0
 71
0
 72
0
 73
0
 74
0
 75
0
 76
0
 77
1
 78
12
 79
3
170
0
171
3
172
1
173
0
174
0
175
0
176
0
177
0
178
0
179
2
271
2
272
2
273
2
274
3
275
0
276
0
277
2
278
46
279
2
280
0
281
0
282
0
283
0
284
8
285
0
286
0
288
1
289
3
290
0
340
4C
371
-2
372
-2
  0
DIMSTYLE
105
80
330
4
100
AcDbSymbolTableRecord
100
AcDbDimStyleTableRecord
  2
EZ_M_10_H25_CM
 70
0
 40
1.0
 41
0.025
 42
0.0125
 43
3.75
 44
0.037500000000000006
 45
0.0
 46
0.0
 47
0.0
 48
0.0
 49
2.5
140
0.025
141
2.5
142
0.0125
143
0.03937007874
144
100.0
145
0.0
146
0.5
147
0.010000000000000002
148
0.0
 69
0
 70
0
 71
0
 72
0
 73
0
 74
0
 75
0
 76
0
 77
1
 78
12
 79
3
170
0
171
3
172
1
173
0
174
0
175
0
176
0
177
0
178
0
179
2
271
2
272
2
273
2
274
3
275
0
276
0
277
2
278
46
279
2
280
0
281
0
282
0
283
0
284
8
285
0
286
0
288
1
289
3
290
0
340
4C
371
-2
372
-2
  0
DIMSTYLE
105
81
330
4
100
AcDbSymbolTableRecord
100
AcDbDimStyleTableRecord
  2
EZ_M_5_H25_CM
 70
0
 40
1.0
 41
0.0125
 42
0.00625
 43
3.75
 44
0.018750000000000003
 45
0.0
 46
0.0
 47
0.0
 48
0.0
 49
2.5
140
0.0125
141
2.5
142
0.00625
143
0.03937007874
144
100.0
145
0.0
146
0.5
147
0.005000000000000001
148
0.0
 69
0
 70
0
 71
0
 72
0
 73
0
 74
0
 75
0
 76
0
 77
1
 78
12
 79
3
170
0
171
3
172
1
173
0
174
0
175
0
176
0
177
0
178
0
179
2
271
2
272
2
273
2
274
3
275
0
276
0
277
2
278
46
279
2
280
0
281
0
282
0
283
0
284
8
285
0
286
0
288
1
289
3
290
0
340
4C
371
-2
372
-2
  0
DIMSTYLE
105
82
330
4
100
AcDbSymbolTableRecord
100
AcDbDimStyleTableRecord
  2
EZ_M_1_H25_CM
 70
0
 40
1.0
 41
0.0025
 42
0.00125
 43
3.75
 44
0.00375
 45
0.0
 46
0.0
 47
0.0
 48
0.0
 49
2.5
140
0.0025
141
2.5
142
0.00125
143
0.03937007874
144
100.0
145
0.0
146
0.5
147
0.001
148
0.0
 69
0
 70
0
 71
0
 72
0
 73
0
 74
0
 75
0
 76
0
 77
1
 78
12
 79
3
170
0
171
3
172
1
173
0
174
0
175
0
176
0
177
0
178
0
179
2
271
2
272
2
273
2
274
3
275
0
276
0
277
2
278
46
279
2
280
0
281
0
282
0
283
0
284
8
285
0
286
0
288
1
289
3
290
0
340
4C
371
-2
372
-2
  0
DIMSTYLE
105
83
330
4
100
AcDbSymbolTableRecord
100
AcDbDimStyleTableRecord
  2
EZ_RADIUS
 70
0
 40
1.0
 41
0.25
 42
0.125
 43
3.75
 44
0.375
 45
0.0
 46
0.0
 47
0.0
 48
0.0
 49
2.5
140
0.25
141
0.0
142
0.0
143
0.03937007874
144
100.0
145
0.0
146
0.5
147
0.1
148
0.0
 69
0
 70
0
 71
0
 72
0
 73
0
 74
0
 75
0
 76
0
 77
1
 78
12
 79
3
170
0
171
3
172
0
173
0
174
0
175
0
176
0
177
0
178
0
179
2
271
2
272
2
273
2
274
3
275
0
276
0
277
2
278
46
279
1
280
0
281
0
282
0
283
0
284
8
285
0
286
0
288
1
289
3
290
0
340
4C
342
84
371
-2
372
-2
  0
DIMSTYLE
105
88
330
4
100
AcDbSymbolTableRecord
100
AcDbDimStyleTableRecord
  2
EZ_RADIUS_INSIDE
 70
0
 40
1.0
 41
0.25
 42
0.125
 43
3.75
 44
0.375
 45
0.0
 46
0.0
 47
0.0
 48
0.0
 49
2.5
140
0.25
141
0.0
142
0.0
143
0.03937007874
144
100.0
145
0.0
146
0.5
147
0.1
148
0.0
 69
0
 70
0
 71
0
 72
0
 73
0
 74
0
 75
0
 76
0
 77
0
 78
12
 79
3
170
0
171
3
172
0
173
0
174
1
175
0
176
0
177
0
178
0
179
2
271
2
272
2
273
2
274
3
275
0
276
0
277
2
278
46
279
0
280
0
281
0
282
0
283
0
284
8
285
0
286
0
288
1
289
0
290
0
340
4C
342
84
371
-2
372
-2
  0
DIMSTYLE
105
89
330
4
100
AcDbSymbolTableRecord
100
AcDbDimStyleTableRecord
  2
EZ_CURVED
 70
0
 40
1.0
 41
0.25
 42
0.125
 43
3.75
 44
0.375
 45
0.0
 46
0.0
 47
0.0
 48
0.0
 49
2.5
140
0.25
141
2.5
142
0.0
143
0.03937007874
144
100.0
145
0.0
146
0.5
147
0.1
148
0.0
 69
0
 70
0
 71
0
 72
0
 73
0
 74
0
 75
0
 76
0
 77
1
 78
12
 79
2
 90
2
170
0
171
3
172
1
173
0
174
0
175
0
176
0
177
0
178
0
179
2
271
2
272
2
273
2
274
3
275
0
276
0
277
2
278
46
279
2
280
0
281
0
282
0
283
0
284
8
285
0
286
0
288
1
289
3
290
0
340
4C
371
-2
372
-2
  0
ENDTAB
  0
TABLE
  2
BLOCK_RECORD
  5
9
330
0
100
AcDbSymbolTable
 70
5
  0
BLOCK_RECORD
  5
17
330
9
100
AcDbSymbolTableRecord
100
AcDbBlockTableRecord
  2
*Model_Space
340
1A
 70
0
280
1
281
0
  0
BLOCK_RECORD
  5
1B
330
9
100
AcDbSymbolTableRecord
100
AcDbBlockTableRecord
  2
*Paper_Space
340
1E
 70
0
280
1
281
0
  0
BLOCK_RECORD
  5
74
330
9
100
AcDbSymbolTableRecord
100
AcDbBlockTableRecord
  2
_ARCHTICK
340
0
 70
0
280
1
281
0
  0
BLOCK_RECORD
  5
78
330
9
100
AcDbSymbolTableRecord
100
AcDbBlockTableRecord
  2
_CLOSEDFILLED
340
0
 70
0
280
1
281
0
  0
BLOCK_RECORD
  5
84
330
9
100
AcDbSymbolTableRecord
100
AcDbBlockTableRecord
  2
_CLOSEDBLANK
340
0
 70
0
280
1
281
0
  0
ENDTAB
  0
ENDSEC
  0
SECTION
  2
BLOCKS
  0
BLOCK
  5
18
330
17
100
AcDbEntity
  8
0
100
AcDbBlockBegin
  2
*Model_Space
 70
0
 10
0.0
 20
0.0
 30
0.0
  3
*Model_Space
  1

  0
ENDBLK
  5
19
330
17
100
AcDbEntity
  8
0
100
AcDbBlockEnd
  0
BLOCK
  5
1C
330
1B
100
AcDbEntity
  8
0
100
AcDbBlockBegin
  2
*Paper_Space
 70
0
 10
0.0
 20
0.0
 30
0.0
  3
*Paper_Space
  1

  0
ENDBLK
  5
1D
330
1B
100
AcDbEntity
  8
0
100
AcDbBlockEnd
  0
BLOCK
  5
75
330
74
100
AcDbEntity
  8
0
100
AcDbBlockBegin
  2
_ARCHTICK
 70
0
 10
0.0
 20
0.0
 30
0.0
  3
_ARCHTICK
  1

  0
LWPOLYLINE
  5
77
330
74
100
AcDbEntity
  8
0
  6
BYBLOCK
 62
0
100
AcDbPolyline
 90
2
 70
0
 43
0.15
 10
-0.5
 20
-0.5
 10
0.5
 20
0.5
  0
ENDBLK
  5
76
330
74
100
AcDbEntity
  8
0
100
AcDbBlockEnd
  0
BLOCK
  5
79
330
78
100
AcDbEntity
  8
0
100
AcDbBlockBegin
  2
_CLOSEDFILLED
 70
0
 10
0.0
 20
0.0
 30
0.0
  3
_CLOSEDFILLED
  1

  0
SOLID
  5
7B
330
78
100
AcDbEntity
  8
0
  6
BYBLOCK
 62
0
100
AcDbTrace
 10
-1.0
 20
0.16439898372402537
 30
0.0
 11
0.0
 21
0.0
 31
0.0
 12
-1.0
 22
-0.16439898372402537
 32
0.0
 13
-1.0
 23
-0.16439898372402537
 33
0.0
  0
ENDBLK
  5
7A
330
78
100
AcDbEntity
  8
0
100
AcDbBlockEnd
  0
BLOCK
  5
85
330
84
100
AcDbEntity
  8
0
100
AcDbBlockBegin
  2
_CLOSEDBLANK
 70
0
 10
0.0
 20
0.0
 30
0.0
  3
_CLOSEDBLANK
  1

  0
LWPOLYLINE
  5
87
330
84
100
AcDbEntity
  8
0
  6
BYBLOCK
 62
0
100
AcDbPolyline
 90
3
 70
1
 10
-1.0
 20
0.16439898372402537
 10
0.0
 20
0.0
 10
-1.0
 20
-0.16439898372402537
  0
ENDBLK
  5
86
330
84
100
AcDbEntity
  8
0
100
AcDbBlockEnd
  0
ENDSEC
  0
SECTION
  2
ENTITIES
  0
LWPOLYLINE
  5
97
330
17
100
AcDbEntity
  8
BOARD_OUTLINE
100
AcDbPolyline
 90
245
 70
1
 10
-63.169814
 20
-64.496746
 10
-63.143363836462576
 20
-64.31038609679838
 10
-63.12917153112703
 20
-64.1226943198295
 10
-63.1272979833582
 20
-63.93447605692383
 10
-63.13775123257368
 20
-63.746538955069745
 10
-63.160486423746555
 20
-63.55968945478996
 10
-63.195405999878915
 20
-63.37472932969483
 10
-63.242360120620184
 20
-63.19245224606146
 10
-63.301147305233975
 20
-63.013640357201524
 10
-63.371515297154566
 20
-62.839060947231346
 10
-63.453162146423026
 20
-62.66946313864584
 10
-63.54573750535839
 20
-62.50557467782428
 10
-63.64884413190407
 20
-62.34809881226119
 10
-63.76203959419863
 20
-62.197711272922355
 10
-63.88483816905662
 20
-62.05505737467446
 10
-64.01671292621296
 20
-61.92074924723077
 10
-64.15709798938754
 20
-61.79536320849463
 10
-64.30539096446759
 20
-61.67943729157189
 10
-64.46095552438861
 20
-61.57346893606397
 10
-64.62312413962194
 20
-61.47791285354811
 10
-64.79120094255259
 20
-61.393179076404145
 10
-64.96446471345614
 20
-61.31963119836028
 10
-65.14217197526182
 20
-61.257584814307705
 10
-65.32356018382224
 20
-61.2073061660789
 10
-65.50785100000009
 20
-61.16901100000048
 10
-113.967272
 20
-53.479239
 10
-114.75407451782226
 20
-53.315878479003906
 10
-115.49705192382811
 20
-53.089802035156254
 10
-116.20192368432618
 20
-52.811117597167964
 10
-116.874409265625
 20
-52.48993309375
 10
-117.5202281340332
 20
-52.13635645361328
 10
-118.14509975585938
 20
-51.76049560546875
 10
-118.75474359741212
 20
-51.37245847802734
 10
-119.354879125
 20
-50.982353
 10
-119.95122580493164
 20
-50.60028710009766
 10
-120.54950310351563
 20
-50.23636870703125
 10
-121.15543048706054
 20
-49.900705749511715
 10
-121.774727421875
 20
-49.60340615625
 10
-122.41311337426758
 20
-49.35457785595703
 10
-123.07630781054687
 20
-49.164328777343755
 10
-123.77003019702148
 20
-49.042766849121094
 10
-124.5
 20
-49.0
 10
-164.0
 20
-49.0
 10
-164.27603602783202
 20
-49.01514880126953
 10
-164.54147200390625
 20
-49.05915969140625
 10
-164.79604976708984
 20
-49.12987939990234
 10
-165.03951115625
 20
-49.22515465625
 10
-165.2715980102539
 20
-49.342832189941404
 10
-165.49205216796875
 20
-49.48075873046875
 10
-165.70061546826173
 20
-49.63678100732422
 10
-165.89702975
 20
-49.80874575
 10
-166.08103685205077
 20
-49.99449968798828
 10
-166.25237861328125
 20
-50.19188955078125
 10
-166.4107968725586
 20
-50.39876206787109
 10
-166.55603346875
 20
-50.612963968749995
 10
-166.68783024072266
 20
-50.83234198291015
 10
-166.80592902734375
 20
-51.05474283984375
 10
-166.91007166748048
 20
-51.27801326904297
 10
-167.0
 20
-51.5
 10
-168.5
 20
-54.5
 10
-168.64654541015625
 20
-54.85205078125
 10
-168.80517578125
 20
-55.16015625
 10
-168.97625732421875
 20
-55.42724609375
 10
-169.16015625
 20
-55.65625
 10
-169.35723876953125
 20
-55.85009765625
 10
-169.56787109375
 20
-56.01171875
 10
-169.79241943359375
 20
-56.14404296875
 10
-170.03125
 20
-56.25
 10
-170.28472900390625
 20
-56.33251953125
 10
-170.55322265625
 20
-56.39453125
 10
-170.83709716796875
 20
-56.43896484375
 10
-171.13671875
 20
-56.46875
 10
-171.45245361328125
 20
-56.48681640625
 10
-171.78466796875
 20
-56.49609375
 10
-172.13372802734375
 20
-56.49951171875
 10
-172.5
 20
-56.5
 10
-177.0
 20
-56.5
 10
-197.0
 20
-56.5
 10
-200.5
 20
-56.5
 10
-200.7808837890625
 20
-56.5115966796875
 10
-201.0595703125
 20
-56.5458984375
 10
-201.3338623046875
 20
-56.6021728515625
 10
-201.6015625
 20
-56.6796875
 10
-201.8604736328125
 20
-56.7777099609375
 10
-202.1083984375
 20
-56.8955078125
 10
-202.3431396484375
 20
-57.0323486328125
 10
-202.5625
 20
-57.1875
 10
-202.7642822265625
 20
-57.3602294921875
 10
-202.9462890625
 20
-57.5498046875
 10
-203.1063232421875
 20
-57.7554931640625
 10
-203.2421875
 20
-57.9765625
 10
-203.3516845703125
 20
-58.2122802734375
 10
-203.4326171875
 20
-58.4619140625
 10
-203.4827880859375
 20
-58.7247314453125
 10
-203.5
 20
-59.0
 10
-203.5
 20
-107.0
 10
-203.501481953125
 20
-107.10905229492187
 10
-203.50613950000002
 20
-107.246116796875
 10
-203.51429017187502
 20
-107.40730493164062
 10
-203.5262515
 20
-107.588728125
 10
-203.542341015625
 20
-107.78649780273437
 10
-203.56287625
 20
-107.996725390625
 10
-203.588174734375
 20
-108.21552231445312
 10
-203.61855400000002
 20
-108.439
 10
-203.654331578125
 20
-108.66326987304687
 10
-203.695825
 20
-108.884443359375
 10
-203.743351796875
 20
-109.09863188476562
 10
-203.79722950000001
 20
-109.301946875
 10
-203.857775640625
 20
-109.49049975585937
 10
-203.92530775
 20
-109.66040195312499
 10
-204.00014335937502
 20
-109.80776489257813
 10
-204.0826
 20
-109.9287
 10
-204.36
 20
-110.2705
 10
-204.5845
 20
-110.6497
 10
-204.7508
 20
-111.0574
 10
-204.8555
 20
-111.4854
 10
-204.8963
 20
-111.9238
 10
-204.8723
 20
-112.3637
 10
-204.6908
 20
-113.0936
 10
-195.9651
 20
-137.0541
 10
-195.6198
 20
-137.6803
 10
-195.4378
 20
-137.911
 10
-195.1248
 20
-138.2206
 10
-194.6432
 20
-138.5559
 10
-194.3801
 20
-138.6866
 10
-193.9644
 20
-138.8328
 10
-193.5321
 20
-138.9163
 10
-193.0919
 20
-138.9356
 10
-192.654
 20
-138.89
 10
-192.2085
 20
-138.7782
 10
-176.9829
 20
-133.2378
 10
-176.0906
 20
-132.9794
 10
-175.3125
 20
-132.8634
 10
-165.5
 20
-132.0
 10
-138.5
 20
-132.0
 10
-117.5
 20
-132.0
 10
-117.32439446780837
 20
-131.99485606708163
 10
-117.14939113936846
 20
-131.97944185230693
 10
-116.97559015493474
 20
-131.9538102157607
 10
-116.80358753155419
 20
-131.91804905621044
 10
-116.63397311914046
 20
-131.87228100967445
 10
-116.46732857769707
 20
-131.81666302886524
 10
-116.30422538262624
 20
-131.75138584495036
 10
-116.14522286496394
 20
-131.67667331347656
 10
-115.99086629326176
 20
-131.5927816467002
 10
-115.84168500369316
 20
-131.4999985349566
 10
-115.69819058479698
 20
-131.39864216008152
 10
-115.5608751230829
 20
-131.28906010426752
 10
-115.43020951551541
 20
-131.1716281580979
 10
-115.30664185466328
 20
-131.0467490318449
 10
-115.19059589205219
 20
-130.91485097445272
 10
-115.08246958499049
 20
-130.77638630493962
 10
-114.98263373185105
 20
-130.63182986125727
 10
-114.89143070048968
 20
-130.48167737192503
 10
-114.80917325416029
 20
-130.32644375602453
 10
-114.73614347895355
 20
-130.1666613573837
 10
-114.67259181643688
 20
-130.00287811900583
 10
-114.61873620481326
 20
-129.83565570400467
 10
-114.57476133154411
 20
-129.66556756948867
 10
-114.54081799999909
 20
-129.49319700000015
 10
-114.156928
 20
-127.468614
 10
-114.12954650272647
 20
-127.34007957798889
 10
-114.0989618607148
 20
-127.21226946998608
 10
-114.0651931725237
 20
-127.08526348692811
 10
-114.02826152498795
 20
-126.95914093761608
 10
-113.98818998005012
 20
-126.83398057919152
 10
-113.94500356035962
 20
-126.70986056795647
 10
-113.89872923364734
 20
-126.58685841056891
 10
-113.84939589588564
 20
-126.46505091564369
 10
-113.79703435324423
 20
-126.34451414578949
 10
-113.7416773028534
 20
-126.2253233701116
 10
-113.68335931238622
 20
-126.10755301721012
 10
-113.6221167984728
 20
-125.9912766287031
 10
-113.55798800395998
 20
-125.87656681330354
 10
-113.49101297403055
 20
-125.76349520147889
 10
-113.42123353119717
 20
-125.65213240072148
 10
-113.3486932491862
 20
-125.54254795145775
 10
-113.27343742572819
 20
-125.43481028362366
 10
-113.19551305427174
 20
-125.32898667393383
 10
-113.11496879463847
 20
-125.22514320387047
 10
-113.0318549426374
 20
-125.123344718419
 10
-112.94622339865776
 20
-125.02365478557553
 10
-112.85812763525993
 20
-124.92613565665191
 10
-112.76762266378438
 20
-124.83084822740292
 10
-112.674765
 20
-124.737852
 10
-112.61062222616121
 20
-124.6957085771936
 10
-112.54592010154502
 20
-124.65442905937024
 10
-112.48067026088884
 20
-124.61402086940929
 10
-112.41488443741834
 20
-124.57449127351097
 10
-112.34857446073953
 20
-124.53584737988685
 10
-112.28175225471172
 20
-124.49809613748141
 10
-112.21442983530326
 20
-124.46124433472266
 10
-112.14661930843089
 20
-124.42529859830138
 10
-112.07833286778279
 20
-124.3902653919795
 10
-112.00958279262599
 20
-124.3561510154278
 10
-111.94038144559826
 20
-124.32296160309309
 10
-111.87074127048504
 20
-124.29070312309513
 10
-111.80067478998188
 20
-124.25938137615346
 10
-111.73019460344256
 20
-124.22900199454426
 10
-111.65931338461341
 20
-124.19957044108762
 10
-111.58804387935444
 20
-124.17109200816512
 10
-111.51639890334734
 20
-124.1435718167683
 10
-111.44439133979088
 20
-124.11701481557765
 10
-111.37203413708437
 20
-124.09142578007285
 10
-111.2993403064992
 20
-124.06680931167398
 10
-111.22632291983922
 20
-124.04316983691412
 10
-111.15299510709006
 20
-124.02051160664337
 10
-111.07937005405824
 20
-123.99883869526442
 10
-111.005461
 20
-123.978155
 10
-110.90049295233703
 20
-123.95264036452494
 10
-110.79520054127987
 20
-123.92849919994309
 10
-110.68960173741438
 20
-123.90573562650263
 10
-110.58371456361948
 20
-123.88435352933402
 10
-110.47755709199105
 20
-123.8643565577868
 10
-110.37114744075758
 20
-123.8457481248068
 10
-110.26450377118782
 20
-123.82853140635362
 10
-110.15764428449118
 20
-123.81270934085855
 10
-110.05058721871124
 20
-123.79828462872311
 10
-109.94335084561304
 20
-123.78525973185816
 10
-109.83595346756454
 20
-123.77363687326367
 10
-109.72841341441294
 20
-123.76341803664934
 10
-109.62074904035623
 20
-123.75460496609608
 10
-109.51297872081065
 20
-123.74719916575825
 10
-109.4051208492745
 20
-123.74120189960699
 10
-109.2971938341888
 20
-123.73661419121456
 10
-109.1892160957956
 20
-123.7334368235795
 10
-109.08120606299399
 20
-123.73167033899311
 10
-108.97318217019486
 20
-123.73131503894686
 10
-108.86516285417466
 20
-123.73237098408092
 10
-108.75716655092864
 20
-123.73483799417383
 10
-108.6492116925245
 20
-123.73871564817323
 10
-108.5413167039563
 20
-123.74400328426776
 10
-108.4335
 20
-123.7507
 10
-107.9333
 20
-123.809
 10
-76.2956
 20
-128.8152
 10
-75.5806
 20
-128.8169
 10
-75.0067
 20
-128.6939
 10
-74.4679
 20
-128.4614
 10
-73.9848
 20
-128.1282
 10
-73.6704
 20
-127.8199
 10
-73.3278
 20
-127.3435
 10
-73.0847
 20
-126.8094
 10
-72.9466
 20
-126.2569
 10
-65.084
 20
-76.5887
 10
-63.17
 20
-64.497
  0
LWPOLYLINE
  5
98
330
17
100
AcDbEntity
  8
BATTERY_BAY
100
AcDbPolyline
 90
69
 70
1
 10
-177.0
 20
-60.5
 10
-177.0051628845215
 20
-60.39775576782227
 10
-177.02031643554687
 20
-60.29846504882812
 10
-177.04495799926758
 20
-60.202630496826174
 10
-177.078584921875
 20
-60.110754765625
 10
-177.12069454956054
 20
-60.023340509033204
 10
-177.17078422851563
 20
-59.94089038085937
 10
-177.22835130493164
 20
-59.86390703491211
 10
-177.29289312499998
 20
-59.792893125
 10
-177.3639070349121
 20
-59.72835130493164
 10
-177.44089038085937
 20
-59.67078422851563
 10
-177.5233405090332
 20
-59.62069454956055
 10
-177.610754765625
 20
-59.578584921875
 10
-177.70263049682617
 20
-59.54495799926758
 10
-177.79846504882812
 20
-59.520316435546874
 10
-177.89775576782228
 20
-59.50516288452148
 10
-178.0
 20
-59.5
 10
-201.0
 20
-59.5
 10
-201.10224423217772
 20
-59.50516288452148
 10
-201.20153495117188
 20
-59.520316435546874
 10
-201.29736950317383
 20
-59.54495799926758
 10
-201.389245234375
 20
-59.578584921875
 10
-201.4766594909668
 20
-59.62069454956055
 10
-201.55910961914063
 20
-59.67078422851563
 10
-201.6360929650879
 20
-59.72835130493164
 10
-201.70710687500002
 20
-59.792893125
 10
-201.77164869506836
 20
-59.86390703491211
 10
-201.82921577148437
 20
-59.94089038085937
 10
-201.87930545043946
 20
-60.023340509033204
 10
-201.921415078125
 20
-60.110754765625
 10
-201.95504200073242
 20
-60.202630496826174
 10
-201.97968356445313
 20
-60.29846504882812
 10
-201.9948371154785
 20
-60.39775576782227
 10
-202.0
 20
-60.5
 10
-202.0
 20
-97.0
 10
-201.9948371154785
 20
-97.10224423217774
 10
-201.97968356445313
 20
-97.20153495117188
 10
-201.95504200073242
 20
-97.29736950317383
 10
-201.921415078125
 20
-97.389245234375
 10
-201.87930545043946
 20
-97.4766594909668
 10
-201.82921577148437
 20
-97.55910961914063
 10
-201.77164869506836
 20
-97.6360929650879
 10
-201.70710687500002
 20
-97.707106875
 10
-201.6360929650879
 20
-97.77164869506836
 10
-201.55910961914063
 20
-97.82921577148437
 10
-201.4766594909668
 20
-97.87930545043946
 10
-201.389245234375
 20
-97.921415078125
 10
-201.29736950317383
 20
-97.95504200073242
 10
-201.20153495117188
 20
-97.97968356445313
 10
-201.10224423217772
 20
-97.99483711547852
 10
-201.0
 20
-98.0
 10
-178.0
 20
-98.0
 10
-177.89775576782228
 20
-97.99483711547852
 10
-177.79846504882812
 20
-97.97968356445313
 10
-177.70263049682617
 20
-97.95504200073242
 10
-177.610754765625
 20
-97.921415078125
 10
-177.5233405090332
 20
-97.87930545043946
 10
-177.44089038085937
 20
-97.82921577148437
 10
-177.3639070349121
 20
-97.77164869506836
 10
-177.29289312499998
 20
-97.707106875
 10
-177.22835130493164
 20
-97.6360929650879
 10
-177.17078422851563
 20
-97.55910961914063
 10
-177.12069454956054
 20
-97.4766594909668
 10
-177.078584921875
 20
-97.389245234375
 10
-177.04495799926758
 20
-97.29736950317383
 10
-177.02031643554687
 20
-97.20153495117188
 10
-177.0051628845215
 20
-97.10224423217774
 10
-177.0
 20
-97.0
 10
-177.0
 20
-60.5
  0
LWPOLYLINE
  5
99
330
17
100
AcDbEntity
  8
KEYCAPS
100
AcDbPolyline
 90
4
 70
1
 10
-159.625
 20
-59.875
 10
-175.675
 20
-59.875
 10
-175.675
 20
-76.125
 10
-159.625
 20
-76.125
  0
LWPOLYLINE
  5
9A
330
17
100
AcDbEntity
  8
KEYCAP_GUARD
100
AcDbPolyline
 90
4
 70
1
 10
-159.125
 20
-59.375
 10
-176.175
 20
-59.375
 10
-176.175
 20
-76.625
 10
-159.125
 20
-76.625
  0
LWPOLYLINE
  5
9B
330
17
100
AcDbEntity
  8
KEYCAPS
100
AcDbPolyline
 90
4
 70
1
 10
-106.28447714749389
 20
-75.73938779343554
 10
-122.29538015416408
 20
-74.61979638984234
 10
-123.42892285250612
 20
-90.83021220656447
 10
-107.41801984583593
 20
-91.94980361015767
  0
LWPOLYLINE
  5
9C
330
17
100
AcDbEntity
  8
KEYCAP_GUARD
100
AcDbPolyline
 90
4
 70
1
 10
-105.75081688549191
 20
-75.27548400517769
 10
-122.75928394242193
 20
-74.08613612784036
 10
-123.96258311450809
 20
-91.29411599482232
 10
-106.95411605757808
 20
-92.48346387215965
  0
LWPOLYLINE
  5
9D
330
17
100
AcDbEntity
  8
KEYCAPS
100
AcDbPolyline
 90
4
 70
1
 10
-178.14660220631046
 20
-130.47091976841497
 10
-186.868115861115
 20
-106.50875793837432
 10
-201.90319779368954
 20
-111.98108023158503
 10
-193.181684138885
 20
-135.94324206162568
  0
LWPOLYLINE
  5
9E
330
17
100
AcDbEntity
  8
KEYCAP_GUARD
100
AcDbPolyline
 90
4
 70
1
 10
-177.5057458242547
 20
-130.7697560071451
 10
-186.5692796223849
 20
-105.86790155631853
 10
-202.54405417574532
 20
-111.68224399285491
 10
-193.4805203776151
 20
-136.58409844368148
  0
LWPOLYLINE
  5
9F
330
17
100
AcDbEntity
  8
KEYCAPS
100
AcDbPolyline
 90
4
 70
1
 10
-159.625
 20
-76.875
 10
-175.675
 20
-76.875
 10
-175.675
 20
-93.125
 10
-159.625
 20
-93.125
  0
LWPOLYLINE
  5
A0
330
17
100
AcDbEntity
  8
KEYCAP_GUARD
100
AcDbPolyline
 90
4
 70
1
 10
-159.125
 20
-76.375
 10
-176.175
 20
-76.375
 10
-176.175
 20
-93.625
 10
-159.125
 20
-93.625
  0
LWPOLYLINE
  5
A1
330
17
100
AcDbEntity
  8
KEYCAPS
100
AcDbPolyline
 90
4
 70
1
 10
-90.16647103827214
 20
-107.13301881461236
 10
-106.0188689048241
 20
-104.62224565071666
 10
-108.56092896172785
 20
-120.67218118538766
 10
-92.70853109517589
 20
-123.18295434928335
  0
LWPOLYLINE
  5
A2
330
17
100
AcDbEntity
  8
KEYCAP_GUARD
100
AcDbPolyline
 90
4
 70
1
 10
-89.59440963545445
 20
-106.71739187683491
 10
-106.43449584260155
 20
-104.05018424789898
 10
-109.13299036454553
 20
-121.0878081231651
 10
-92.29290415739844
 20
-123.75501575210103
  0
LWPOLYLINE
  5
A3
330
17
100
AcDbEntity
  8
KEYCAPS
100
AcDbPolyline
 90
4
 70
1
 10
-84.84767103827214
 20
-73.55151881461235
 10
-100.70006890482411
 20
-71.04074565071666
 10
-103.24212896172786
 20
-87.09068118538765
 10
-87.38973109517589
 20
-89.60145434928334
  0
LWPOLYLINE
  5
A4
330
17
100
AcDbEntity
  8
KEYCAP_GUARD
100
AcDbPolyline
 90
4
 70
1
 10
-84.27560963545446
 20
-73.1358918768349
 10
-101.11569584260155
 20
-70.46868424789898
 10
-103.81419036454554
 20
-87.5063081231651
 10
-86.97410415739844
 20
-90.17351575210103
  0
LWPOLYLINE
  5
A5
330
17
100
AcDbEntity
  8
KEYCAPS
100
AcDbPolyline
 90
4
 70
1
 10
-142.625
 20
-74.875
 10
-158.675
 20
-74.875
 10
-158.675
 20
-91.125
 10
-142.625
 20
-91.125
  0
LWPOLYLINE
  5
A6
330
17
100
AcDbEntity
  8
KEYCAP_GUARD
100
AcDbPolyline
 90
4
 70
1
 10
-142.125
 20
-74.375
 10
-159.175
 20
-74.375
 10
-159.175
 20
-91.625
 10
-142.125
 20
-91.625
  0
LWPOLYLINE
  5
A7
330
17
100
AcDbEntity
  8
KEYCAPS
100
AcDbPolyline
 90
4
 70
1
 10
-105.09867714749389
 20
-58.78078779343553
 10
-121.10958015416408
 20
-57.661196389842324
 10
-122.24312285250612
 20
-73.87161220656446
 10
-106.23221984583593
 20
-74.99120361015767
  0
LWPOLYLINE
  5
A8
330
17
100
AcDbEntity
  8
KEYCAP_GUARD
100
AcDbPolyline
 90
4
 70
1
 10
-104.56501688549191
 20
-58.31688400517768
 10
-121.57348394242193
 20
-57.12753612784035
 10
-122.77678311450809
 20
-74.33551599482232
 10
-105.76831605757808
 20
-75.52486387215964
  0
LWPOLYLINE
  5
A9
330
17
100
AcDbEntity
  8
KEYCAPS
100
AcDbPolyline
 90
4
 70
1
 10
-125.625
 20
-51.875
 10
-141.675
 20
-51.875
 10
-141.675
 20
-68.125
 10
-125.625
 20
-68.125
  0
LWPOLYLINE
  5
AA
330
17
100
AcDbEntity
  8
KEYCAP_GUARD
100
AcDbPolyline
 90
4
 70
1
 10
-125.125
 20
-51.375
 10
-142.175
 20
-51.375
 10
-142.175
 20
-68.625
 10
-125.125
 20
-68.625
  0
LWPOLYLINE
  5
AB
330
17
100
AcDbEntity
  8
KEYCAPS
100
AcDbPolyline
 90
4
 70
1
 10
-68.05697103827214
 20
-76.21091881461236
 10
-83.9093689048241
 20
-73.70014565071666
 10
-86.45142896172786
 20
-89.75008118538766
 10
-70.59903109517589
 20
-92.26085434928335
  0
LWPOLYLINE
  5
AC
330
17
100
AcDbEntity
  8
KEYCAP_GUARD
100
AcDbPolyline
 90
4
 70
1
 10
-67.48490963545446
 20
-75.79529187683491
 10
-84.32499584260155
 20
-73.12808424789898
 10
-87.02349036454554
 20
-90.1657081231651
 10
-70.18340415739844
 20
-92.83291575210103
  0
LWPOLYLINE
  5
AD
330
17
100
AcDbEntity
  8
KEYCAPS
100
AcDbPolyline
 90
4
 70
1
 10
-87.50707103827214
 20
-90.34221881461235
 10
-103.35946890482411
 20
-87.83144565071666
 10
-105.90152896172786
 20
-103.88138118538765
 10
-90.0491310951759
 20
-106.39215434928335
  0
LWPOLYLINE
  5
AE
330
17
100
AcDbEntity
  8
KEYCAP_GUARD
100
AcDbPolyline
 90
4
 70
1
 10
-86.93500963545446
 20
-89.9265918768349
 10
-103.77509584260156
 20
-87.25938424789898
 10
-106.47359036454554
 20
-104.2970081231651
 10
-89.63350415739845
 20
-106.96421575210103
  0
LWPOLYLINE
  5
AF
330
17
100
AcDbEntity
  8
KEYCAPS
100
AcDbPolyline
 90
4
 70
1
 10
-125.625
 20
-85.875
 10
-141.675
 20
-85.875
 10
-141.675
 20
-102.125
 10
-125.625
 20
-102.125
  0
LWPOLYLINE
  5
B0
330
17
100
AcDbEntity
  8
KEYCAP_GUARD
100
AcDbPolyline
 90
4
 70
1
 10
-125.125
 20
-85.375
 10
-142.175
 20
-85.375
 10
-142.175
 20
-102.625
 10
-125.125
 20
-102.625
  0
LWPOLYLINE
  5
B1
330
17
100
AcDbEntity
  8
KEYCAPS
100
AcDbPolyline
 90
4
 70
1
 10
-142.625
 20
-91.875
 10
-158.675
 20
-91.875
 10
-158.675
 20
-108.125
 10
-142.625
 20
-108.125
  0
LWPOLYLINE
  5
B2
330
17
100
AcDbEntity
  8
KEYCAP_GUARD
100
AcDbPolyline
 90
4
 70
1
 10
-142.125
 20
-91.375
 10
-159.175
 20
-91.375
 10
-159.175
 20
-108.625
 10
-142.125
 20
-108.625
  0
LWPOLYLINE
  5
B3
330
17
100
AcDbEntity
  8
KEYCAPS
100
AcDbPolyline
 90
4
 70
1
 10
-159.625
 20
-93.875
 10
-175.675
 20
-93.875
 10
-175.675
 20
-110.125
 10
-159.625
 20
-110.125
  0
LWPOLYLINE
  5
B4
330
17
100
AcDbEntity
  8
KEYCAP_GUARD
100
AcDbPolyline
 90
4
 70
1
 10
-159.125
 20
-93.375
 10
-176.175
 20
-93.375
 10
-176.175
 20
-110.625
 10
-159.125
 20
-110.625
  0
LWPOLYLINE
  5
B5
330
17
100
AcDbEntity
  8
KEYCAPS
100
AcDbPolyline
 90
4
 70
1
 10
-141.625
 20
-111.875
 10
-157.675
 20
-111.875
 10
-157.675
 20
-128.125
 10
-141.625
 20
-128.125
  0
LWPOLYLINE
  5
B6
330
17
100
AcDbEntity
  8
KEYCAP_GUARD
100
AcDbPolyline
 90
4
 70
1
 10
-141.125
 20
-111.375
 10
-158.175
 20
-111.375
 10
-158.175
 20
-128.625
 10
-141.125
 20
-128.625
  0
LWPOLYLINE
  5
B7
330
17
100
AcDbEntity
  8
KEYCAPS
100
AcDbPolyline
 90
4
 70
1
 10
-142.625
 20
-57.875
 10
-158.675
 20
-57.875
 10
-158.675
 20
-74.125
 10
-142.625
 20
-74.125
  0
LWPOLYLINE
  5
B8
330
17
100
AcDbEntity
  8
KEYCAP_GUARD
100
AcDbPolyline
 90
4
 70
1
 10
-142.125
 20
-57.375
 10
-159.175
 20
-57.375
 10
-159.175
 20
-74.625
 10
-142.125
 20
-74.625
  0
LWPOLYLINE
  5
B9
330
17
100
AcDbEntity
  8
KEYCAPS
100
AcDbPolyline
 90
4
 70
1
 10
-73.37577103827213
 20
-109.79231881461234
 10
-89.2281689048241
 20
-107.28154565071665
 10
-91.77022896172785
 20
-123.33148118538764
 10
-75.91783109517588
 20
-125.84225434928334
  0
LWPOLYLINE
  5
BA
330
17
100
AcDbEntity
  8
KEYCAP_GUARD
100
AcDbPolyline
 90
4
 70
1
 10
-72.80370963545445
 20
-109.3766918768349
 10
-89.64379584260155
 20
-106.70948424789897
 10
-92.34229036454553
 20
-123.74710812316509
 10
-75.50220415739844
 20
-126.41431575210102
  0
LWPOLYLINE
  5
BB
330
17
100
AcDbEntity
  8
KEYCAPS
100
AcDbPolyline
 90
4
 70
1
 10
-70.71637103827214
 20
-93.00161881461234
 10
-86.56876890482411
 20
-90.49084565071665
 10
-89.11082896172786
 20
-106.54078118538764
 10
-73.2584310951759
 20
-109.05155434928334
  0
LWPOLYLINE
  5
BC
330
17
100
AcDbEntity
  8
KEYCAP_GUARD
100
AcDbPolyline
 90
4
 70
1
 10
-70.14430963545446
 20
-92.5859918768349
 10
-86.98439584260156
 20
-89.91878424789897
 10
-89.68289036454554
 20
-106.95640812316509
 10
-72.84280415739845
 20
-109.62361575210102
  0
LWPOLYLINE
  5
BD
330
17
100
AcDbEntity
  8
KEYCAPS
100
AcDbPolyline
 90
4
 70
1
 10
-125.625
 20
-68.875
 10
-141.675
 20
-68.875
 10
-141.675
 20
-85.125
 10
-125.625
 20
-85.125
  0
LWPOLYLINE
  5
BE
330
17
100
AcDbEntity
  8
KEYCAP_GUARD
100
AcDbPolyline
 90
4
 70
1
 10
-125.125
 20
-68.375
 10
-142.175
 20
-68.375
 10
-142.175
 20
-85.625
 10
-125.125
 20
-85.625
  0
LWPOLYLINE
  5
BF
330
17
100
AcDbEntity
  8
KEYCAPS
100
AcDbPolyline
 90
4
 70
1
 10
-162.09977795763845
 20
-112.3838932424546
 10
-178.088702862011
 20
-113.78274291355453
 10
-176.67242204236155
 20
-129.9709067575454
 10
-160.683497137989
 20
-128.57205708644548
  0
LWPOLYLINE
  5
C0
330
17
100
AcDbEntity
  8
KEYCAP_GUARD
100
AcDbPolyline
 90
4
 70
1
 10
-161.64525847996643
 20
-111.84221802203491
 10
-178.63037808243067
 20
-113.32822343588249
 10
-177.12694152003357
 20
-130.5125819779651
 10
-160.14182191756933
 20
-129.02657656411753
  0
LWPOLYLINE
  5
C1
330
17
100
AcDbEntity
  8
KEYCAPS
100
AcDbPolyline
 90
4
 70
1
 10
-107.47037714749388
 20
-92.69798779343553
 10
-123.48128015416407
 20
-91.57839638984233
 10
-124.61482285250611
 20
-107.78881220656446
 10
-108.60391984583592
 20
-108.90840361015766
  0
LWPOLYLINE
  5
C2
330
17
100
AcDbEntity
  8
KEYCAP_GUARD
100
AcDbPolyline
 90
4
 70
1
 10
-106.93671688549192
 20
-92.23408400517768
 10
-123.9451839424219
 20
-91.04473612784035
 10
-125.14848311450807
 20
-108.25271599482231
 10
-108.14001605757808
 20
-109.44206387215964
  0
LWPOLYLINE
  5
C3
330
17
100
AcDbEntity
  8
XIAO
100
AcDbPolyline
 90
53
 70
1
 10
-118.61
 20
-112.991
 10
-118.61
 20
-130.136
 10
-118.62629770658927
 20
-130.38465233440343
 10
-118.67491159590865
 20
-130.62905014210548
 10
-118.75500987241874
 20
-130.86501171682573
 10
-118.86522203501279
 20
-131.08849969829382
 10
-119.00366232662596
 20
-131.2956901524716
 10
-119.167962
 20
-131.483038
 10
-119.35530984752839
 20
-131.64733767337404
 10
-119.56250030170618
 20
-131.7857779649872
 10
-119.78598828317428
 20
-131.89599012758126
 10
-120.02194985789451
 20
-131.97608840409134
 10
-120.26634766559658
 20
-132.0247022934107
 10
-120.515
 20
-132.041
 10
-134.485
 20
-132.041
 10
-134.73365233440342
 20
-132.0247022934107
 10
-134.9780501421055
 20
-131.97608840409134
 10
-135.21401171682572
 20
-131.89599012758126
 10
-135.4374996982938
 20
-131.7857779649872
 10
-135.6446901524716
 20
-131.64733767337404
 10
-135.832038
 20
-131.483038
 10
-135.99633767337406
 20
-131.29569015247162
 10
-136.13477796498722
 20
-131.08849969829382
 10
-136.24499012758125
 20
-130.86501171682573
 10
-136.32508840409133
 20
-130.62905014210548
 10
-136.37370229341073
 20
-130.38465233440343
 10
-136.39
 20
-130.136
 10
-136.39
 20
-112.991
 10
-136.37370229341073
 20
-112.74234766559658
 10
-136.32508840409133
 20
-112.4979498578945
 10
-136.24499012758127
 20
-112.26198828317428
 10
-136.13477796498722
 20
-112.03850030170618
 10
-135.99633767337406
 20
-111.83130984752839
 10
-135.832038
 20
-111.64396199999999
 10
-135.6446901524716
 20
-111.47966232662594
 10
-135.43749969829383
 20
-111.34122203501278
 10
-135.21401171682572
 20
-111.23100987241874
 10
-134.9780501421055
 20
-111.15091159590865
 10
-134.73365233440342
 20
-111.10229770658927
 10
-134.485
 20
-111.086
 10
-120.515
 20
-111.086
 10
-120.26634766559658
 20
-111.10229770658927
 10
-120.0219498578945
 20
-111.15091159590865
 10
-119.78598828317426
 20
-111.23100987241874
 10
-119.56250030170618
 20
-111.34122203501278
 10
-119.35530984752839
 20
-111.47966232662594
 10
-119.16796199999999
 20
-111.64396199999999
 10
-119.00366232662594
 20
-111.83130984752839
 10
-118.86522203501278
 20
-112.03850030170618
 10
-118.75500987241874
 20
-112.26198828317428
 10
-118.67491159590865
 20
-112.4979498578945
 10
-118.62629770658927
 20
-112.74234766559658
 10
-118.61
 20
-112.991
  0
LWPOLYLINE
  5
C4
330
17
100
AcDbEntity
  8
XIAO_USB
100
AcDbPolyline
 90
4
 70
1
 10
-131.31
 20
-127.215
 10
-131.31
 20
-133.565
 10
-123.69
 20
-133.565
 10
-123.69
 20
-127.215
  0
CIRCLE
  5
C5
330
17
100
AcDbEntity
  8
M1_HOLES
100
AcDbCircle
 10
-138.612806
 20
-130.378892
 30
0.0
 40
0.6
  0
LINE
  5
C6
330
17
100
AcDbEntity
  8
M1_HOLES
100
AcDbLine
 10
-139.612806
 20
-130.378892
 30
0.0
 11
-137.612806
 21
-130.378892
 31
0.0
  0
LINE
  5
C7
330
17
100
AcDbEntity
  8
M1_HOLES
100
AcDbLine
 10
-138.612806
 20
-131.378892
 30
0.0
 11
-138.612806
 21
-129.378892
 31
0.0
  0
TEXT
  5
C8
330
17
100
AcDbEntity
  8
LABELS
100
AcDbText
 10
-137.41280600000002
 20
-129.17889200000002
 30
0.0
 40
0.8
  1
M1 (-138.61, -130.38)
 11
-137.41280600000002
 21
-129.17889200000002
 31
0.0
100
AcDbText
  0
CIRCLE
  5
C9
330
17
100
AcDbEntity
  8
M1_HOLES
100
AcDbCircle
 10
-199.0
 20
-99.5
 30
0.0
 40
0.6
  0
LINE
  5
CA
330
17
100
AcDbEntity
  8
M1_HOLES
100
AcDbLine
 10
-200.0
 20
-99.5
 30
0.0
 11
-198.0
 21
-99.5
 31
0.0
  0
LINE
  5
CB
330
17
100
AcDbEntity
  8
M1_HOLES
100
AcDbLine
 10
-199.0
 20
-100.5
 30
0.0
 11
-199.0
 21
-98.5
 31
0.0
  0
TEXT
  5
CC
330
17
100
AcDbEntity
  8
LABELS
100
AcDbText
 10
-197.8
 20
-98.3
 30
0.0
 40
0.8
  1
M1 (-199.00, -99.50)
 11
-197.8
 21
-98.3
 31
0.0
100
AcDbText
  0
CIRCLE
  5
CD
330
17
100
AcDbEntity
  8
M1_HOLES
100
AcDbCircle
 10
-180.0
 20
-99.5
 30
0.0
 40
0.6
  0
LINE
  5
CE
330
17
100
AcDbEntity
  8
M1_HOLES
100
AcDbLine
 10
-181.0
 20
-99.5
 30
0.0
 11
-179.0
 21
-99.5
 31
0.0
  0
LINE
  5
CF
330
17
100
AcDbEntity
  8
M1_HOLES
100
AcDbLine
 10
-180.0
 20
-100.5
 30
0.0
 11
-180.0
 21
-98.5
 31
0.0
  0
TEXT
  5
D0
330
17
100
AcDbEntity
  8
LABELS
100
AcDbText
 10
-178.8
 20
-98.3
 30
0.0
 40
0.8
  1
M1 (-180.00, -99.50)
 11
-178.8
 21
-98.3
 31
0.0
100
AcDbText
  0
CIRCLE
  5
D1
330
17
100
AcDbEntity
  8
M1_HOLES
100
AcDbCircle
 10
-104.5
 20
-56.5
 30
0.0
 40
0.6
  0
LINE
  5
D2
330
17
100
AcDbEntity
  8
M1_HOLES
100
AcDbLine
 10
-105.5
 20
-56.5
 30
0.0
 11
-103.5
 21
-56.5
 31
0.0
  0
LINE
  5
D3
330
17
100
AcDbEntity
  8
M1_HOLES
100
AcDbLine
 10
-104.5
 20
-57.5
 30
0.0
 11
-104.5
 21
-55.5
 31
0.0
  0
TEXT
  5
D4
330
17
100
AcDbEntity
  8
LABELS
100
AcDbText
 10
-103.3
 20
-55.3
 30
0.0
 40
0.8
  1
M1 (-104.50, -56.50)
 11
-103.3
 21
-55.3
 31
0.0
100
AcDbText
  0
CIRCLE
  5
D5
330
17
100
AcDbEntity
  8
M1_HOLES
100
AcDbCircle
 10
-198.920161
 20
-58.0
 30
0.0
 40
0.6
  0
LINE
  5
D6
330
17
100
AcDbEntity
  8
M1_HOLES
100
AcDbLine
 10
-199.920161
 20
-58.0
 30
0.0
 11
-197.920161
 21
-58.0
 31
0.0
  0
LINE
  5
D7
330
17
100
AcDbEntity
  8
M1_HOLES
100
AcDbLine
 10
-198.920161
 20
-59.0
 30
0.0
 11
-198.920161
 21
-57.0
 31
0.0
  0
TEXT
  5
D8
330
17
100
AcDbEntity
  8
LABELS
100
AcDbText
 10
-197.72016100000002
 20
-56.8
 30
0.0
 40
0.8
  1
M1 (-198.92, -58.00)
 11
-197.72016100000002
 21
-56.8
 31
0.0
100
AcDbText
  0
CIRCLE
  5
D9
330
17
100
AcDbEntity
  8
M1_HOLES
100
AcDbCircle
 10
-66.299106
 20
-74.3289
 30
0.0
 40
0.6
  0
LINE
  5
DA
330
17
100
AcDbEntity
  8
M1_HOLES
100
AcDbLine
 10
-67.299106
 20
-74.3289
 30
0.0
 11
-65.299106
 21
-74.3289
 31
0.0
  0
LINE
  5
DB
330
17
100
AcDbEntity
  8
M1_HOLES
100
AcDbLine
 10
-66.299106
 20
-75.3289
 30
0.0
 11
-66.299106
 21
-73.3289
 31
0.0
  0
TEXT
  5
DC
330
17
100
AcDbEntity
  8
LABELS
100
AcDbText
 10
-65.09910599999999
 20
-73.1289
 30
0.0
 40
0.8
  1
M1 (-66.30, -74.33)
 11
-65.09910599999999
 21
-73.1289
 31
0.0
100
AcDbText
  0
CIRCLE
  5
DD
330
17
100
AcDbEntity
  8
M1_HOLES
100
AcDbCircle
 10
-134.5
 20
-109.5
 30
0.0
 40
0.6
  0
LINE
  5
DE
330
17
100
AcDbEntity
  8
M1_HOLES
100
AcDbLine
 10
-135.5
 20
-109.5
 30
0.0
 11
-133.5
 21
-109.5
 31
0.0
  0
LINE
  5
DF
330
17
100
AcDbEntity
  8
M1_HOLES
100
AcDbLine
 10
-134.5
 20
-110.5
 30
0.0
 11
-134.5
 21
-108.5
 31
0.0
  0
TEXT
  5
E0
330
17
100
AcDbEntity
  8
LABELS
100
AcDbText
 10
-133.3
 20
-108.3
 30
0.0
 40
0.8
  1
M1 (-134.50, -109.50)
 11
-133.3
 21
-108.3
 31
0.0
100
AcDbText
  0
CIRCLE
  5
E1
330
17
100
AcDbEntity
  8
M1_HOLES
100
AcDbCircle
 10
-116.616507
 20
-130.277058
 30
0.0
 40
0.6
  0
LINE
  5
E2
330
17
100
AcDbEntity
  8
M1_HOLES
100
AcDbLine
 10
-117.616507
 20
-130.277058
 30
0.0
 11
-115.616507
 21
-130.277058
 31
0.0
  0
LINE
  5
E3
330
17
100
AcDbEntity
  8
M1_HOLES
100
AcDbLine
 10
-116.616507
 20
-131.277058
 30
0.0
 11
-116.616507
 21
-129.277058
 31
0.0
  0
TEXT
  5
E4
330
17
100
AcDbEntity
  8
LABELS
100
AcDbText
 10
-115.416507
 20
-129.07705800000002
 30
0.0
 40
0.8
  1
M1 (-116.62, -130.28)
 11
-115.416507
 21
-129.07705800000002
 31
0.0
100
AcDbText
  0
CIRCLE
  5
E5
330
17
100
AcDbEntity
  8
M1_HOLES
100
AcDbCircle
 10
-64.66975
 20
-63.839924
 30
0.0
 40
0.6
  0
LINE
  5
E6
330
17
100
AcDbEntity
  8
M1_HOLES
100
AcDbLine
 10
-65.66975
 20
-63.839924
 30
0.0
 11
-63.66974999999999
 21
-63.839924
 31
0.0
  0
LINE
  5
E7
330
17
100
AcDbEntity
  8
M1_HOLES
100
AcDbLine
 10
-64.66975
 20
-64.839924
 30
0.0
 11
-64.66975
 21
-62.839924
 31
0.0
  0
TEXT
  5
E8
330
17
100
AcDbEntity
  8
LABELS
100
AcDbText
 10
-63.46974999999999
 20
-62.639924
 30
0.0
 40
0.8
  1
M1 (-64.67, -63.84)
 11
-63.46974999999999
 21
-62.639924
 31
0.0
100
AcDbText
  0
CIRCLE
  5
E9
330
17
100
AcDbEntity
  8
M1_HOLES
100
AcDbCircle
 10
-180.046793
 20
-58.0
 30
0.0
 40
0.6
  0
LINE
  5
EA
330
17
100
AcDbEntity
  8
M1_HOLES
100
AcDbLine
 10
-181.046793
 20
-58.0
 30
0.0
 11
-179.046793
 21
-58.0
 31
0.0
  0
LINE
  5
EB
330
17
100
AcDbEntity
  8
M1_HOLES
100
AcDbLine
 10
-180.046793
 20
-59.0
 30
0.0
 11
-180.046793
 21
-57.0
 31
0.0
  0
TEXT
  5
EC
330
17
100
AcDbEntity
  8
LABELS
100
AcDbText
 10
-178.84679300000002
 20
-56.8
 30
0.0
 40
0.8
  1
M1 (-180.05, -58.00)
 11
-178.84679300000002
 21
-56.8
 31
0.0
100
AcDbText
  0
LWPOLYLINE
  5
ED
330
17
100
AcDbEntity
  8
COVER_BATTERY_TOP
100
AcDbPolyline
 90
162
 70
0
 10
-176.175
 20
-59.375
 10
-176.175
 20
-59.625176630982175
 10
-176.175
 20
-59.87535326196435
 10
-176.175
 20
-60.125529892946524
 10
-176.175
 20
-60.3757065239287
 10
-176.175
 20
-60.625883154910866
 10
-176.175
 20
-60.87605978589304
 10
-176.175
 20
-61.126236416875216
 10
-176.175
 20
-61.37641304785739
 10
-176.175
 20
-61.626589678839565
 10
-176.175
 20
-61.87676630982174
 10
-176.175
 20
-62.126942940803914
 10
-176.175
 20
-62.37711957178609
 10
-176.175
 20
-62.627296202768264
 10
-176.175
 20
-62.87747283375043
 10
-176.175
 20
-63.127649464732606
 10
-176.175
 20
-63.37782609571478
 10
-176.175
 20
-63.628002726696955
 10
-176.175
 20
-63.87817935767913
 10
-176.175
 20
-64.1283559886613
 10
-176.175
 20
-64.37853261964348
 10
-176.175
 20
-64.62870925062566
 10
-176.175
 20
-64.87888588160783
 10
-176.175
 20
-65.12906251259
 10
-176.175
 20
-65.37923914357218
 10
-176.175
 20
-65.62941577455435
 10
-176.175
 20
-65.87959240553653
 10
-176.175
 20
-66.1297690365187
 10
-176.175
 20
-66.37994566750086
 10
-176.175
 20
-66.63012229848304
 10
-176.175
 20
-66.88029892946523
 10
-176.175
 20
-67.1304755604474
 10
-176.175
 20
-67.38065219142956
 10
-176.175
 20
-67.63082882241174
 10
-176.175
 20
-67.88100545339391
 10
-176.175
 20
-68.13118208437609
 10
-176.175
 20
-68.38135871535826
 10
-176.175
 20
-68.63153534634043
 10
-176.175
 20
-68.88171197732261
 10
-176.175
 20
-69.13188860830479
 10
-176.175
 20
-69.38206523928696
 10
-176.175
 20
-69.63224187026913
 10
-176.175
 20
-69.88241850125131
 10
-176.175
 20
-70.13259513223348
 10
-176.175
 20
-70.38277176321566
 10
-176.175
 20
-70.63294839419783
 10
-176.175
 20
-70.88312502518
 10
-176.175
 20
-71.13330165616217
 10
-176.175
 20
-71.38347828714436
 10
-176.175
 20
-71.63365491812652
 10
-176.175
 20
-71.88383154910869
 10
-176.175
 20
-72.13400818009087
 10
-176.175
 20
-72.38418481107304
 10
-176.175
 20
-72.63436144205522
 10
-176.175
 20
-72.88453807303739
 10
-176.175
 20
-73.13471470401956
 10
-176.175
 20
-73.38489133500174
 10
-176.175
 20
-73.63506796598392
 10
-176.175
 20
-73.88524459696609
 10
-176.175
 20
-74.13542122794826
 10
-176.175
 20
-74.38559785893044
 10
-176.175
 20
-74.6357744899126
 10
-176.175
 20
-74.88595112089479
 10
-176.175
 20
-75.13612775187696
 10
-176.175
 20
-75.38630438285912
 10
-176.175
 20
-75.6364810138413
 10
-176.175
 20
-75.88665764482349
 10
-176.175
 20
-76.13683427580565
 10
-176.175
 20
-76.38701090678782
 10
-176.175
 20
-76.63718753777
 10
-176.175
 20
-76.88736416875217
 10
-176.175
 20
-77.13754079973435
 10
-176.175
 20
-77.38771743071652
 10
-176.175
 20
-77.6378940616987
 10
-176.175
 20
-77.88807069268087
 10
-176.175
 20
-78.13824732366305
 10
-176.175
 20
-78.38842395464522
 10
-176.175
 20
-78.63860058562739
 10
-176.175
 20
-78.88877721660957
 10
-176.175
 20
-79.13895384759174
 10
-176.175
 20
-79.38913047857392
 10
-176.175
 20
-79.63930710955609
 10
-176.175
 20
-79.88948374053825
 10
-176.175
 20
-80.13966037152043
 10
-176.175
 20
-80.38983700250262
 10
-176.175
 20
-80.64001363348478
 10
-176.175
 20
-80.89019026446695
 10
-176.175
 20
-81.14036689544913
 10
-176.175
 20
-81.39054352643132
 10
-176.175
 20
-81.64072015741348
 10
-176.175
 20
-81.89089678839565
 10
-176.175
 20
-82.14107341937782
 10
-176.175
 20
-82.39125005036
 10
-176.175
 20
-82.64142668134218
 10
-176.175
 20
-82.89160331232435
 10
-176.175
 20
-83.14177994330652
 10
-176.175
 20
-83.3919565742887
 10
-176.175
 20
-83.64213320527088
 10
-176.175
 20
-83.89230983625305
 10
-176.175
 20
-84.14248646723522
 10
-176.175
 20
-84.39266309821738
 10
-176.175
 20
-84.64283972919957
 10
-176.175
 20
-84.89301636018175
 10
-176.175
 20
-85.14319299116391
 10
-176.175
 20
-85.39336962214608
 10
-176.175
 20
-85.64354625312826
 10
-176.175
 20
-85.89372288411045
 10
-176.175
 20
-86.14389951509261
 10
-176.175
 20
-86.39407614607478
 10
-176.175
 20
-86.64425277705695
 10
-176.175
 20
-86.89442940803913
 10
-176.175
 20
-87.14460603902131
 10
-176.175
 20
-87.39478267000348
 10
-176.175
 20
-87.64495930098565
 10
-176.175
 20
-87.89513593196783
 10
-176.175
 20
-88.14531256295001
 10
-176.175
 20
-88.39548919393218
 10
-176.175
 20
-88.64566582491435
 10
-176.175
 20
-88.89584245589653
 10
-176.175
 20
-89.1460190868787
 10
-176.175
 20
-89.39619571786088
 10
-176.175
 20
-89.64637234884304
 10
-176.175
 20
-89.89654897982521
 10
-176.175
 20
-90.1467256108074
 10
-176.175
 20
-90.39690224178958
 10
-176.175
 20
-90.64707887277174
 10
-176.175
 20
-90.89725550375391
 10
-176.175
 20
-91.14743213473609
 10
-176.175
 20
-91.39760876571826
 10
-176.175
 20
-91.64778539670044
 10
-176.175
 20
-91.89796202768261
 10
-176.175
 20
-92.14813865866478
 10
-176.175
 20
-92.39831528964696
 10
-176.175
 20
-92.64849192062914
 10
-176.175
 20
-92.89866855161131
 10
-176.175
 20
-93.14884518259348
 10
-176.175
 20
-93.39902181357566
 10
-176.175
 20
-93.64919844455784
 10
-176.175
 20
-93.89937507554001
 10
-176.175
 20
-94.14955170652217
 10
-176.175
 20
-94.39972833750434
 10
-176.175
 20
-94.64990496848652
 10
-176.175
 20
-94.9000815994687
 10
-176.175
 20
-95.15025823045087
 10
-176.175
 20
-95.40043486143304
 10
-176.175
 20
-95.65061149241522
 10
-176.175
 20
-95.9007881233974
 10
-176.175
 20
-96.15096475437957
 10
-176.175
 20
-96.40114138536174
 10
-176.175
 20
-96.65131801634391
 10
-176.175
 20
-96.90149464732609
 10
-176.175
 20
-97.15167127830827
 10
-176.175
 20
-97.40184790929044
 10
-176.175
 20
-97.6520245402726
 10
-176.175
 20
-97.90220117125479
 10
-176.175
 20
-98.15237780223697
 10
-176.175
 20
-98.40255443321914
 10
-176.175
 20
-98.6527310642013
 10
-176.175
 20
-98.90290769518347
 10
-176.175
 20
-99.15308432616565
 10
-176.175
 20
-99.40326095714784
 10
-176.175
 20
-99.65343758813
  0
LWPOLYLINE
  5
EE
330
17
100
AcDbEntity
  8
COVER_BATTERY_TOP
100
AcDbPolyline
 90
3
 70
0
 10
-175.5
 20
-59.375
 10
-175.8375
 20
-59.375
 10
-176.175
 20
-59.375
  0
LWPOLYLINE
  5
EF
330
17
100
AcDbEntity
  8
COVER_BATTERY_TOP
100
AcDbPolyline
 90
3
 70
0
 10
-175.5
 20
-59.0
 10
-175.5
 20
-59.1875
 10
-175.5
 20
-59.375
  0
LWPOLYLINE
  5
F0
330
17
100
AcDbEntity
  8
COVER_BATTERY_TOP
100
AcDbPolyline
 90
3
 70
0
 10
-175.74329853499432
 20
-58.34623942237371
 10
-175.562796322829
 20
-58.65121744955179
 10
-175.5
 20
-59.0
  0
LWPOLYLINE
  5
F1
330
17
100
AcDbEntity
  8
COVER_BATTERY_TOP
100
AcDbPolyline
 90
10
 70
0
 10
-177.3383774492183
 20
-56.49999999999854
 10
-177.16114645874836
 20
-56.705137713595235
 10
-176.98391546827838
 20
-56.910275427191934
 10
-176.80668447780843
 20
-57.11541314078863
 10
-176.62945348733845
 20
-57.320550854385324
 10
-176.4522224968685
 20
-57.52568856798202
 10
-176.27499150639852
 20
-57.730826281578715
 10
-176.09776051592854
 20
-57.93596399517541
 10
-175.9205295254586
 20
-58.14110170877211
 10
-175.7432985349886
 20
-58.346239422368804
  0
LWPOLYLINE
  5
F2
330
17
100
AcDbEntity
  8
COVER_BATTERY_TOP
100
AcDbPolyline
 90
93
 70
0
 10
-200.5
 20
-56.5
 10
-200.24824323314368
 20
-56.5
 10
-199.9964864662874
 20
-56.5
 10
-199.7447296994311
 20
-56.5
 10
-199.4929729325748
 20
-56.5
 10
-199.24121616571847
 20
-56.5
 10
-198.98945939886215
 20
-56.5
 10
-198.73770263200586
 20
-56.5
 10
-198.48594586514957
 20
-56.5
 10
-198.23418909829326
 20
-56.5
 10
-197.98243233143694
 20
-56.5
 10
-197.73067556458065
 20
-56.5
 10
-197.47891879772436
 20
-56.5
 10
-197.22716203086804
 20
-56.5
 10
-196.97540526401173
 20
-56.5
 10
-196.72364849715544
 20
-56.5
 10
-196.47189173029915
 20
-56.5
 10
-196.22013496344283
 20
-56.5
 10
-195.9683781965865
 20
-56.5
 10
-195.7166214297302
 20
-56.5
 10
-195.4648646628739
 20
-56.5
 10
-195.21310789601762
 20
-56.5
 10
-194.9613511291613
 20
-56.5
 10
-194.70959436230498
 20
-56.5
 10
-194.4578375954487
 20
-56.5
 10
-194.2060808285924
 20
-56.5
 10
-193.9543240617361
 20
-56.5
 10
-193.70256729487977
 20
-56.5
 10
-193.45081052802348
 20
-56.5
 10
-193.19905376116716
 20
-56.5
 10
-192.94729699431088
 20
-56.5
 10
-192.69554022745456
 20
-56.5
 10
-192.44378346059824
 20
-56.5
 10
-192.19202669374195
 20
-56.5
 10
-191.94026992688566
 20
-56.5
 10
-191.68851316002934
 20
-56.5
 10
-191.43675639317303
 20
-56.5
 10
-191.18499962631674
 20
-56.5
 10
-190.93324285946045
 20
-56.5
 10
-190.68148609260413
 20
-56.5
 10
-190.42972932574781
 20
-56.5
 10
-190.17797255889153
 20
-56.5
 10
-189.9262157920352
 20
-56.5
 10
-189.67445902517892
 20
-56.5
 10
-189.4227022583226
 20
-56.5
 10
-189.17094549146628
 20
-56.5
 10
-188.91918872461
 20
-56.5
 10
-188.6674319577537
 20
-56.5
 10
-188.4156751908974
 20
-56.5
 10
-188.16391842404107
 20
-56.5
 10
-187.91216165718478
 20
-56.5
 10
-187.66040489032846
 20
-56.5
 10
-187.40864812347218
 20
-56.5
 10
-187.15689135661586
 20
-56.5
 10
-186.90513458975954
 20
-56.5
 10
-186.65337782290325
 20
-56.5
 10
-186.40162105604696
 20
-56.5
 10
-186.14986428919065
 20
-56.5
 10
-185.89810752233433
 20
-56.5
 10
-185.64635075547804
 20
-56.5
 10
-185.39459398862175
 20
-56.5
 10
-185.14283722176543
 20
-56.5
 10
-184.89108045490912
 20
-56.5
 10
-184.63932368805283
 20
-56.5
 10
-184.3875669211965
 20
-56.5
 10
-184.13581015434022
 20
-56.5
 10
-183.8840533874839
 20
-56.5
 10
-183.63229662062759
 20
-56.5
 10
-183.3805398537713
 20
-56.5
 10
-183.128783086915
 20
-56.5
 10
-182.8770263200587
 20
-56.5
 10
-182.62526955320237
 20
-56.5
 10
-182.37351278634608
 20
-56.5
 10
-182.1217560194898
 20
-56.5
 10
-181.86999925263348
 20
-56.5
 10
-181.61824248577716
 20
-56.5
 10
-181.36648571892087
 20
-56.5
 10
-181.11472895206455
 20
-56.5
 10
-180.86297218520826
 20
-56.5
 10
-180.61121541835195
 20
-56.5
 10
-180.35945865149563
 20
-56.5
 10
-180.10770188463934
 20
-56.5
 10
-179.85594511778305
 20
-56.5
 10
-179.60418835092673
 20
-56.5
 10
-179.35243158407042
 20
-56.5
 10
-179.10067481721413
 20
-56.5
 10
-178.8489180503578
 20
-56.5
 10
-178.59716128350152
 20
-56.5
 10
-178.3454045166452
 20
-56.5
 10
-178.0936477497889
 20
-56.5
 10
-177.8418909829326
 20
-56.5
 10
-177.5901342160763
 20
-56.5
 10
-177.33837744922
 20
-56.5
  0
LWPOLYLINE
  5
F3
330
17
100
AcDbEntity
  8
COVER_BATTERY_TOP
100
AcDbPolyline
 90
3
 70
0
 10
-200.78088378906003
 20
-56.511596679680004
 10
-200.64044189453017
 20
-56.50579833983631
 10
-200.50000000000034
 20
-56.49999999999262
  0
LWPOLYLINE
  5
F4
330
17
100
AcDbEntity
  8
COVER_BATTERY_TOP
100
AcDbPolyline
 90
3
 70
0
 10
-201.0595703125
 20
-56.5458984375
 10
-200.92022705077954
 20
-56.52874755859354
 10
-200.78088378905915
 20
-56.51159667968707
  0
LWPOLYLINE
  5
F5
330
17
100
AcDbEntity
  8
COVER_BATTERY_TOP
100
AcDbPolyline
 90
3
 70
0
 10
-201.33386230468
 20
-56.602172851560006
 10
-201.1967163085901
 20
-56.574035644529474
 10
-201.05957031250023
 20
-56.545898437498934
  0
LWPOLYLINE
  5
F6
330
17
100
AcDbEntity
  8
COVER_BATTERY_TOP
100
AcDbPolyline
 90
3
 70
0
 10
-201.6015625
 20
-56.6796875
 10
-201.46771240233994
 20
-56.6409301757802
 10
-201.33386230467988
 20
-56.60217285156039
  0
LWPOLYLINE
  5
F7
330
17
100
AcDbEntity
  8
COVER_BATTERY_TOP
100
AcDbPolyline
 90
3
 70
0
 10
-201.84448411474048
 20
-56.77165640929878
 10
-201.7230233073713
 20
-56.725671954646565
 10
-201.60156250000216
 20
-56.679687499994344
  0
LWPOLYLINE
  5
F8
330
17
100
AcDbEntity
  8
COVER_BATTERY_TOP
100
AcDbPolyline
 90
9
 70
0
 10
-203.24439193001
 20
-58.332257044559995
 10
-203.06940345310122
 20
-58.13718196515252
 10
-202.89441497619242
 20
-57.94210688574506
 10
-202.71942649928363
 20
-57.7470318063376
 10
-202.54443802237483
 20
-57.55195672693013
 10
-202.36944954546604
 20
-57.35688164752267
 10
-202.19446106855725
 20
-57.16180656811521
 10
-202.01947259164845
 20
-56.96673148870775
 10
-201.84448411473966
 20
-56.77165640930028
  0
LWPOLYLINE
  5
F9
330
17
100
AcDbEntity
  8
COVER_BATTERY_TOP
100
AcDbPolyline
 90
3
 70
0
 10
-203.49221102210294
 20
-58.87543159462589
 10
-203.40978409597008
 20
-58.58491820237465
 10
-203.24439193000862
 20
-58.33225704456127
  0
LWPOLYLINE
  5
FA
330
17
100
AcDbEntity
  8
COVER_BATTERY_TOP
100
AcDbPolyline
 90
3
 70
0
 10
-203.5
 20
-59.0
 10
-203.4961055110513
 20
-58.93771579730992
 10
-203.49221102210262
 20
-58.87543159461984
  0
LWPOLYLINE
  5
FB
330
17
100
AcDbEntity
  8
COVER_BATTERY_TOP
100
AcDbPolyline
 90
159
 70
0
 10
-203.5
 20
-98.5
 10
-203.5
 20
-98.25
 10
-203.5
 20
-98.0
 10
-203.5
 20
-97.75
 10
-203.5
 20
-97.5
 10
-203.5
 20
-97.25
 10
-203.5
 20
-97.0
 10
-203.5
 20
-96.75
 10
-203.5
 20
-96.5
 10
-203.5
 20
-96.25
 10
-203.5
 20
-96.0
 10
-203.5
 20
-95.75
 10
-203.5
 20
-95.5
 10
-203.5
 20
-95.25
 10
-203.5
 20
-95.0
 10
-203.5
 20
-94.75
 10
-203.5
 20
-94.5
 10
-203.5
 20
-94.25
 10
-203.5
 20
-94.0
 10
-203.5
 20
-93.75
 10
-203.5
 20
-93.5
 10
-203.5
 20
-93.25
 10
-203.5
 20
-93.0
 10
-203.5
 20
-92.75
 10
-203.5
 20
-92.5
 10
-203.5
 20
-92.25
 10
-203.5
 20
-92.0
 10
-203.5
 20
-91.75
 10
-203.5
 20
-91.5
 10
-203.5
 20
-91.25
 10
-203.5
 20
-91.0
 10
-203.5
 20
-90.75
 10
-203.5
 20
-90.5
 10
-203.5
 20
-90.25
 10
-203.5
 20
-90.0
 10
-203.5
 20
-89.75
 10
-203.5
 20
-89.5
 10
-203.5
 20
-89.25
 10
-203.5
 20
-89.0
 10
-203.5
 20
-88.75
 10
-203.5
 20
-88.5
 10
-203.5
 20
-88.25
 10
-203.5
 20
-88.0
 10
-203.5
 20
-87.75
 10
-203.5
 20
-87.5
 10
-203.5
 20
-87.25
 10
-203.5
 20
-87.0
 10
-203.5
 20
-86.75
 10
-203.5
 20
-86.5
 10
-203.5
 20
-86.25
 10
-203.5
 20
-86.0
 10
-203.5
 20
-85.75
 10
-203.5
 20
-85.5
 10
-203.5
 20
-85.25
 10
-203.5
 20
-85.0
 10
-203.5
 20
-84.75
 10
-203.5
 20
-84.5
 10
-203.5
 20
-84.25
 10
-203.5
 20
-84.0
 10
-203.5
 20
-83.75
 10
-203.5
 20
-83.5
 10
-203.5
 20
-83.25
 10
-203.5
 20
-83.0
 10
-203.5
 20
-82.75
 10
-203.5
 20
-82.5
 10
-203.5
 20
-82.25
 10
-203.5
 20
-82.0
 10
-203.5
 20
-81.75
 10
-203.5
 20
-81.5
 10
-203.5
 20
-81.25
 10
-203.5
 20
-81.0
 10
-203.5
 20
-80.75
 10
-203.5
 20
-80.5
 10
-203.5
 20
-80.25
 10
-203.5
 20
-80.0
 10
-203.5
 20
-79.75
 10
-203.5
 20
-79.5
 10
-203.5
 20
-79.25
 10
-203.5
 20
-79.0
 10
-203.5
 20
-78.75
 10
-203.5
 20
-78.5
 10
-203.5
 20
-78.25
 10
-203.5
 20
-78.0
 10
-203.5
 20
-77.75
 10
-203.5
 20
-77.5
 10
-203.5
 20
-77.25
 10
-203.5
 20
-77.0
 10
-203.5
 20
-76.75
 10
-203.5
 20
-76.5
 10
-203.5
 20
-76.25
 10
-203.5
 20
-76.0
 10
-203.5
 20
-75.75
 10
-203.5
 20
-75.5
 10
-203.5
 20
-75.25
 10
-203.5
 20
-75.0
 10
-203.5
 20
-74.75
 10
-203.5
 20
-74.5
 10
-203.5
 20
-74.25
 10
-203.5
 20
-74.0
 10
-203.5
 20
-73.75
 10
-203.5
 20
-73.5
 10
-203.5
 20
-73.25
 10
-203.5
 20
-73.0
 10
-203.5
 20
-72.75
 10
-203.5
 20
-72.5
 10
-203.5
 20
-72.25
 10
-203.5
 20
-72.0
 10
-203.5
 20
-71.75
 10
-203.5
 20
-71.5
 10
-203.5
 20
-71.25
 10
-203.5
 20
-71.0
 10
-203.5
 20
-70.75
 10
-203.5
 20
-70.5
 10
-203.5
 20
-70.25
 10
-203.5
 20
-70.0
 10
-203.5
 20
-69.75
 10
-203.5
 20
-69.5
 10
-203.5
 20
-69.25
 10
-203.5
 20
-69.0
 10
-203.5
 20
-68.75
 10
-203.5
 20
-68.5
 10
-203.5
 20
-68.25
 10
-203.5
 20
-68.0
 10
-203.5
 20
-67.75
 10
-203.5
 20
-67.5
 10
-203.5
 20
-67.25
 10
-203.5
 20
-67.0
 10
-203.5
 20
-66.75
 10
-203.5
 20
-66.5
 10
-203.5
 20
-66.25
 10
-203.5
 20
-66.0
 10
-203.5
 20
-65.75
 10
-203.5
 20
-65.5
 10
-203.5
 20
-65.25
 10
-203.5
 20
-65.0
 10
-203.5
 20
-64.75
 10
-203.5
 20
-64.5
 10
-203.5
 20
-64.25
 10
-203.5
 20
-64.0
 10
-203.5
 20
-63.75
 10
-203.5
 20
-63.5
 10
-203.5
 20
-63.25
 10
-203.5
 20
-63.0
 10
-203.5
 20
-62.75
 10
-203.5
 20
-62.5
 10
-203.5
 20
-62.25
 10
-203.5
 20
-62.0
 10
-203.5
 20
-61.75
 10
-203.5
 20
-61.5
 10
-203.5
 20
-61.25
 10
-203.5
 20
-61.0
 10
-203.5
 20
-60.75
 10
-203.5
 20
-60.5
 10
-203.5
 20
-60.25
 10
-203.5
 20
-60.0
 10
-203.5
 20
-59.75
 10
-203.5
 20
-59.5
 10
-203.5
 20
-59.25
 10
-203.5
 20
-59.0
  0
LWPOLYLINE
  5
FC
330
17
100
AcDbEntity
  8
COVER_BATTERY_TOP
100
AcDbPolyline
 90
3
 70
0
 10
-203.25670146500636
 20
-99.1537605776255
 10
-203.43720367717117
 20
-98.84878255044772
 10
-203.5
 20
-98.5
  0
LWPOLYLINE
  5
FD
330
17
100
AcDbEntity
  8
COVER_BATTERY_TOP
100
AcDbPolyline
 90
8
 70
0
 10
-201.96400891145646
 20
-100.64999999996239
 10
-202.14867927624223
 20
-100.43625151105101
 10
-202.333349641028
 20
-100.22250302213965
 10
-202.51802000581378
 20
-100.00875453322827
 10
-202.70269037059956
 20
-99.79500604431689
 10
-202.88736073538536
 20
-99.58125755540551
 10
-203.07203110017113
 20
-99.36750906649414
 10
-203.2567014649569
 20
-99.15376057758276
  0
LWPOLYLINE
  5
FE
330
17
100
AcDbEntity
  8
COVER_BATTERY_TOP
100
AcDbPolyline
 90
16
 70
0
 10
-198.2
 20
-100.65
 10
-198.4509339274333
 20
-100.65
 10
-198.70186785486666
 20
-100.65
 10
-198.95280178229999
 20
-100.65
 10
-199.20373570973334
 20
-100.65
 10
-199.45466963716666
 20
-100.65
 10
-199.70560356459998
 20
-100.65
 10
-199.95653749203333
 20
-100.65
 10
-200.20747141946666
 20
-100.65
 10
-200.4584053469
 20
-100.65
 10
-200.70933927433333
 20
-100.65
 10
-200.96027320176665
 20
-100.65
 10
-201.2112071292
 20
-100.65
 10
-201.46214105663333
 20
-100.65
 10
-201.71307498406668
 20
-100.65
 10
-201.9640089115
 20
-100.65
  0
LWPOLYLINE
  5
FF
330
17
100
AcDbEntity
  8
COVER_BATTERY_TOP
100
AcDbPolyline
 90
8
 70
0
 10
-198.2
 20
-102.5
 10
-198.2
 20
-102.2357142857143
 10
-198.2
 20
-101.97142857142858
 10
-198.2
 20
-101.70714285714286
 10
-198.2
 20
-101.44285714285715
 10
-198.2
 20
-101.17857142857143
 10
-198.2
 20
-100.91428571428571
 10
-198.2
 20
-100.65
  0
LWPOLYLINE
  5
100
330
17
100
AcDbEntity
  8
COVER_BATTERY_TOP
100
AcDbPolyline
 90
14
 70
0
 10
-194.767889
 20
-102.5
 10
-195.03189753846152
 20
-102.5
 10
-195.29590607692307
 20
-102.5
 10
-195.55991461538463
 20
-102.5
 10
-195.82392315384615
 20
-102.5
 10
-196.08793169230768
 20
-102.5
 10
-196.35194023076923
 20
-102.5
 10
-196.61594876923076
 20
-102.5
 10
-196.87995730769228
 20
-102.5
 10
-197.14396584615383
 20
-102.5
 10
-197.4079743846154
 20
-102.5
 10
-197.6719829230769
 20
-102.5
 10
-197.93599146153844
 20
-102.5
 10
-198.2
 20
-102.5
  0
LWPOLYLINE
  5
101
330
17
100
AcDbEntity
  8
COVER_BATTERY_TOP
100
AcDbPolyline
 90
20
 70
0
 10
-194.767889
 20
-97.54633
 10
-194.767889
 20
-97.8070494736842
 10
-194.767889
 20
-98.06776894736842
 10
-194.767889
 20
-98.32848842105264
 10
-194.767889
 20
-98.58920789473683
 10
-194.767889
 20
-98.84992736842105
 10
-194.767889
 20
-99.11064684210527
 10
-194.767889
 20
-99.37136631578947
 10
-194.767889
 20
-99.63208578947368
 10
-194.767889
 20
-99.8928052631579
 10
-194.767889
 20
-100.1535247368421
 10
-194.767889
 20
-100.4142442105263
 10
-194.767889
 20
-100.67496368421052
 10
-194.767889
 20
-100.93568315789474
 10
-194.767889
 20
-101.19640263157895
 10
-194.767889
 20
-101.45712210526315
 10
-194.767889
 20
-101.71784157894737
 10
-194.767889
 20
-101.97856105263158
 10
-194.767889
 20
-102.23928052631578
 10
-194.767889
 20
-102.5
  0
LWPOLYLINE
  5
102
330
17
100
AcDbEntity
  8
COVER_BATTERY_TOP
100
AcDbPolyline
 90
42
 70
0
 10
-184.367889
 20
-97.54633
 10
-184.62154753658535
 20
-97.54633
 10
-184.87520607317072
 20
-97.54633
 10
-185.12886460975608
 20
-97.54633
 10
-185.38252314634144
 20
-97.54633
 10
-185.6361816829268
 20
-97.54633
 10
-185.88984021951217
 20
-97.54633
 10
-186.14349875609756
 20
-97.54633
 10
-186.39715729268292
 20
-97.54633
 10
-186.65081582926828
 20
-97.54633
 10
-186.90447436585364
 20
-97.54633
 10
-187.15813290243904
 20
-97.54633
 10
-187.4117914390244
 20
-97.54633
 10
-187.66544997560976
 20
-97.54633
 10
-187.91910851219512
 20
-97.54633
 10
-188.17276704878049
 20
-97.54633
 10
-188.42642558536585
 20
-97.54633
 10
-188.6800841219512
 20
-97.54633
 10
-188.93374265853657
 20
-97.54633
 10
-189.18740119512194
 20
-97.54633
 10
-189.4410597317073
 20
-97.54633
 10
-189.69471826829266
 20
-97.54633
 10
-189.94837680487802
 20
-97.54633
 10
-190.20203534146341
 20
-97.54633
 10
-190.45569387804878
 20
-97.54633
 10
-190.70935241463414
 20
-97.54633
 10
-190.9630109512195
 20
-97.54633
 10
-191.2166694878049
 20
-97.54633
 10
-191.47032802439026
 20
-97.54633
 10
-191.72398656097562
 20
-97.54633
 10
-191.97764509756098
 20
-97.54633
 10
-192.23130363414634
 20
-97.54633
 10
-192.4849621707317
 20
-97.54633
 10
-192.73862070731707
 20
-97.54633
 10
-192.99227924390243
 20
-97.54633
 10
-193.2459377804878
 20
-97.54633
 10
-193.49959631707316
 20
-97.54633
 10
-193.75325485365852
 20
-97.54633
 10
-194.00691339024388
 20
-97.54633
 10
-194.26057192682924
 20
-97.54633
 10
-194.51423046341463
 20
-97.54633
 10
-194.767889
 20
-97.54633
  0
LWPOLYLINE
  5
103
330
17
100
AcDbEntity
  8
COVER_BATTERY_TOP
100
AcDbPolyline
 90
20
 70
0
 10
-184.367889
 20
-102.5
 10
-184.367889
 20
-102.23928052631578
 10
-184.367889
 20
-101.97856105263158
 10
-184.367889
 20
-101.71784157894737
 10
-184.367889
 20
-101.45712210526315
 10
-184.367889
 20
-101.19640263157895
 10
-184.367889
 20
-100.93568315789474
 10
-184.367889
 20
-100.67496368421052
 10
-184.367889
 20
-100.4142442105263
 10
-184.367889
 20
-100.15352473684212
 10
-184.367889
 20
-99.8928052631579
 10
-184.367889
 20
-99.63208578947368
 10
-184.367889
 20
-99.37136631578947
 10
-184.367889
 20
-99.11064684210527
 10
-184.367889
 20
-98.84992736842105
 10
-184.367889
 20
-98.58920789473683
 10
-184.367889
 20
-98.32848842105264
 10
-184.367889
 20
-98.06776894736842
 10
-184.367889
 20
-97.8070494736842
 10
-184.367889
 20
-97.54633
  0
LWPOLYLINE
  5
104
330
17
100
AcDbEntity
  8
COVER_BATTERY_TOP
100
AcDbPolyline
 90
18
 70
0
 10
-180.0
 20
-102.5
 10
-180.2569346470588
 20
-102.5
 10
-180.51386929411763
 20
-102.5
 10
-180.77080394117647
 20
-102.5
 10
-181.0277385882353
 20
-102.5
 10
-181.28467323529412
 20
-102.5
 10
-181.54160788235293
 20
-102.5
 10
-181.79854252941175
 20
-102.5
 10
-182.0554771764706
 20
-102.5
 10
-182.3124118235294
 20
-102.5
 10
-182.56934647058824
 20
-102.5
 10
-182.82628111764706
 20
-102.5
 10
-183.08321576470587
 20
-102.5
 10
-183.34015041176468
 20
-102.5
 10
-183.59708505882352
 20
-102.5
 10
-183.85401970588237
 20
-102.5
 10
-184.11095435294118
 20
-102.5
 10
-184.367889
 20
-102.5
  0
LWPOLYLINE
  5
105
330
17
100
AcDbEntity
  8
COVER_BATTERY_TOP
100
AcDbPolyline
 90
3
 70
0
 10
-179.86947380777045
 20
-102.49144486137256
 10
-179.93459687076506
 20
-102.49785892323828
 10
-180.0
 20
-102.5
  0
LWPOLYLINE
  5
106
330
17
100
AcDbEntity
  8
COVER_BATTERY_TOP
100
AcDbPolyline
 90
3
 70
0
 10
-179.35183571757
 20
-102.4232965139
 10
-179.61065476267356
 20
-102.45737068761105
 10
-179.8694738077771
 20
-102.4914448613221
  0
LWPOLYLINE
  5
107
330
17
100
AcDbEntity
  8
COVER_BATTERY_TOP
100
AcDbPolyline
 90
3
 70
0
 10
-179.09967847742502
 20
-102.35573118501134
 10
-179.2235428646892
 20
-102.39777747878954
 10
-179.35183571757338
 20
-102.42329651387426
  0
LWPOLYLINE
  5
108
330
17
100
AcDbEntity
  8
COVER_BATTERY_TOP
100
AcDbPolyline
 90
3
 70
0
 10
-178.61731656763
 20
-102.15593034
 10
-178.858497522528
 20
-102.25583076250484
 10
-179.09967847742598
 20
-102.35573118500969
  0
LWPOLYLINE
  5
109
330
17
100
AcDbEntity
  8
COVER_BATTERY_TOP
100
AcDbPolyline
 90
3
 70
0
 10
-178.3912385709913
 20
-102.02540414779125
 10
-178.49999999999994
 20
-102.09807621128441
 10
-178.6173165676348
 20
-102.15593034001124
  0
LWPOLYLINE
  5
10A
330
17
100
AcDbEntity
  8
COVER_BATTERY_TOP
100
AcDbPolyline
 90
3
 70
0
 10
-177.97702500861004
 20
-101.7075669026
 10
-178.18413178979972
 20
-101.86648552520043
 10
-178.39123857098937
 20
-102.02540414780083
  0
LWPOLYLINE
  5
10B
330
17
100
AcDbEntity
  8
COVER_BATTERY_TOP
100
AcDbPolyline
 90
3
 70
0
 10
-177.82908497259945
 20
-101.5679741399091
 10
-177.8994965837034
 20
-101.64154171135733
 10
-177.9770250086147
 20
-101.70756690259388
  0
LWPOLYLINE
  5
10C
330
17
100
AcDbEntity
  8
COVER_BATTERY_TOP
100
AcDbPolyline
 90
11
 70
0
 10
-176.17499999999797
 20
-99.6534375881318
 10
-176.34040849725486
 20
-99.84489124331235
 10
-176.50581699451175
 20
-100.03634489849289
 10
-176.67122549176864
 20
-100.22779855367344
 10
-176.83663398902553
 20
-100.41925220885399
 10
-177.00204248628242
 20
-100.61070586403454
 10
-177.1674509835393
 20
-100.80215951921508
 10
-177.3328594807962
 20
-100.99361317439563
 10
-177.4982679780531
 20
-101.18506682957617
 10
-177.66367647530998
 20
-101.37652048475672
 10
-177.82908497256687
 20
-101.56797413993728
  0
LWPOLYLINE
  5
10D
330
17
100
AcDbEntity
  8
COVER_BATTERY_TOP
100
AcDbPolyline
 90
11
 70
0
 10
-180.4
 20
-99.5
 10
-180.32360679775
 20
-99.73511410091699
 10
-180.12360679774997
 20
-99.88042260651807
 10
-179.87639320225003
 20
-99.88042260651807
 10
-179.67639320225
 20
-99.73511410091699
 10
-179.6
 20
-99.5
 10
-179.67639320225
 20
-99.26488589908301
 10
-179.87639320225003
 20
-99.11957739348193
 10
-180.12360679774997
 20
-99.11957739348193
 10
-180.32360679775
 20
-99.26488589908301
 10
-180.4
 20
-99.5
  0
LWPOLYLINE
  5
10E
330
17
100
AcDbEntity
  8
COVER_BATTERY_TOP
100
AcDbPolyline
 90
11
 70
0
 10
-199.4
 20
-99.5
 10
-199.32360679775
 20
-99.73511410091699
 10
-199.12360679774997
 20
-99.88042260651807
 10
-198.87639320225003
 20
-99.88042260651807
 10
-198.67639320225
 20
-99.73511410091699
 10
-198.6
 20
-99.5
 10
-198.67639320225
 20
-99.26488589908301
 10
-198.87639320225003
 20
-99.11957739348193
 10
-199.12360679774997
 20
-99.11957739348193
 10
-199.32360679775
 20
-99.26488589908301
 10
-199.4
 20
-99.5
  0
LWPOLYLINE
  5
10F
330
17
100
AcDbEntity
  8
COVER_BATTERY_TOP
100
AcDbPolyline
 90
11
 70
0
 10
-180.4
 20
-58.0
 10
-180.32360679775
 20
-58.23511410091699
 10
-180.12360679774997
 20
-58.38042260651806
 10
-179.87639320225003
 20
-58.38042260651806
 10
-179.67639320225
 20
-58.23511410091699
 10
-179.6
 20
-58.0
 10
-179.67639320225
 20
-57.76488589908301
 10
-179.87639320225003
 20
-57.61957739348194
 10
-180.12360679774997
 20
-57.61957739348194
 10
-180.32360679775
 20
-57.76488589908301
 10
-180.4
 20
-58.0
  0
LWPOLYLINE
  5
110
330
17
100
AcDbEntity
  8
COVER_BATTERY_TOP
100
AcDbPolyline
 90
11
 70
0
 10
-199.320161
 20
-58.0
 10
-199.24376779775
 20
-58.23511410091699
 10
-199.04376779774998
 20
-58.38042260651806
 10
-198.79655420225004
 20
-58.38042260651806
 10
-198.59655420225002
 20
-58.23511410091699
 10
-198.520161
 20
-58.0
 10
-198.59655420225002
 20
-57.76488589908301
 10
-198.79655420225004
 20
-57.61957739348194
 10
-199.04376779774998
 20
-57.61957739348194
 10
-199.24376779775
 20
-57.76488589908301
 10
-199.320161
 20
-58.0
  0
LWPOLYLINE
  5
111
330
17
100
AcDbEntity
  8
COVER_BATTERY_BOTTOM
100
AcDbPolyline
 90
29
 70
0
 10
-200.15
 20
-99.5
 10
-200.1211670990091
 20
-99.75589907404976
 10
-200.03611419808777
 20
-99.99896629998521
 10
-199.8991062048382
 20
-100.21701327213756
 10
-199.7170132721375
 20
-100.39910620483825
 10
-199.49896629998514
 20
-100.5361141980878
 10
-199.2558990740497
 20
-100.6211670990091
 10
-198.99999999999994
 20
-100.65
 10
-198.74410092595016
 20
-100.62116709900909
 10
-198.50103370001472
 20
-100.53611419808776
 10
-198.28298672786238
 20
-100.3991062048382
 10
-198.10089379516168
 20
-100.21701327213749
 10
-197.96388580191214
 20
-99.99896629998513
 10
-197.87883290099083
 20
-99.75589907404968
 10
-197.84999999999994
 20
-99.49999999999991
 10
-197.87883290099083
 20
-99.24410092595015
 10
-197.96388580191217
 20
-99.0010337000147
 10
-198.10089379516174
 20
-98.78298672786235
 10
-198.28298672786244
 20
-98.60089379516167
 10
-198.5010337000148
 20
-98.46388580191211
 10
-198.74410092595025
 20
-98.37883290099082
 10
-199.00000000000003
 20
-98.34999999999991
 10
-199.25589907404978
 20
-98.37883290099083
 10
-199.49896629998523
 20
-98.46388580191216
 10
-199.71701327213756
 20
-98.60089379516171
 10
-199.89910620483826
 20
-98.78298672786242
 10
-200.0361141980878
 20
-99.00103370001479
 10
-200.1211670990091
 20
-99.24410092595024
 10
-200.15
 20
-99.5
  0
LWPOLYLINE
  5
112
330
17
100
AcDbEntity
  8
COVER_BATTERY_BOTTOM
100
AcDbPolyline
 90
17
 70
0
 10
-199.65
 20
-99.5
 10
-199.60052169613235
 20
-99.2512557689627
 10
-199.45961940777124
 20
-99.04038059222874
 10
-199.2487442310373
 20
-98.89947830386767
 10
-199.0
 20
-98.85
 10
-198.7512557689627
 20
-98.89947830386767
 10
-198.54038059222876
 20
-99.04038059222874
 10
-198.39947830386765
 20
-99.2512557689627
 10
-198.35
 20
-99.5
 10
-198.39947830386765
 20
-99.7487442310373
 10
-198.54038059222876
 20
-99.95961940777126
 10
-198.7512557689627
 20
-100.10052169613233
 10
-199.0
 20
-100.15
 10
-199.2487442310373
 20
-100.10052169613233
 10
-199.45961940777124
 20
-99.95961940777126
 10
-199.60052169613235
 20
-99.7487442310373
 10
-199.65
 20
-99.5
  0
LWPOLYLINE
  5
113
330
17
100
AcDbEntity
  8
COVER_BATTERY_BOTTOM
100
AcDbPolyline
 90
3
 70
0
 10
-175.5
 20
-98.49999999999937
 10
-175.56279632282832
 20
-98.84878255044636
 10
-175.74329853499214
 20
-99.15376057762376
  0
LWPOLYLINE
  5
114
330
17
100
AcDbEntity
  8
COVER_BATTERY_BOTTOM
100
AcDbPolyline
 90
13
 70
0
 10
-175.74329853499
 20
-99.15376057762002
 10
-175.91711407145476
 20
-99.35494504114645
 10
-176.0909296079195
 20
-99.55612950467288
 10
-176.26474514438422
 20
-99.75731396819933
 10
-176.43856068084898
 20
-99.95849843172577
 10
-176.6123762173137
 20
-100.1596828952522
 10
-176.78619175377844
 20
-100.36086735877865
 10
-176.9600072902432
 20
-100.5620518223051
 10
-177.13382282670793
 20
-100.76323628583152
 10
-177.30763836317266
 20
-100.96442074935796
 10
-177.48145389963742
 20
-101.1656052128844
 10
-177.65526943610215
 20
-101.36678967641083
 10
-177.82908497256687
 20
-101.56797413993728
  0
LWPOLYLINE
  5
115
330
17
100
AcDbEntity
  8
COVER_BATTERY_BOTTOM
100
AcDbPolyline
 90
3
 70
0
 10
-177.82908497259945
 20
-101.5679741399091
 10
-177.8994965837034
 20
-101.64154171135733
 10
-177.9770250086147
 20
-101.70756690259388
  0
LWPOLYLINE
  5
116
330
17
100
AcDbEntity
  8
COVER_BATTERY_BOTTOM
100
AcDbPolyline
 90
3
 70
0
 10
-177.97702500861004
 20
-101.7075669026
 10
-178.18413178979972
 20
-101.86648552520043
 10
-178.39123857098937
 20
-102.02540414780083
  0
LWPOLYLINE
  5
117
330
17
100
AcDbEntity
  8
COVER_BATTERY_BOTTOM
100
AcDbPolyline
 90
3
 70
0
 10
-178.3912385709913
 20
-102.02540414779125
 10
-178.49999999999994
 20
-102.09807621128441
 10
-178.6173165676348
 20
-102.15593034001124
  0
LWPOLYLINE
  5
118
330
17
100
AcDbEntity
  8
COVER_BATTERY_BOTTOM
100
AcDbPolyline
 90
3
 70
0
 10
-178.61731656763
 20
-102.15593034
 10
-178.858497522528
 20
-102.25583076250484
 10
-179.09967847742598
 20
-102.35573118500969
  0
LWPOLYLINE
  5
119
330
17
100
AcDbEntity
  8
COVER_BATTERY_BOTTOM
100
AcDbPolyline
 90
3
 70
0
 10
-179.09967847742502
 20
-102.35573118501134
 10
-179.2235428646892
 20
-102.39777747878954
 10
-179.35183571757338
 20
-102.42329651387426
  0
LWPOLYLINE
  5
11A
330
17
100
AcDbEntity
  8
COVER_BATTERY_BOTTOM
100
AcDbPolyline
 90
3
 70
0
 10
-179.35183571757
 20
-102.4232965139
 10
-179.61065476267356
 20
-102.45737068761105
 10
-179.8694738077771
 20
-102.4914448613221
  0
LWPOLYLINE
  5
11B
330
17
100
AcDbEntity
  8
COVER_BATTERY_BOTTOM
100
AcDbPolyline
 90
3
 70
0
 10
-179.86947380777045
 20
-102.49144486137256
 10
-179.93459687076506
 20
-102.49785892323828
 10
-180.0
 20
-102.5
  0
LWPOLYLINE
  5
11C
330
17
100
AcDbEntity
  8
COVER_BATTERY_BOTTOM
100
AcDbPolyline
 90
73
 70
0
 10
-180.0
 20
-102.5
 10
-180.2527777777778
 20
-102.5
 10
-180.50555555555556
 20
-102.5
 10
-180.75833333333333
 20
-102.5
 10
-181.01111111111112
 20
-102.5
 10
-181.26388888888889
 20
-102.5
 10
-181.51666666666665
 20
-102.5
 10
-181.76944444444445
 20
-102.5
 10
-182.02222222222224
 20
-102.5
 10
-182.275
 20
-102.5
 10
-182.52777777777777
 20
-102.5
 10
-182.78055555555557
 20
-102.5
 10
-183.03333333333333
 20
-102.5
 10
-183.2861111111111
 20
-102.5
 10
-183.5388888888889
 20
-102.5
 10
-183.79166666666666
 20
-102.5
 10
-184.04444444444442
 20
-102.5
 10
-184.29722222222222
 20
-102.5
 10
-184.55
 20
-102.5
 10
-184.80277777777778
 20
-102.5
 10
-185.05555555555554
 20
-102.5
 10
-185.30833333333334
 20
-102.5
 10
-185.5611111111111
 20
-102.5
 10
-185.81388888888887
 20
-102.5
 10
-186.06666666666666
 20
-102.5
 10
-186.31944444444446
 20
-102.5
 10
-186.57222222222222
 20
-102.5
 10
-186.825
 20
-102.5
 10
-187.07777777777778
 20
-102.5
 10
-187.33055555555555
 20
-102.5
 10
-187.58333333333331
 20
-102.5
 10
-187.8361111111111
 20
-102.5
 10
-188.0888888888889
 20
-102.5
 10
-188.34166666666667
 20
-102.5
 10
-188.59444444444443
 20
-102.5
 10
-188.84722222222223
 20
-102.5
 10
-189.1
 20
-102.5
 10
-189.35277777777776
 20
-102.5
 10
-189.60555555555555
 20
-102.5
 10
-189.85833333333332
 20
-102.5
 10
-190.1111111111111
 20
-102.5
 10
-190.36388888888888
 20
-102.5
 10
-190.61666666666667
 20
-102.5
 10
-190.86944444444444
 20
-102.5
 10
-191.1222222222222
 20
-102.5
 10
-191.375
 20
-102.5
 10
-191.62777777777777
 20
-102.5
 10
-191.88055555555553
 20
-102.5
 10
-192.13333333333333
 20
-102.5
 10
-192.38611111111112
 20
-102.5
 10
-192.63888888888889
 20
-102.5
 10
-192.89166666666665
 20
-102.5
 10
-193.14444444444445
 20
-102.5
 10
-193.3972222222222
 20
-102.5
 10
-193.64999999999998
 20
-102.5
 10
-193.90277777777777
 20
-102.5
 10
-194.15555555555557
 20
-102.5
 10
-194.40833333333333
 20
-102.5
 10
-194.6611111111111
 20
-102.5
 10
-194.9138888888889
 20
-102.5
 10
-195.16666666666666
 20
-102.5
 10
-195.41944444444442
 20
-102.5
 10
-195.67222222222222
 20
-102.5
 10
-195.92499999999998
 20
-102.5
 10
-196.17777777777775
 20
-102.5
 10
-196.43055555555554
 20
-102.5
 10
-196.68333333333334
 20
-102.5
 10
-196.9361111111111
 20
-102.5
 10
-197.18888888888887
 20
-102.5
 10
-197.44166666666666
 20
-102.5
 10
-197.69444444444443
 20
-102.5
 10
-197.9472222222222
 20
-102.5
 10
-198.2
 20
-102.5
  0
LWPOLYLINE
  5
11D
330
17
100
AcDbEntity
  8
COVER_BATTERY_BOTTOM
100
AcDbPolyline
 90
8
 70
0
 10
-198.2
 20
-102.5
 10
-198.2
 20
-102.2357142857143
 10
-198.2
 20
-101.97142857142858
 10
-198.2
 20
-101.70714285714286
 10
-198.2
 20
-101.44285714285715
 10
-198.2
 20
-101.17857142857143
 10
-198.2
 20
-100.91428571428571
 10
-198.2
 20
-100.65
  0
LWPOLYLINE
  5
11E
330
17
100
AcDbEntity
  8
COVER_BATTERY_BOTTOM
100
AcDbPolyline
 90
16
 70
0
 10
-198.2
 20
-100.65
 10
-198.4509339274333
 20
-100.65
 10
-198.70186785486666
 20
-100.65
 10
-198.95280178229999
 20
-100.65
 10
-199.20373570973334
 20
-100.65
 10
-199.45466963716666
 20
-100.65
 10
-199.70560356459998
 20
-100.65
 10
-199.95653749203333
 20
-100.65
 10
-200.20747141946666
 20
-100.65
 10
-200.4584053469
 20
-100.65
 10
-200.70933927433333
 20
-100.65
 10
-200.96027320176665
 20
-100.65
 10
-201.2112071292
 20
-100.65
 10
-201.46214105663333
 20
-100.65
 10
-201.71307498406668
 20
-100.65
 10
-201.9640089115
 20
-100.65
  0
LWPOLYLINE
  5
11F
330
17
100
AcDbEntity
  8
COVER_BATTERY_BOTTOM
100
AcDbPolyline
 90
8
 70
0
 10
-201.96400891145646
 20
-100.64999999996239
 10
-202.14867927624223
 20
-100.43625151105101
 10
-202.333349641028
 20
-100.22250302213965
 10
-202.51802000581378
 20
-100.00875453322827
 10
-202.70269037059956
 20
-99.79500604431689
 10
-202.88736073538536
 20
-99.58125755540551
 10
-203.07203110017113
 20
-99.36750906649414
 10
-203.2567014649569
 20
-99.15376057758276
  0
LWPOLYLINE
  5
120
330
17
100
AcDbEntity
  8
COVER_BATTERY_BOTTOM
100
AcDbPolyline
 90
3
 70
0
 10
-203.25670146500636
 20
-99.1537605776255
 10
-203.43720367717117
 20
-98.84878255044772
 10
-203.5
 20
-98.5
  0
LWPOLYLINE
  5
121
330
17
100
AcDbEntity
  8
COVER_BATTERY_BOTTOM
100
AcDbPolyline
 90
159
 70
0
 10
-203.5
 20
-98.5
 10
-203.5
 20
-98.25
 10
-203.5
 20
-98.0
 10
-203.5
 20
-97.75
 10
-203.5
 20
-97.5
 10
-203.5
 20
-97.25
 10
-203.5
 20
-97.0
 10
-203.5
 20
-96.75
 10
-203.5
 20
-96.5
 10
-203.5
 20
-96.25
 10
-203.5
 20
-96.0
 10
-203.5
 20
-95.75
 10
-203.5
 20
-95.5
 10
-203.5
 20
-95.25
 10
-203.5
 20
-95.0
 10
-203.5
 20
-94.75
 10
-203.5
 20
-94.5
 10
-203.5
 20
-94.25
 10
-203.5
 20
-94.0
 10
-203.5
 20
-93.75
 10
-203.5
 20
-93.5
 10
-203.5
 20
-93.25
 10
-203.5
 20
-93.0
 10
-203.5
 20
-92.75
 10
-203.5
 20
-92.5
 10
-203.5
 20
-92.25
 10
-203.5
 20
-92.0
 10
-203.5
 20
-91.75
 10
-203.5
 20
-91.5
 10
-203.5
 20
-91.25
 10
-203.5
 20
-91.0
 10
-203.5
 20
-90.75
 10
-203.5
 20
-90.5
 10
-203.5
 20
-90.25
 10
-203.5
 20
-90.0
 10
-203.5
 20
-89.75
 10
-203.5
 20
-89.5
 10
-203.5
 20
-89.25
 10
-203.5
 20
-89.0
 10
-203.5
 20
-88.75
 10
-203.5
 20
-88.5
 10
-203.5
 20
-88.25
 10
-203.5
 20
-88.0
 10
-203.5
 20
-87.75
 10
-203.5
 20
-87.5
 10
-203.5
 20
-87.25
 10
-203.5
 20
-87.0
 10
-203.5
 20
-86.75
 10
-203.5
 20
-86.5
 10
-203.5
 20
-86.25
 10
-203.5
 20
-86.0
 10
-203.5
 20
-85.75
 10
-203.5
 20
-85.5
 10
-203.5
 20
-85.25
 10
-203.5
 20
-85.0
 10
-203.5
 20
-84.75
 10
-203.5
 20
-84.5
 10
-203.5
 20
-84.25
 10
-203.5
 20
-84.0
 10
-203.5
 20
-83.75
 10
-203.5
 20
-83.5
 10
-203.5
 20
-83.25
 10
-203.5
 20
-83.0
 10
-203.5
 20
-82.75
 10
-203.5
 20
-82.5
 10
-203.5
 20
-82.25
 10
-203.5
 20
-82.0
 10
-203.5
 20
-81.75
 10
-203.5
 20
-81.5
 10
-203.5
 20
-81.25
 10
-203.5
 20
-81.0
 10
-203.5
 20
-80.75
 10
-203.5
 20
-80.5
 10
-203.5
 20
-80.25
 10
-203.5
 20
-80.0
 10
-203.5
 20
-79.75
 10
-203.5
 20
-79.5
 10
-203.5
 20
-79.25
 10
-203.5
 20
-79.0
 10
-203.5
 20
-78.75
 10
-203.5
 20
-78.5
 10
-203.5
 20
-78.25
 10
-203.5
 20
-78.0
 10
-203.5
 20
-77.75
 10
-203.5
 20
-77.5
 10
-203.5
 20
-77.25
 10
-203.5
 20
-77.0
 10
-203.5
 20
-76.75
 10
-203.5
 20
-76.5
 10
-203.5
 20
-76.25
 10
-203.5
 20
-76.0
 10
-203.5
 20
-75.75
 10
-203.5
 20
-75.5
 10
-203.5
 20
-75.25
 10
-203.5
 20
-75.0
 10
-203.5
 20
-74.75
 10
-203.5
 20
-74.5
 10
-203.5
 20
-74.25
 10
-203.5
 20
-74.0
 10
-203.5
 20
-73.75
 10
-203.5
 20
-73.5
 10
-203.5
 20
-73.25
 10
-203.5
 20
-73.0
 10
-203.5
 20
-72.75
 10
-203.5
 20
-72.5
 10
-203.5
 20
-72.25
 10
-203.5
 20
-72.0
 10
-203.5
 20
-71.75
 10
-203.5
 20
-71.5
 10
-203.5
 20
-71.25
 10
-203.5
 20
-71.0
 10
-203.5
 20
-70.75
 10
-203.5
 20
-70.5
 10
-203.5
 20
-70.25
 10
-203.5
 20
-70.0
 10
-203.5
 20
-69.75
 10
-203.5
 20
-69.5
 10
-203.5
 20
-69.25
 10
-203.5
 20
-69.0
 10
-203.5
 20
-68.75
 10
-203.5
 20
-68.5
 10
-203.5
 20
-68.25
 10
-203.5
 20
-68.0
 10
-203.5
 20
-67.75
 10
-203.5
 20
-67.5
 10
-203.5
 20
-67.25
 10
-203.5
 20
-67.0
 10
-203.5
 20
-66.75
 10
-203.5
 20
-66.5
 10
-203.5
 20
-66.25
 10
-203.5
 20
-66.0
 10
-203.5
 20
-65.75
 10
-203.5
 20
-65.5
 10
-203.5
 20
-65.25
 10
-203.5
 20
-65.0
 10
-203.5
 20
-64.75
 10
-203.5
 20
-64.5
 10
-203.5
 20
-64.25
 10
-203.5
 20
-64.0
 10
-203.5
 20
-63.75
 10
-203.5
 20
-63.5
 10
-203.5
 20
-63.25
 10
-203.5
 20
-63.0
 10
-203.5
 20
-62.75
 10
-203.5
 20
-62.5
 10
-203.5
 20
-62.25
 10
-203.5
 20
-62.0
 10
-203.5
 20
-61.75
 10
-203.5
 20
-61.5
 10
-203.5
 20
-61.25
 10
-203.5
 20
-61.0
 10
-203.5
 20
-60.75
 10
-203.5
 20
-60.5
 10
-203.5
 20
-60.25
 10
-203.5
 20
-60.0
 10
-203.5
 20
-59.75
 10
-203.5
 20
-59.5
 10
-203.5
 20
-59.25
 10
-203.5
 20
-59.0
  0
LWPOLYLINE
  5
122
330
17
100
AcDbEntity
  8
COVER_BATTERY_BOTTOM
100
AcDbPolyline
 90
3
 70
0
 10
-203.5
 20
-59.0
 10
-203.4961055110513
 20
-58.93771579730992
 10
-203.49221102210262
 20
-58.87543159461984
  0
LWPOLYLINE
  5
123
330
17
100
AcDbEntity
  8
COVER_BATTERY_BOTTOM
100
AcDbPolyline
 90
3
 70
0
 10
-203.49221102210294
 20
-58.87543159462589
 10
-203.40978409597008
 20
-58.58491820237465
 10
-203.24439193000862
 20
-58.33225704456127
  0
LWPOLYLINE
  5
124
330
17
100
AcDbEntity
  8
COVER_BATTERY_BOTTOM
100
AcDbPolyline
 90
9
 70
0
 10
-203.24439193001
 20
-58.332257044559995
 10
-203.06940345310122
 20
-58.13718196515252
 10
-202.89441497619242
 20
-57.94210688574506
 10
-202.71942649928363
 20
-57.7470318063376
 10
-202.54443802237483
 20
-57.55195672693013
 10
-202.36944954546604
 20
-57.35688164752267
 10
-202.19446106855725
 20
-57.16180656811521
 10
-202.01947259164845
 20
-56.96673148870775
 10
-201.84448411473966
 20
-56.77165640930028
  0
LWPOLYLINE
  5
125
330
17
100
AcDbEntity
  8
COVER_BATTERY_BOTTOM
100
AcDbPolyline
 90
3
 70
0
 10
-201.84448411474048
 20
-56.77165640929878
 10
-201.7230233073713
 20
-56.725671954646565
 10
-201.60156250000216
 20
-56.679687499994344
  0
LWPOLYLINE
  5
126
330
17
100
AcDbEntity
  8
COVER_BATTERY_BOTTOM
100
AcDbPolyline
 90
3
 70
0
 10
-201.6015625
 20
-56.6796875
 10
-201.46771240233994
 20
-56.6409301757802
 10
-201.33386230467988
 20
-56.60217285156039
  0
LWPOLYLINE
  5
127
330
17
100
AcDbEntity
  8
COVER_BATTERY_BOTTOM
100
AcDbPolyline
 90
3
 70
0
 10
-201.33386230468
 20
-56.602172851560006
 10
-201.1967163085901
 20
-56.574035644529474
 10
-201.05957031250023
 20
-56.545898437498934
  0
LWPOLYLINE
  5
128
330
17
100
AcDbEntity
  8
COVER_BATTERY_BOTTOM
100
AcDbPolyline
 90
3
 70
0
 10
-201.0595703125
 20
-56.5458984375
 10
-200.92022705077954
 20
-56.52874755859354
 10
-200.78088378905915
 20
-56.51159667968707
  0
LWPOLYLINE
  5
129
330
17
100
AcDbEntity
  8
COVER_BATTERY_BOTTOM
100
AcDbPolyline
 90
3
 70
0
 10
-200.78088378906003
 20
-56.511596679680004
 10
-200.64044189453017
 20
-56.50579833983631
 10
-200.50000000000034
 20
-56.49999999999262
  0
LWPOLYLINE
  5
12A
330
17
100
AcDbEntity
  8
COVER_BATTERY_BOTTOM
100
AcDbPolyline
 90
93
 70
0
 10
-200.5
 20
-56.5
 10
-200.24824323314368
 20
-56.5
 10
-199.9964864662874
 20
-56.5
 10
-199.7447296994311
 20
-56.5
 10
-199.4929729325748
 20
-56.5
 10
-199.24121616571847
 20
-56.5
 10
-198.98945939886215
 20
-56.5
 10
-198.73770263200586
 20
-56.5
 10
-198.48594586514957
 20
-56.5
 10
-198.23418909829326
 20
-56.5
 10
-197.98243233143694
 20
-56.5
 10
-197.73067556458065
 20
-56.5
 10
-197.47891879772436
 20
-56.5
 10
-197.22716203086804
 20
-56.5
 10
-196.97540526401173
 20
-56.5
 10
-196.72364849715544
 20
-56.5
 10
-196.47189173029915
 20
-56.5
 10
-196.22013496344283
 20
-56.5
 10
-195.9683781965865
 20
-56.5
 10
-195.7166214297302
 20
-56.5
 10
-195.4648646628739
 20
-56.5
 10
-195.21310789601762
 20
-56.5
 10
-194.9613511291613
 20
-56.5
 10
-194.70959436230498
 20
-56.5
 10
-194.4578375954487
 20
-56.5
 10
-194.2060808285924
 20
-56.5
 10
-193.9543240617361
 20
-56.5
 10
-193.70256729487977
 20
-56.5
 10
-193.45081052802348
 20
-56.5
 10
-193.19905376116716
 20
-56.5
 10
-192.94729699431088
 20
-56.5
 10
-192.69554022745456
 20
-56.5
 10
-192.44378346059824
 20
-56.5
 10
-192.19202669374195
 20
-56.5
 10
-191.94026992688566
 20
-56.5
 10
-191.68851316002934
 20
-56.5
 10
-191.43675639317303
 20
-56.5
 10
-191.18499962631674
 20
-56.5
 10
-190.93324285946045
 20
-56.5
 10
-190.68148609260413
 20
-56.5
 10
-190.42972932574781
 20
-56.5
 10
-190.17797255889153
 20
-56.5
 10
-189.9262157920352
 20
-56.5
 10
-189.67445902517892
 20
-56.5
 10
-189.4227022583226
 20
-56.5
 10
-189.17094549146628
 20
-56.5
 10
-188.91918872461
 20
-56.5
 10
-188.6674319577537
 20
-56.5
 10
-188.4156751908974
 20
-56.5
 10
-188.16391842404107
 20
-56.5
 10
-187.91216165718478
 20
-56.5
 10
-187.66040489032846
 20
-56.5
 10
-187.40864812347218
 20
-56.5
 10
-187.15689135661586
 20
-56.5
 10
-186.90513458975954
 20
-56.5
 10
-186.65337782290325
 20
-56.5
 10
-186.40162105604696
 20
-56.5
 10
-186.14986428919065
 20
-56.5
 10
-185.89810752233433
 20
-56.5
 10
-185.64635075547804
 20
-56.5
 10
-185.39459398862175
 20
-56.5
 10
-185.14283722176543
 20
-56.5
 10
-184.89108045490912
 20
-56.5
 10
-184.63932368805283
 20
-56.5
 10
-184.3875669211965
 20
-56.5
 10
-184.13581015434022
 20
-56.5
 10
-183.8840533874839
 20
-56.5
 10
-183.63229662062759
 20
-56.5
 10
-183.3805398537713
 20
-56.5
 10
-183.128783086915
 20
-56.5
 10
-182.8770263200587
 20
-56.5
 10
-182.62526955320237
 20
-56.5
 10
-182.37351278634608
 20
-56.5
 10
-182.1217560194898
 20
-56.5
 10
-181.86999925263348
 20
-56.5
 10
-181.61824248577716
 20
-56.5
 10
-181.36648571892087
 20
-56.5
 10
-181.11472895206455
 20
-56.5
 10
-180.86297218520826
 20
-56.5
 10
-180.61121541835195
 20
-56.5
 10
-180.35945865149563
 20
-56.5
 10
-180.10770188463934
 20
-56.5
 10
-179.85594511778305
 20
-56.5
 10
-179.60418835092673
 20
-56.5
 10
-179.35243158407042
 20
-56.5
 10
-179.10067481721413
 20
-56.5
 10
-178.8489180503578
 20
-56.5
 10
-178.59716128350152
 20
-56.5
 10
-178.3454045166452
 20
-56.5
 10
-178.0936477497889
 20
-56.5
 10
-177.8418909829326
 20
-56.5
 10
-177.5901342160763
 20
-56.5
 10
-177.33837744922
 20
-56.5
  0
LWPOLYLINE
  5
12B
330
17
100
AcDbEntity
  8
COVER_BATTERY_BOTTOM
100
AcDbPolyline
 90
10
 70
0
 10
-177.3383774492183
 20
-56.49999999999854
 10
-177.16114645874836
 20
-56.705137713595235
 10
-176.98391546827838
 20
-56.910275427191934
 10
-176.80668447780843
 20
-57.11541314078863
 10
-176.62945348733845
 20
-57.320550854385324
 10
-176.4522224968685
 20
-57.52568856798202
 10
-176.27499150639852
 20
-57.730826281578715
 10
-176.09776051592854
 20
-57.93596399517541
 10
-175.9205295254586
 20
-58.14110170877211
 10
-175.7432985349886
 20
-58.346239422368804
  0
LWPOLYLINE
  5
12C
330
17
100
AcDbEntity
  8
COVER_BATTERY_BOTTOM
100
AcDbPolyline
 90
3
 70
0
 10
-175.74329853499432
 20
-58.34623942237371
 10
-175.562796322829
 20
-58.65121744955179
 10
-175.5
 20
-59.0
  0
LWPOLYLINE
  5
12D
330
17
100
AcDbEntity
  8
COVER_BATTERY_BOTTOM
100
AcDbPolyline
 90
159
 70
0
 10
-175.5
 20
-59.0
 10
-175.5
 20
-59.25
 10
-175.5
 20
-59.5
 10
-175.5
 20
-59.75
 10
-175.5
 20
-60.0
 10
-175.5
 20
-60.25
 10
-175.5
 20
-60.5
 10
-175.5
 20
-60.75
 10
-175.5
 20
-61.0
 10
-175.5
 20
-61.25
 10
-175.5
 20
-61.5
 10
-175.5
 20
-61.75
 10
-175.5
 20
-62.0
 10
-175.5
 20
-62.25
 10
-175.5
 20
-62.5
 10
-175.5
 20
-62.75
 10
-175.5
 20
-63.0
 10
-175.5
 20
-63.25
 10
-175.5
 20
-63.5
 10
-175.5
 20
-63.75
 10
-175.5
 20
-64.0
 10
-175.5
 20
-64.25
 10
-175.5
 20
-64.5
 10
-175.5
 20
-64.75
 10
-175.5
 20
-65.0
 10
-175.5
 20
-65.25
 10
-175.5
 20
-65.5
 10
-175.5
 20
-65.75
 10
-175.5
 20
-66.0
 10
-175.5
 20
-66.25
 10
-175.5
 20
-66.5
 10
-175.5
 20
-66.75
 10
-175.5
 20
-67.0
 10
-175.5
 20
-67.25
 10
-175.5
 20
-67.5
 10
-175.5
 20
-67.75
 10
-175.5
 20
-68.0
 10
-175.5
 20
-68.25
 10
-175.5
 20
-68.5
 10
-175.5
 20
-68.75
 10
-175.5
 20
-69.0
 10
-175.5
 20
-69.25
 10
-175.5
 20
-69.5
 10
-175.5
 20
-69.75
 10
-175.5
 20
-70.0
 10
-175.5
 20
-70.25
 10
-175.5
 20
-70.5
 10
-175.5
 20
-70.75
 10
-175.5
 20
-71.0
 10
-175.5
 20
-71.25
 10
-175.5
 20
-71.5
 10
-175.5
 20
-71.75
 10
-175.5
 20
-72.0
 10
-175.5
 20
-72.25
 10
-175.5
 20
-72.5
 10
-175.5
 20
-72.75
 10
-175.5
 20
-73.0
 10
-175.5
 20
-73.25
 10
-175.5
 20
-73.5
 10
-175.5
 20
-73.75
 10
-175.5
 20
-74.0
 10
-175.5
 20
-74.25
 10
-175.5
 20
-74.5
 10
-175.5
 20
-74.75
 10
-175.5
 20
-75.0
 10
-175.5
 20
-75.25
 10
-175.5
 20
-75.5
 10
-175.5
 20
-75.75
 10
-175.5
 20
-76.0
 10
-175.5
 20
-76.25
 10
-175.5
 20
-76.5
 10
-175.5
 20
-76.75
 10
-175.5
 20
-77.0
 10
-175.5
 20
-77.25
 10
-175.5
 20
-77.5
 10
-175.5
 20
-77.75
 10
-175.5
 20
-78.0
 10
-175.5
 20
-78.25
 10
-175.5
 20
-78.5
 10
-175.5
 20
-78.75
 10
-175.5
 20
-79.0
 10
-175.5
 20
-79.25
 10
-175.5
 20
-79.5
 10
-175.5
 20
-79.75
 10
-175.5
 20
-80.0
 10
-175.5
 20
-80.25
 10
-175.5
 20
-80.5
 10
-175.5
 20
-80.75
 10
-175.5
 20
-81.0
 10
-175.5
 20
-81.25
 10
-175.5
 20
-81.5
 10
-175.5
 20
-81.75
 10
-175.5
 20
-82.0
 10
-175.5
 20
-82.25
 10
-175.5
 20
-82.5
 10
-175.5
 20
-82.75
 10
-175.5
 20
-83.0
 10
-175.5
 20
-83.25
 10
-175.5
 20
-83.5
 10
-175.5
 20
-83.75
 10
-175.5
 20
-84.0
 10
-175.5
 20
-84.25
 10
-175.5
 20
-84.5
 10
-175.5
 20
-84.75
 10
-175.5
 20
-85.0
 10
-175.5
 20
-85.25
 10
-175.5
 20
-85.5
 10
-175.5
 20
-85.75
 10
-175.5
 20
-86.0
 10
-175.5
 20
-86.25
 10
-175.5
 20
-86.5
 10
-175.5
 20
-86.75
 10
-175.5
 20
-87.0
 10
-175.5
 20
-87.25
 10
-175.5
 20
-87.5
 10
-175.5
 20
-87.75
 10
-175.5
 20
-88.0
 10
-175.5
 20
-88.25
 10
-175.5
 20
-88.5
 10
-175.5
 20
-88.75
 10
-175.5
 20
-89.0
 10
-175.5
 20
-89.25
 10
-175.5
 20
-89.5
 10
-175.5
 20
-89.75
 10
-175.5
 20
-90.0
 10
-175.5
 20
-90.25
 10
-175.5
 20
-90.5
 10
-175.5
 20
-90.75
 10
-175.5
 20
-91.0
 10
-175.5
 20
-91.25
 10
-175.5
 20
-91.5
 10
-175.5
 20
-91.75
 10
-175.5
 20
-92.0
 10
-175.5
 20
-92.25
 10
-175.5
 20
-92.5
 10
-175.5
 20
-92.75
 10
-175.5
 20
-93.0
 10
-175.5
 20
-93.25
 10
-175.5
 20
-93.5
 10
-175.5
 20
-93.75
 10
-175.5
 20
-94.0
 10
-175.5
 20
-94.25
 10
-175.5
 20
-94.5
 10
-175.5
 20
-94.75
 10
-175.5
 20
-95.0
 10
-175.5
 20
-95.25
 10
-175.5
 20
-95.5
 10
-175.5
 20
-95.75
 10
-175.5
 20
-96.0
 10
-175.5
 20
-96.25
 10
-175.5
 20
-96.5
 10
-175.5
 20
-96.75
 10
-175.5
 20
-97.0
 10
-175.5
 20
-97.25
 10
-175.5
 20
-97.5
 10
-175.5
 20
-97.75
 10
-175.5
 20
-98.0
 10
-175.5
 20
-98.25
 10
-175.5
 20
-98.5
  0
LWPOLYLINE
  5
12E
330
17
100
AcDbEntity
  8
COVER_BATTERY_BOTTOM
100
AcDbPolyline
 90
29
 70
0
 10
-181.15
 20
-99.5
 10
-181.12116709900909
 20
-99.75589907404976
 10
-181.03611419808777
 20
-99.9989662999852
 10
-180.89910620483823
 20
-100.21701327213755
 10
-180.71701327213754
 20
-100.39910620483823
 10
-180.4989662999852
 20
-100.53611419808779
 10
-180.25589907404975
 20
-100.6211670990091
 10
-180.0
 20
-100.65
 10
-179.74410092595025
 20
-100.6211670990091
 10
-179.5010337000148
 20
-100.53611419808779
 10
-179.28298672786246
 20
-100.39910620483823
 10
-179.10089379516177
 20
-100.21701327213755
 10
-178.96388580191223
 20
-99.99896629998518
 10
-178.87883290099091
 20
-99.75589907404976
 10
-178.85
 20
-99.5
 10
-178.87883290099091
 20
-99.24410092595024
 10
-178.96388580191223
 20
-99.0010337000148
 10
-179.10089379516177
 20
-98.78298672786245
 10
-179.28298672786246
 20
-98.60089379516177
 10
-179.5010337000148
 20
-98.46388580191221
 10
-179.74410092595025
 20
-98.3788329009909
 10
-180.0
 20
-98.35
 10
-180.25589907404975
 20
-98.3788329009909
 10
-180.4989662999852
 20
-98.46388580191221
 10
-180.71701327213754
 20
-98.60089379516177
 10
-180.89910620483823
 20
-98.78298672786245
 10
-181.03611419808777
 20
-99.00103370001482
 10
-181.12116709900909
 20
-99.24410092595024
 10
-181.15
 20
-99.5
  0
LWPOLYLINE
  5
12F
330
17
100
AcDbEntity
  8
COVER_BATTERY_BOTTOM
100
AcDbPolyline
 90
29
 70
0
 10
-181.15
 20
-58.0
 10
-181.12116709900909
 20
-58.255899074049765
 10
-181.03611419808777
 20
-58.49896629998519
 10
-180.89910620483823
 20
-58.71701327213754
 10
-180.71701327213754
 20
-58.89910620483823
 10
-180.4989662999852
 20
-59.03611419808778
 10
-180.25589907404975
 20
-59.1211670990091
 10
-180.0
 20
-59.15
 10
-179.74410092595025
 20
-59.1211670990091
 10
-179.5010337000148
 20
-59.03611419808778
 10
-179.28298672786246
 20
-58.89910620483823
 10
-179.10089379516177
 20
-58.71701327213754
 10
-178.96388580191223
 20
-58.49896629998519
 10
-178.87883290099091
 20
-58.255899074049765
 10
-178.85
 20
-58.0
 10
-178.87883290099091
 20
-57.744100925950235
 10
-178.96388580191223
 20
-57.50103370001481
 10
-179.10089379516177
 20
-57.28298672786246
 10
-179.28298672786246
 20
-57.10089379516177
 10
-179.5010337000148
 20
-56.96388580191222
 10
-179.74410092595025
 20
-56.8788329009909
 10
-180.0
 20
-56.85
 10
-180.25589907404975
 20
-56.8788329009909
 10
-180.4989662999852
 20
-56.96388580191222
 10
-180.71701327213754
 20
-57.10089379516177
 10
-180.89910620483823
 20
-57.28298672786246
 10
-181.03611419808777
 20
-57.50103370001481
 10
-181.12116709900909
 20
-57.744100925950235
 10
-181.15
 20
-58.0
  0
LWPOLYLINE
  5
130
330
17
100
AcDbEntity
  8
COVER_BATTERY_BOTTOM
100
AcDbPolyline
 90
29
 70
0
 10
-200.070161
 20
-58.0
 10
-200.0413280990091
 20
-58.255899074049765
 10
-199.95627519808778
 20
-58.49896629998519
 10
-199.81926720483824
 20
-58.71701327213754
 10
-199.63717427213754
 20
-58.89910620483823
 10
-199.4191272999852
 20
-59.03611419808778
 10
-199.17606007404976
 20
-59.1211670990091
 10
-198.920161
 20
-59.15
 10
-198.66426192595026
 20
-59.1211670990091
 10
-198.4211947000148
 20
-59.03611419808778
 10
-198.20314772786247
 20
-58.89910620483823
 10
-198.02105479516177
 20
-58.71701327213754
 10
-197.88404680191223
 20
-58.49896629998519
 10
-197.79899390099092
 20
-58.255899074049765
 10
-197.770161
 20
-58.0
 10
-197.79899390099092
 20
-57.744100925950235
 10
-197.88404680191223
 20
-57.50103370001481
 10
-198.02105479516177
 20
-57.28298672786246
 10
-198.20314772786247
 20
-57.10089379516177
 10
-198.4211947000148
 20
-56.96388580191222
 10
-198.66426192595026
 20
-56.8788329009909
 10
-198.920161
 20
-56.85
 10
-199.17606007404976
 20
-56.8788329009909
 10
-199.4191272999852
 20
-56.96388580191222
 10
-199.63717427213754
 20
-57.10089379516177
 10
-199.81926720483824
 20
-57.28298672786246
 10
-199.95627519808778
 20
-57.50103370001481
 10
-200.0413280990091
 20
-57.744100925950235
 10
-200.070161
 20
-58.0
  0
LWPOLYLINE
  5
131
330
17
100
AcDbEntity
  8
COVER_BATTERY_BOTTOM
100
AcDbPolyline
 90
17
 70
0
 10
-180.65
 20
-58.0
 10
-180.60052169613235
 20
-57.75125576896269
 10
-180.45961940777124
 20
-57.54038059222874
 10
-180.2487442310373
 20
-57.39947830386766
 10
-180.0
 20
-57.35
 10
-179.7512557689627
 20
-57.39947830386766
 10
-179.54038059222876
 20
-57.54038059222874
 10
-179.39947830386765
 20
-57.75125576896269
 10
-179.35
 20
-58.0
 10
-179.39947830386765
 20
-58.24874423103731
 10
-179.54038059222876
 20
-58.45961940777126
 10
-179.7512557689627
 20
-58.60052169613233
 10
-180.0
 20
-58.65
 10
-180.2487442310373
 20
-58.60052169613234
 10
-180.45961940777124
 20
-58.45961940777126
 10
-180.60052169613235
 20
-58.24874423103731
 10
-180.65
 20
-58.0
  0
LWPOLYLINE
  5
132
330
17
100
AcDbEntity
  8
COVER_BATTERY_BOTTOM
100
AcDbPolyline
 90
17
 70
0
 10
-180.65
 20
-99.5
 10
-180.60052169613235
 20
-99.2512557689627
 10
-180.45961940777124
 20
-99.04038059222874
 10
-180.2487442310373
 20
-98.89947830386767
 10
-180.0
 20
-98.85
 10
-179.7512557689627
 20
-98.89947830386767
 10
-179.54038059222876
 20
-99.04038059222874
 10
-179.39947830386765
 20
-99.2512557689627
 10
-179.35
 20
-99.5
 10
-179.39947830386765
 20
-99.7487442310373
 10
-179.54038059222876
 20
-99.95961940777126
 10
-179.7512557689627
 20
-100.10052169613233
 10
-180.0
 20
-100.15
 10
-180.2487442310373
 20
-100.10052169613233
 10
-180.45961940777124
 20
-99.95961940777126
 10
-180.60052169613235
 20
-99.7487442310373
 10
-180.65
 20
-99.5
  0
LWPOLYLINE
  5
133
330
17
100
AcDbEntity
  8
COVER_BATTERY_BOTTOM
100
AcDbPolyline
 90
17
 70
0
 10
-199.570161
 20
-58.0
 10
-199.52068269613235
 20
-57.75125576896269
 10
-199.37978040777125
 20
-57.54038059222874
 10
-199.16890523103731
 20
-57.39947830386766
 10
-198.920161
 20
-57.35
 10
-198.6714167689627
 20
-57.39947830386766
 10
-198.46054159222876
 20
-57.54038059222874
 10
-198.31963930386766
 20
-57.75125576896269
 10
-198.270161
 20
-58.0
 10
-198.31963930386766
 20
-58.24874423103731
 10
-198.46054159222876
 20
-58.45961940777126
 10
-198.6714167689627
 20
-58.60052169613233
 10
-198.920161
 20
-58.65
 10
-199.16890523103731
 20
-58.60052169613234
 10
-199.37978040777125
 20
-58.45961940777126
 10
-199.52068269613235
 20
-58.24874423103731
 10
-199.570161
 20
-58.0
  0
LWPOLYLINE
  5
134
330
17
100
AcDbEntity
  8
COVER_XIAO_COVER
100
AcDbPolyline
 90
5
 70
0
 10
-118.37621889912661
 20
-110.12536056980444
 10
-118.11159548515032
 20
-110.22738265552738
 10
-117.88625642785803
 20
-110.39959289464909
 10
-117.71832666187336
 20
-110.62813971894569
 10
-117.62131345959905
 20
-110.8946401800789
  0
LWPOLYLINE
  5
135
330
17
100
AcDbEntity
  8
COVER_XIAO_COVER
100
AcDbPolyline
 90
64
 70
0
 10
-133.75858080892
 20
-106.5935089172
 10
-133.51441633416118
 20
-106.64957005454248
 10
-133.27025185940238
 20
-106.70563119188495
 10
-133.02608738464355
 20
-106.76169232922742
 10
-132.7819229098847
 20
-106.81775346656988
 10
-132.5377584351259
 20
-106.87381460391236
 10
-132.2935939603671
 20
-106.92987574125483
 10
-132.04942948560827
 20
-106.9859368785973
 10
-131.80526501084944
 20
-107.04199801593978
 10
-131.56110053609063
 20
-107.09805915328225
 10
-131.31693606133183
 20
-107.15412029062472
 10
-131.072771586573
 20
-107.21018142796719
 10
-130.82860711181416
 20
-107.26624256530965
 10
-130.58444263705536
 20
-107.32230370265214
 10
-130.34027816229656
 20
-107.3783648399946
 10
-130.09611368753772
 20
-107.43442597733707
 10
-129.8519492127789
 20
-107.49048711467955
 10
-129.6077847380201
 20
-107.54654825202202
 10
-129.36362026326128
 20
-107.60260938936449
 10
-129.11945578850245
 20
-107.65867052670696
 10
-128.87529131374362
 20
-107.71473166404944
 10
-128.6311268389848
 20
-107.7707928013919
 10
-128.386962364226
 20
-107.82685393873437
 10
-128.14279788946718
 20
-107.88291507607684
 10
-127.89863341470836
 20
-107.93897621341932
 10
-127.65446893994954
 20
-107.99503735076179
 10
-127.41030446519072
 20
-108.05109848810426
 10
-127.1661399904319
 20
-108.10715962544674
 10
-126.92197551567308
 20
-108.16322076278921
 10
-126.67781104091426
 20
-108.21928190013168
 10
-126.43364656615545
 20
-108.27534303747414
 10
-126.18948209139663
 20
-108.33140417481663
 10
-125.94531761663781
 20
-108.3874653121591
 10
-125.70115314187899
 20
-108.44352644950156
 10
-125.45698866712017
 20
-108.49958758684403
 10
-125.21282419236135
 20
-108.55564872418651
 10
-124.96865971760253
 20
-108.61170986152898
 10
-124.72449524284372
 20
-108.66777099887145
 10
-124.4803307680849
 20
-108.72383213621393
 10
-124.23616629332608
 20
-108.7798932735564
 10
-123.99200181856726
 20
-108.83595441089886
 10
-123.74783734380844
 20
-108.89201554824133
 10
-123.50367286904962
 20
-108.94807668558381
 10
-123.2595083942908
 20
-109.00413782292628
 10
-123.01534391953199
 20
-109.06019896026875
 10
-122.77117944477317
 20
-109.11626009761122
 10
-122.52701497001435
 20
-109.1723212349537
 10
-122.28285049525553
 20
-109.22838237229617
 10
-122.03868602049671
 20
-109.28444350963863
 10
-121.7945215457379
 20
-109.3405046469811
 10
-121.55035707097908
 20
-109.39656578432358
 10
-121.30619259622026
 20
-109.45262692166605
 10
-121.06202812146144
 20
-109.50868805900852
 10
-120.81786364670262
 20
-109.564749196351
 10
-120.57369917194382
 20
-109.62081033369347
 10
-120.32953469718498
 20
-109.67687147103594
 10
-120.08537022242616
 20
-109.7329326083784
 10
-119.84120574766735
 20
-109.78899374572089
 10
-119.59704127290854
 20
-109.84505488306336
 10
-119.35287679814971
 20
-109.90111602040582
 10
-119.10871232339089
 20
-109.9571771577483
 10
-118.86454784863207
 20
-110.01323829509077
 10
-118.62038337387327
 20
-110.06929943243324
 10
-118.37621889911443
 20
-110.12536056977571
  0
LWPOLYLINE
  5
136
330
17
100
AcDbEntity
  8
COVER_XIAO_COVER
100
AcDbPolyline
 90
3
 70
0
 10
-133.85183571757338
 20
-106.57670348602574
 10
-133.805009097257
 20
-106.58400101092714
 10
-133.75858080891717
 20
-106.59350891720432
  0
LWPOLYLINE
  5
137
330
17
100
AcDbEntity
  8
COVER_XIAO_COVER
100
AcDbPolyline
 90
3
 70
0
 10
-134.36947380778
 20
-106.5085551386
 10
-134.11065476267646
 20
-106.54262931231105
 10
-133.8518357175729
 20
-106.5767034860221
  0
LWPOLYLINE
  5
138
330
17
100
AcDbEntity
  8
COVER_XIAO_COVER
100
AcDbPolyline
 90
3
 70
0
 10
-134.6305261922201
 20
-106.50855513862619
 10
-134.5000000000001
 20
-106.5
 10
-134.36947380778014
 20
-106.50855513862616
  0
LWPOLYLINE
  5
139
330
17
100
AcDbEntity
  8
COVER_XIAO_COVER
100
AcDbPolyline
 90
3
 70
0
 10
-135.14816428242
 20
-106.57670348600001
 10
-134.88934523732138
 20
-106.5426293122896
 10
-134.63052619222276
 20
-106.50855513857921
  0
LWPOLYLINE
  5
13A
330
17
100
AcDbEntity
  8
COVER_XIAO_COVER
100
AcDbPolyline
 90
3
 70
0
 10
-135.40032152257328
 20
-106.6442688148921
 10
-135.27645713530512
 20
-106.60222252111163
 10
-135.14816428241662
 20
-106.57670348602574
  0
LWPOLYLINE
  5
13B
330
17
100
AcDbEntity
  8
COVER_XIAO_COVER
100
AcDbPolyline
 90
3
 70
0
 10
-135.88268343236
 20
-106.84406965990001
 10
-135.6415024774663
 20
-106.74416923739693
 10
-135.40032152257257
 20
-106.64426881489385
  0
LWPOLYLINE
  5
13C
330
17
100
AcDbEntity
  8
COVER_XIAO_COVER
100
AcDbPolyline
 90
3
 70
0
 10
-136.1087614290087
 20
-106.97459585210875
 10
-135.99999999999983
 20
-106.90192378861546
 10
-135.88268343236476
 20
-106.84406965988858
  0
LWPOLYLINE
  5
13D
330
17
100
AcDbEntity
  8
COVER_XIAO_COVER
100
AcDbPolyline
 90
3
 70
0
 10
-136.52297499138
 20
-107.2924330973
 10
-136.31586821019033
 20
-107.13351447469958
 10
-136.10876142900065
 20
-106.97459585209916
  0
LWPOLYLINE
  5
13E
330
17
100
AcDbEntity
  8
COVER_XIAO_COVER
100
AcDbPolyline
 90
3
 70
0
 10
-136.70756690266498
 20
-107.47702500859617
 10
-136.62132034355722
 20
-107.3786796564141
 10
-136.5229749913753
 20
-107.29243309730614
  0
LWPOLYLINE
  5
13F
330
17
100
AcDbEntity
  8
COVER_XIAO_COVER
100
AcDbPolyline
 90
3
 70
0
 10
-137.02540414786
 20
-107.8912385709
 10
-136.8664855252789
 20
-107.68413178973549
 10
-136.7075669026978
 20
-107.47702500857099
  0
LWPOLYLINE
  5
140
330
17
100
AcDbEntity
  8
COVER_XIAO_COVER
100
AcDbPolyline
 90
3
 70
0
 10
-137.15593034007114
 20
-108.11731656763453
 10
-137.09807621132757
 20
-107.99999999997078
 10
-137.0254041478104
 20
-107.89123857093806
  0
LWPOLYLINE
  5
141
330
17
100
AcDbEntity
  8
COVER_XIAO_COVER
100
AcDbPolyline
 90
3
 70
0
 10
-137.35573118508
 20
-108.5996784774
 10
-137.25583076257516
 20
-108.358497522502
 10
-137.1559303400703
 20
-108.11731656760404
  0
LWPOLYLINE
  5
142
330
17
100
AcDbEntity
  8
COVER_XIAO_COVER
100
AcDbPolyline
 90
3
 70
0
 10
-137.41299727943405
 20
-108.78909199769723
 10
-137.38906092168898
 20
-108.69296526992561
 10
-137.3557311850813
 20
-108.59967847733499
  0
LWPOLYLINE
  5
143
330
17
100
AcDbEntity
  8
COVER_XIAO_COVER
100
AcDbPolyline
 90
77
 70
0
 10
-141.12499999997976
 20
-127.63328350740402
 10
-141.07615785891986
 20
-127.38533361911841
 10
-141.02731571785995
 20
-127.13738373083282
 10
-140.9784735768
 20
-126.88943384254722
 10
-140.9296314357401
 20
-126.64148395426163
 10
-140.8807892946802
 20
-126.39353406597604
 10
-140.8319471536203
 20
-126.14558417769044
 10
-140.78310501256038
 20
-125.89763428940485
 10
-140.73426287150048
 20
-125.64968440111925
 10
-140.68542073044057
 20
-125.40173451283364
 10
-140.63657858938063
 20
-125.15378462454805
 10
-140.58773644832073
 20
-124.90583473626245
 10
-140.53889430726082
 20
-124.65788484797686
 10
-140.4900521662009
 20
-124.40993495969127
 10
-140.441210025141
 20
-124.16198507140567
 10
-140.3923678840811
 20
-123.91403518312008
 10
-140.3435257430212
 20
-123.66608529483447
 10
-140.29468360196128
 20
-123.41813540654888
 10
-140.24584146090137
 20
-123.1701855182633
 10
-140.19699931984144
 20
-122.92223562997769
 10
-140.14815717878153
 20
-122.6742857416921
 10
-140.09931503772162
 20
-122.4263358534065
 10
-140.05047289666172
 20
-122.1783859651209
 10
-140.0016307556018
 20
-121.9304360768353
 10
-139.9527886145419
 20
-121.6824861885497
 10
-139.903946473482
 20
-121.43453630026411
 10
-139.85510433242206
 20
-121.18658641197852
 10
-139.80626219136215
 20
-120.93863652369292
 10
-139.75742005030224
 20
-120.69068663540733
 10
-139.70857790924234
 20
-120.44273674712174
 10
-139.65973576818243
 20
-120.19478685883614
 10
-139.61089362712252
 20
-119.94683697055055
 10
-139.56205148606261
 20
-119.69888708226495
 10
-139.5132093450027
 20
-119.45093719397936
 10
-139.4643672039428
 20
-119.20298730569377
 10
-139.41552506288286
 20
-118.95503741740816
 10
-139.36668292182296
 20
-118.70708752912256
 10
-139.31784078076305
 20
-118.45913764083696
 10
-139.26899863970314
 20
-118.21118775255137
 10
-139.22015649864323
 20
-117.96323786426578
 10
-139.17131435758333
 20
-117.71528797598017
 10
-139.12247221652342
 20
-117.46733808769459
 10
-139.07363007546348
 20
-117.219388199409
 10
-139.02478793440358
 20
-116.97143831112339
 10
-138.97594579334367
 20
-116.7234884228378
 10
-138.92710365228376
 20
-116.47553853455221
 10
-138.87826151122385
 20
-116.22758864626661
 10
-138.82941937016395
 20
-115.97963875798101
 10
-138.78057722910404
 20
-115.73168886969542
 10
-138.7317350880441
 20
-115.48373898140983
 10
-138.6828929469842
 20
-115.23578909312423
 10
-138.6340508059243
 20
-114.98783920483862
 10
-138.58520866486438
 20
-114.73988931655302
 10
-138.53636652380447
 20
-114.49193942826744
 10
-138.48752438274457
 20
-114.24398953998184
 10
-138.43868224168466
 20
-113.99603965169624
 10
-138.38984010062475
 20
-113.74808976341065
 10
-138.34099795956485
 20
-113.50013987512506
 10
-138.2921558185049
 20
-113.25218998683945
 10
-138.243313677445
 20
-113.00424009855386
 10
-138.1944715363851
 20
-112.75629021026826
 10
-138.1456293953252
 20
-112.50834032198267
 10
-138.09678725426528
 20
-112.26039043369707
 10
-138.04794511320537
 20
-112.01244054541148
 10
-137.99910297214547
 20
-111.76449065712589
 10
-137.95026083108553
 20
-111.51654076884029
 10
-137.90141869002562
 20
-111.26859088055468
 10
-137.85257654896571
 20
-111.0206409922691
 10
-137.8037344079058
 20
-110.7726911039835
 10
-137.7548922668459
 20
-110.5247412156979
 10
-137.706050125786
 20
-110.27679132741231
 10
-137.65720798472609
 20
-110.02884143912672
 10
-137.60836584366618
 20
-109.78089155084112
 10
-137.55952370260624
 20
-109.53294166255552
 10
-137.51068156154633
 20
-109.28499177426993
 10
-137.46183942048643
 20
-109.03704188598434
 10
-137.41299727942652
 20
-108.78909199769873
  0
LWPOLYLINE
  5
144
330
17
100
AcDbEntity
  8
COVER_XIAO_COVER
100
AcDbPolyline
 90
4
 70
0
 10
-141.125
 20
-128.625
 10
-141.125
 20
-128.29442783579998
 10
-141.125
 20
-127.9638556716
 10
-141.125
 20
-127.6332835074
  0
LWPOLYLINE
  5
145
330
17
100
AcDbEntity
  8
COVER_XIAO_COVER
100
AcDbPolyline
 90
3
 70
0
 10
-141.32035220263
 20
-128.625
 10
-141.22267610131502
 20
-128.625
 10
-141.125
 20
-128.625
  0
LWPOLYLINE
  5
146
330
17
100
AcDbEntity
  8
COVER_XIAO_COVER
100
AcDbPolyline
 90
5
 70
0
 10
-141.52580327942
 20
-129.6679839977
 10
-141.47444051022185
 20
-129.40723799827515
 10
-141.42307774102372
 20
-129.14649199885025
 10
-141.37171497182558
 20
-128.88574599942538
 10
-141.32035220262745
 20
-128.6250000000005
  0
LWPOLYLINE
  5
147
330
17
100
AcDbEntity
  8
COVER_XIAO_COVER
100
AcDbPolyline
 90
3
 70
0
 10
-141.53610251394653
 20
-129.73072771750046
 10
-141.53145170512448
 20
-129.6992739793286
 10
-141.52580327942064
 20
-129.66798399762916
  0
LWPOLYLINE
  5
148
330
17
100
AcDbEntity
  8
COVER_XIAO_COVER
100
AcDbPolyline
 90
3
 70
0
 10
-141.60425086137
 20
-130.24836580770003
 10
-141.57017668765943
 20
-129.9895467626001
 10
-141.53610251394883
 20
-129.73072771750014
  0
LWPOLYLINE
  5
149
330
17
100
AcDbEntity
  8
COVER_XIAO_COVER
100
AcDbPolyline
 90
3
 70
0
 10
-141.6042508613738
 20
-130.5094181922201
 10
-141.612806
 20
-130.37889199996016
 10
-141.6042508613634
 20
-130.24836580770088
  0
LWPOLYLINE
  5
14A
330
17
100
AcDbEntity
  8
COVER_XIAO_COVER
100
AcDbPolyline
 90
3
 70
0
 10
-141.53610251395
 20
-131.0270562824
 10
-141.57017668766056
 20
-130.76823723730007
 10
-141.60425086137116
 20
-130.50941819220014
  0
LWPOLYLINE
  5
14B
330
17
100
AcDbEntity
  8
COVER_XIAO_COVER
100
AcDbPolyline
 90
3
 70
0
 10
-141.46853718508135
 20
-131.279213522565
 10
-141.51058347886178
 20
-131.15534913529248
 10
-141.53610251394653
 20
-131.02705628239954
  0
LWPOLYLINE
  5
14C
330
17
100
AcDbEntity
  8
COVER_XIAO_COVER
100
AcDbPolyline
 90
3
 70
0
 10
-141.26873634008
 20
-131.7615754323
 10
-141.36863676258486
 20
-131.520394477402
 10
-141.4685371850897
 20
-131.279213522504
  0
LWPOLYLINE
  5
14D
330
17
100
AcDbEntity
  8
COVER_XIAO_COVER
100
AcDbPolyline
 90
3
 70
0
 10
-141.13821014785125
 20
-131.9876534290087
 10
-141.2108822113603
 20
-131.8788919999725
 10
-141.2687363400956
 20
-131.76157543230644
  0
LWPOLYLINE
  5
14E
330
17
100
AcDbEntity
  8
COVER_XIAO_COVER
100
AcDbPolyline
 90
3
 70
0
 10
-141.12873629068758
 20
-131.99999999996749
 10
-141.1334732192549
 20
-131.99382671446924
 10
-141.1382101478222
 20
-131.987653428971
  0
LWPOLYLINE
  5
14F
330
17
100
AcDbEntity
  8
COVER_XIAO_COVER
100
AcDbPolyline
 90
95
 70
0
 10
-117.5
 20
-132.0
 10
-117.75136953500777
 20
-132.0
 10
-118.00273907001554
 20
-132.0
 10
-118.2541086050233
 20
-132.0
 10
-118.50547814003107
 20
-132.0
 10
-118.75684767503883
 20
-132.0
 10
-119.0082172100466
 20
-132.0
 10
-119.25958674505436
 20
-132.0
 10
-119.51095628006212
 20
-132.0
 10
-119.76232581506989
 20
-132.0
 10
-120.01369535007765
 20
-132.0
 10
-120.26506488508542
 20
-132.0
 10
-120.51643442009319
 20
-132.0
 10
-120.76780395510096
 20
-132.0
 10
-121.01917349010873
 20
-132.0
 10
-121.2705430251165
 20
-132.0
 10
-121.52191256012425
 20
-132.0
 10
-121.77328209513202
 20
-132.0
 10
-122.02465163013979
 20
-132.0
 10
-122.27602116514755
 20
-132.0
 10
-122.52739070015531
 20
-132.0
 10
-122.77876023516308
 20
-132.0
 10
-123.03012977017084
 20
-132.0
 10
-123.28149930517861
 20
-132.0
 10
-123.53286884018638
 20
-132.0
 10
-123.78423837519415
 20
-132.0
 10
-124.03560791020192
 20
-132.0
 10
-124.28697744520967
 20
-132.0
 10
-124.53834698021744
 20
-132.0
 10
-124.78971651522521
 20
-132.0
 10
-125.04108605023298
 20
-132.0
 10
-125.29245558524075
 20
-132.0
 10
-125.5438251202485
 20
-132.0
 10
-125.79519465525627
 20
-132.0
 10
-126.04656419026404
 20
-132.0
 10
-126.2979337252718
 20
-132.0
 10
-126.54930326027957
 20
-132.0
 10
-126.80067279528734
 20
-132.0
 10
-127.05204233029511
 20
-132.0
 10
-127.30341186530286
 20
-132.0
 10
-127.55478140031063
 20
-132.0
 10
-127.8061509353184
 20
-132.0
 10
-128.05752047032615
 20
-132.0
 10
-128.30889000533392
 20
-132.0
 10
-128.5602595403417
 20
-132.0
 10
-128.81162907534946
 20
-132.0
 10
-129.06299861035723
 20
-132.0
 10
-129.314368145365
 20
-132.0
 10
-129.56573768037276
 20
-132.0
 10
-129.81710721538053
 20
-132.0
 10
-130.0684767503883
 20
-132.0
 10
-130.31984628539607
 20
-132.0
 10
-130.57121582040384
 20
-132.0
 10
-130.8225853554116
 20
-132.0
 10
-131.07395489041937
 20
-132.0
 10
-131.32532442542714
 20
-132.0
 10
-131.57669396043488
 20
-132.0
 10
-131.82806349544265
 20
-132.0
 10
-132.07943303045042
 20
-132.0
 10
-132.33080256545819
 20
-132.0
 10
-132.58217210046595
 20
-132.0
 10
-132.83354163547372
 20
-132.0
 10
-133.08491117048146
 20
-132.0
 10
-133.33628070548923
 20
-132.0
 10
-133.587650240497
 20
-132.0
 10
-133.83901977550477
 20
-132.0
 10
-134.09038931051253
 20
-132.0
 10
-134.3417588455203
 20
-132.0
 10
-134.59312838052807
 20
-132.0
 10
-134.84449791553584
 20
-132.0
 10
-135.0958674505436
 20
-132.0
 10
-135.34723698555138
 20
-132.0
 10
-135.59860652055914
 20
-132.0
 10
-135.8499760555669
 20
-132.0
 10
-136.10134559057468
 20
-132.0
 10
-136.35271512558245
 20
-132.0
 10
-136.60408466059022
 20
-132.0
 10
-136.85545419559799
 20
-132.0
 10
-137.10682373060575
 20
-132.0
 10
-137.35819326561352
 20
-132.0
 10
-137.60956280062126
 20
-132.0
 10
-137.86093233562903
 20
-132.0
 10
-138.1123018706368
 20
-132.0
 10
-138.36367140564457
 20
-132.0
 10
-138.61504094065234
 20
-132.0
 10
-138.8664104756601
 20
-132.0
 10
-139.11778001066784
 20
-132.0
 10
-139.3691495456756
 20
-132.0
 10
-139.62051908068338
 20
-132.0
 10
-139.87188861569115
 20
-132.0
 10
-140.12325815069892
 20
-132.0
 10
-140.37462768570668
 20
-132.0
 10
-140.62599722071445
 20
-132.0
 10
-140.87736675572222
 20
-132.0
 10
-141.12873629073
 20
-132.0
  0
LWPOLYLINE
  5
150
330
17
100
AcDbEntity
  8
COVER_XIAO_COVER
100
AcDbPolyline
 90
3
 70
0
 10
-117.32439446780002
 20
-131.994856067
 10
-117.41219723390121
 20
-131.99742803345933
 10
-117.5000000000024
 20
-131.99999999991869
  0
LWPOLYLINE
  5
151
330
17
100
AcDbEntity
  8
COVER_XIAO_COVER
100
AcDbPolyline
 90
3
 70
0
 10
-117.14939113936
 20
-131.9794418523
 10
-117.23689280357674
 20
-131.98714895968706
 10
-117.32439446779348
 20
-131.99485606707412
  0
LWPOLYLINE
  5
152
330
17
100
AcDbEntity
  8
COVER_XIAO_COVER
100
AcDbPolyline
 90
3
 70
0
 10
-116.97559015493
 20
-131.9538102157
 10
-117.0624906471489
 20
-131.96662603397343
 10
-117.14939113936784
 20
-131.97944185224688
  0
LWPOLYLINE
  5
153
330
17
100
AcDbEntity
  8
COVER_XIAO_COVER
100
AcDbPolyline
 90
3
 70
0
 10
-116.80358753155
 20
-131.9180490562
 10
-116.889588843235
 20
-131.93592963597402
 10
-116.97559015492001
 20
-131.95381021574804
  0
LWPOLYLINE
  5
154
330
17
100
AcDbEntity
  8
COVER_XIAO_COVER
100
AcDbPolyline
 90
3
 70
0
 10
-116.63397311914001
 20
-131.8722810096
 10
-116.7187803253532
 20
-131.89516503286967
 10
-116.8035875315664
 20
-131.91804905613932
  0
LWPOLYLINE
  5
155
330
17
100
AcDbEntity
  8
COVER_XIAO_COVER
100
AcDbPolyline
 90
3
 70
0
 10
-116.46732857769001
 20
-131.81666302880004
 10
-116.5506508484133
 20
-131.84447201920517
 10
-116.63397311913657
 20
-131.8722810096103
  0
LWPOLYLINE
  5
156
330
17
100
AcDbEntity
  8
COVER_XIAO_COVER
100
AcDbPolyline
 90
3
 70
0
 10
-116.30422538262
 20
-131.7513858449
 10
-116.3857769801525
 20
-131.78402443685624
 10
-116.467328577685
 20
-131.8166630288125
  0
LWPOLYLINE
  5
157
330
17
100
AcDbEntity
  8
COVER_XIAO_COVER
100
AcDbPolyline
 90
3
 70
0
 10
-116.14522286496
 20
-131.6766733134
 10
-116.22472412379528
 20
-131.7140295791388
 10
-116.30422538263053
 20
-131.7513858448776
  0
LWPOLYLINE
  5
158
330
17
100
AcDbEntity
  8
COVER_XIAO_COVER
100
AcDbPolyline
 90
3
 70
0
 10
-115.99086629326001
 20
-131.5927816467
 10
-116.06804457909426
 20
-131.634727480079
 10
-116.1452228649285
 20
-131.67667331345802
  0
LWPOLYLINE
  5
159
330
17
100
AcDbEntity
  8
COVER_XIAO_COVER
100
AcDbPolyline
 90
3
 70
0
 10
-115.84168500369
 20
-131.4999985349
 10
-115.91627564848746
 20
-131.54639009077994
 10
-115.99086629328492
 20
-131.59278164665992
  0
LWPOLYLINE
  5
15A
330
17
100
AcDbEntity
  8
COVER_XIAO_COVER
100
AcDbPolyline
 90
3
 70
0
 10
-115.69819058479001
 20
-131.39864216
 10
-115.76993779424525
 20
-131.4493203474426
 10
-115.84168500370049
 20
-131.49999853488518
  0
LWPOLYLINE
  5
15B
330
17
100
AcDbEntity
  8
COVER_XIAO_COVER
100
AcDbPolyline
 90
3
 70
0
 10
-115.56087512308001
 20
-131.28906010420002
 10
-115.6295328539324
 20
-131.34385113210328
 10
-115.69819058478478
 20
-131.39864216000657
  0
LWPOLYLINE
  5
15C
330
17
100
AcDbEntity
  8
COVER_XIAO_COVER
100
AcDbPolyline
 90
3
 70
0
 10
-115.43020951551001
 20
-131.17162815800003
 10
-115.49554231930196
 20
-131.23034413109227
 10
-115.56087512309392
 20
-131.28906010418453
  0
LWPOLYLINE
  5
15D
330
17
100
AcDbEntity
  8
COVER_XIAO_COVER
100
AcDbPolyline
 90
3
 70
0
 10
-115.30664185466
 20
-131.0467490318
 10
-115.36842568507227
 20
-131.1091885949126
 10
-115.43020951548453
 20
-131.17162815802521
  0
LWPOLYLINE
  5
15E
330
17
100
AcDbEntity
  8
COVER_XIAO_COVER
100
AcDbPolyline
 90
3
 70
0
 10
-115.19059589205
 20
-130.9148509744
 10
-115.24861887335727
 20
-130.980800003098
 10
-115.30664185466455
 20
-131.04674903179603
  0
LWPOLYLINE
  5
15F
330
17
100
AcDbEntity
  8
COVER_XIAO_COVER
100
AcDbPolyline
 90
3
 70
0
 10
-115.08246958499001
 20
-130.7763863049
 10
-115.13653273851739
 20
-130.84561863965206
 10
-115.19059589204477
 20
-130.91485097440412
  0
LWPOLYLINE
  5
160
330
17
100
AcDbEntity
  8
COVER_XIAO_COVER
100
AcDbPolyline
 90
3
 70
0
 10
-114.98263373185
 20
-130.6318298612
 10
-115.03255165842396
 20
-130.7041080830473
 10
-115.08246958499791
 20
-130.77638630489454
  0
LWPOLYLINE
  5
161
330
17
100
AcDbEntity
  8
COVER_XIAO_COVER
100
AcDbPolyline
 90
3
 70
0
 10
-114.89143070048999
 20
-130.48167737189996
 10
-114.93703221616332
 20
-130.55675361655403
 10
-114.98263373183663
 20
-130.63182986120813
  0
LWPOLYLINE
  5
162
330
17
100
AcDbEntity
  8
COVER_XIAO_COVER
100
AcDbPolyline
 90
3
 70
0
 10
-114.80917325416002
 20
-130.326443756
 10
-114.85030197732468
 20
-130.40406056395017
 10
-114.89143070048937
 20
-130.48167737190033
  0
LWPOLYLINE
  5
163
330
17
100
AcDbEntity
  8
COVER_XIAO_COVER
100
AcDbPolyline
 90
3
 70
0
 10
-114.73614347895001
 20
-130.16666135730003
 10
-114.77265836656487
 20
-130.2465525566455
 10
-114.80917325417973
 20
-130.32644375599102
  0
LWPOLYLINE
  5
164
330
17
100
AcDbEntity
  8
COVER_XIAO_COVER
100
AcDbPolyline
 90
3
 70
0
 10
-114.67259181643001
 20
-130.002878119
 10
-114.70436764767541
 20
-130.08476973815567
 10
-114.73614347892081
 20
-130.16666135731134
  0
LWPOLYLINE
  5
165
330
17
100
AcDbEntity
  8
COVER_XIAO_COVER
100
AcDbPolyline
 90
3
 70
0
 10
-114.61873620481002
 20
-129.835655704
 10
-114.64566401062149
 20
-129.91926691149953
 10
-114.67259181643297
 20
-130.00287811899904
  0
LWPOLYLINE
  5
166
330
17
100
AcDbEntity
  8
COVER_XIAO_COVER
100
AcDbPolyline
 90
3
 70
0
 10
-114.57476133154
 20
-129.66556756939997
 10
-114.59674876818482
 20
-129.75061163669744
 10
-114.61873620482963
 20
-129.83565570399495
  0
LWPOLYLINE
  5
167
330
17
100
AcDbEntity
  8
COVER_XIAO_COVER
100
AcDbPolyline
 90
3
 70
0
 10
-114.54081799999001
 20
-129.493197
 10
-114.55778966575421
 20
-129.57938228470215
 10
-114.57476133151842
 20
-129.6655675694043
  0
LWPOLYLINE
  5
168
330
17
100
AcDbEntity
  8
COVER_XIAO_COVER
100
AcDbPolyline
 90
9
 70
0
 10
-114.15692800000001
 20
-127.468614
 10
-114.20491424999983
 20
-127.7216868749998
 10
-114.25290049999967
 20
-127.9747597499996
 10
-114.30088674999949
 20
-128.2278326249994
 10
-114.34887299999932
 20
-128.4809054999992
 10
-114.39685924999915
 20
-128.733978374999
 10
-114.44484549999898
 20
-128.98705124999879
 10
-114.4928317499988
 20
-129.2401241249986
 10
-114.54081799999862
 20
-129.4931969999984
  0
LWPOLYLINE
  5
169
330
17
100
AcDbEntity
  8
COVER_XIAO_COVER
100
AcDbPolyline
 90
3
 70
0
 10
-114.15019461904663
 20
-127.43700611450075
 10
-114.15356130952927
 20
-127.45281005724911
 10
-114.15692800001189
 20
-127.4686139999975
  0
LWPOLYLINE
  5
16A
330
17
100
AcDbEntity
  8
COVER_XIAO_COVER
100
AcDbPolyline
 90
68
 70
0
 10
-117.62131345959001
 20
-110.89464018000001
 10
-117.56950571570125
 20
-111.141541164097
 10
-117.51769797181248
 20
-111.388442148194
 10
-117.46589022792372
 20
-111.63534313229098
 10
-117.41408248403496
 20
-111.88224411638798
 10
-117.36227474014619
 20
-112.12914510048498
 10
-117.31046699625743
 20
-112.37604608458196
 10
-117.25865925236866
 20
-112.62294706867897
 10
-117.2068515084799
 20
-112.86984805277595
 10
-117.15504376459114
 20
-113.11674903687295
 10
-117.10323602070237
 20
-113.36365002096994
 10
-117.05142827681361
 20
-113.61055100506692
 10
-116.99962053292484
 20
-113.85745198916392
 10
-116.94781278903608
 20
-114.10435297326092
 10
-116.89600504514732
 20
-114.3512539573579
 10
-116.84419730125855
 20
-114.59815494145491
 10
-116.79238955736979
 20
-114.84505592555189
 10
-116.74058181348101
 20
-115.09195690964887
 10
-116.68877406959226
 20
-115.33885789374588
 10
-116.6369663257035
 20
-115.58575887784286
 10
-116.58515858181472
 20
-115.83265986193986
 10
-116.53335083792597
 20
-116.07956084603686
 10
-116.48154309403719
 20
-116.32646183013384
 10
-116.42973535014843
 20
-116.57336281423085
 10
-116.37792760625968
 20
-116.82026379832783
 10
-116.3261198623709
 20
-117.06716478242481
 10
-116.27431211848214
 20
-117.31406576652182
 10
-116.22250437459337
 20
-117.5609667506188
 10
-116.17069663070461
 20
-117.80786773471578
 10
-116.11888888681585
 20
-118.0547687188128
 10
-116.06708114292708
 20
-118.30166970290978
 10
-116.01527339903832
 20
-118.54857068700679
 10
-115.96346565514955
 20
-118.79547167110377
 10
-115.91165791126079
 20
-119.04237265520075
 10
-115.85985016737202
 20
-119.28927363929776
 10
-115.80804242348326
 20
-119.53617462339474
 10
-115.7562346795945
 20
-119.78307560749172
 10
-115.70442693570573
 20
-120.02997659158873
 10
-115.65261919181697
 20
-120.27687757568572
 10
-115.6008114479282
 20
-120.52377855978271
 10
-115.54900370403944
 20
-120.77067954387971
 10
-115.49719596015066
 20
-121.01758052797669
 10
-115.4453882162619
 20
-121.2644815120737
 10
-115.39358047237315
 20
-121.51138249617068
 10
-115.34177272848437
 20
-121.75828348026766
 10
-115.28996498459561
 20
-122.00518446436467
 10
-115.23815724070684
 20
-122.25208544846166
 10
-115.18634949681808
 20
-122.49898643255865
 10
-115.13454175292932
 20
-122.74588741665565
 10
-115.08273400904055
 20
-122.99278840075263
 10
-115.03092626515179
 20
-123.23968938484963
 10
-114.97911852126302
 20
-123.48659036894662
 10
-114.92731077737426
 20
-123.7334913530436
 10
-114.8755030334855
 20
-123.9803923371406
 10
-114.82369528959673
 20
-124.2272933212376
 10
-114.77188754570797
 20
-124.47419430533459
 10
-114.7200798018192
 20
-124.72109528943159
 10
-114.66827205793044
 20
-124.96799627352857
 10
-114.61646431404168
 20
-125.21489725762557
 10
-114.5646565701529
 20
-125.46179824172256
 10
-114.51284882626415
 20
-125.70869922581954
 10
-114.46104108237537
 20
-125.95560020991654
 10
-114.40923333848662
 20
-126.20250119401354
 10
-114.35742559459786
 20
-126.44940217811053
 10
-114.30561785070908
 20
-126.69630316220753
 10
-114.25381010682032
 20
-126.94320414630451
 10
-114.20200236293155
 20
-127.1901051304015
 10
-114.1501946190428
 20
-127.4370061144985
  0
LWPOLYLINE
  5
16B
330
17
100
AcDbEntity
  8
COVER_XIAO_COVER
100
AcDbPolyline
 90
11
 70
0
 10
-117.016507
 20
-130.277058
 10
-116.94011379774997
 20
-130.512172100917
 10
-116.74011379774998
 20
-130.65748060651808
 10
-116.49290020225001
 20
-130.65748060651808
 10
-116.29290020225002
 20
-130.512172100917
 10
-116.216507
 20
-130.277058
 10
-116.29290020225002
 20
-130.041943899083
 10
-116.49290020225001
 20
-129.89663539348194
 10
-116.74011379774998
 20
-129.89663539348194
 10
-116.94011379774997
 20
-130.041943899083
 10
-117.016507
 20
-130.277058
  0
LWPOLYLINE
  5
16C
330
17
100
AcDbEntity
  8
COVER_XIAO_COVER
100
AcDbPolyline
 90
11
 70
0
 10
-139.012806
 20
-130.378892
 10
-138.93641279775
 20
-130.614006100917
 10
-138.73641279774998
 20
-130.75931460651807
 10
-138.48919920225003
 20
-130.75931460651807
 10
-138.28919920225002
 20
-130.614006100917
 10
-138.212806
 20
-130.378892
 10
-138.28919920225002
 20
-130.143777899083
 10
-138.48919920225003
 20
-129.99846939348194
 10
-138.73641279774998
 20
-129.99846939348194
 10
-138.93641279775
 20
-130.143777899083
 10
-139.012806
 20
-130.378892
  0
LWPOLYLINE
  5
16D
330
17
100
AcDbEntity
  8
COVER_XIAO_COVER
100
AcDbPolyline
 90
11
 70
0
 10
-134.9
 20
-109.5
 10
-134.82360679775
 20
-109.73511410091699
 10
-134.62360679774997
 20
-109.88042260651807
 10
-134.37639320225003
 20
-109.88042260651807
 10
-134.17639320225
 20
-109.73511410091699
 10
-134.1
 20
-109.5
 10
-134.17639320225
 20
-109.26488589908301
 10
-134.37639320225003
 20
-109.11957739348193
 10
-134.62360679774997
 20
-109.11957739348193
 10
-134.82360679775
 20
-109.26488589908301
 10
-134.9
 20
-109.5
  0
LWPOLYLINE
  5
16E
330
17
100
AcDbEntity
  8
COVER_DISPLAY_COVER
100
AcDbPolyline
 90
49
 70
0
 10
-63.17000000000001
 20
-64.497
 10
-63.209875000000046
 20
-64.74891041666666
 10
-63.249750000000084
 20
-65.00082083333332
 10
-63.28962500000012
 20
-65.25273124999998
 10
-63.32950000000016
 20
-65.50464166666664
 10
-63.3693750000002
 20
-65.7565520833333
 10
-63.409250000000235
 20
-66.00846249999996
 10
-63.44912500000027
 20
-66.26037291666663
 10
-63.48900000000031
 20
-66.51228333333329
 10
-63.52887500000035
 20
-66.76419374999995
 10
-63.56875000000039
 20
-67.01610416666661
 10
-63.60862500000043
 20
-67.26801458333327
 10
-63.64850000000047
 20
-67.51992499999993
 10
-63.688375000000505
 20
-67.77183541666659
 10
-63.72825000000054
 20
-68.02374583333325
 10
-63.76812500000058
 20
-68.27565624999991
 10
-63.80800000000062
 20
-68.52756666666657
 10
-63.847875000000656
 20
-68.77947708333323
 10
-63.88775000000069
 20
-69.0313874999999
 10
-63.92762500000073
 20
-69.28329791666656
 10
-63.96750000000077
 20
-69.53520833333322
 10
-64.0073750000008
 20
-69.78711874999988
 10
-64.04725000000084
 20
-70.03902916666654
 10
-64.08712500000088
 20
-70.2909395833332
 10
-64.12700000000092
 20
-70.54284999999986
 10
-64.16687500000096
 20
-70.79476041666652
 10
-64.206750000001
 20
-71.04667083333318
 10
-64.24662500000103
 20
-71.29858124999984
 10
-64.28650000000107
 20
-71.5504916666665
 10
-64.32637500000112
 20
-71.80240208333316
 10
-64.36625000000116
 20
-72.05431249999982
 10
-64.4061250000012
 20
-72.30622291666648
 10
-64.44600000000123
 20
-72.55813333333315
 10
-64.48587500000127
 20
-72.8100437499998
 10
-64.52575000000131
 20
-73.06195416666647
 10
-64.56562500000135
 20
-73.31386458333313
 10
-64.60550000000138
 20
-73.56577499999979
 10
-64.64537500000142
 20
-73.81768541666645
 10
-64.68525000000146
 20
-74.06959583333311
 10
-64.7251250000015
 20
-74.32150624999977
 10
-64.76500000000154
 20
-74.57341666666645
 10
-64.80487500000157
 20
-74.8253270833331
 10
-64.84475000000161
 20
-75.07723749999975
 10
-64.88462500000165
 20
-75.32914791666641
 10
-64.92450000000169
 20
-75.58105833333308
 10
-64.96437500000172
 20
-75.83296874999974
 10
-65.00425000000176
 20
-76.0848791666664
 10
-65.0441250000018
 20
-76.33678958333307
 10
-65.08400000000184
 20
-76.58869999999972
  0
LWPOLYLINE
  5
16F
330
17
100
AcDbEntity
  8
COVER_DISPLAY_COVER
100
AcDbPolyline
 90
3
 70
0
 10
-63.16981400000002
 20
-64.49674600000002
 10
-63.16990700000001
 20
-64.49687300000001
 10
-63.170000000000016
 20
-64.49700000000001
  0
LWPOLYLINE
  5
170
330
17
100
AcDbEntity
  8
COVER_DISPLAY_COVER
100
AcDbPolyline
 90
3
 70
0
 10
-63.143363836463
 20
-64.31038609679
 10
-63.15658891823232
 20
-64.4035660483949
 10
-63.16981400000164
 20
-64.49674599999979
  0
LWPOLYLINE
  5
171
330
17
100
AcDbEntity
  8
COVER_DISPLAY_COVER
100
AcDbPolyline
 90
3
 70
0
 10
-63.129171531127
 20
-64.12269431983
 10
-63.13626768379444
 20
-64.21654020831005
 10
-63.14336383646189
 20
-64.31038609679008
  0
LWPOLYLINE
  5
172
330
17
100
AcDbEntity
  8
COVER_DISPLAY_COVER
100
AcDbPolyline
 90
3
 70
0
 10
-63.127297983358
 20
-63.934476056920005
 10
-63.12823475724243
 20
-64.028585188375
 10
-63.12917153112687
 20
-64.12269431983
  0
LWPOLYLINE
  5
173
330
17
100
AcDbEntity
  8
COVER_DISPLAY_COVER
100
AcDbPolyline
 90
3
 70
0
 10
-63.137751232574
 20
-63.74653895507001
 10
-63.132524607966374
 20
-63.84050750599502
 10
-63.127297983358744
 20
-63.93447605692005
  0
LWPOLYLINE
  5
174
330
17
100
AcDbEntity
  8
COVER_DISPLAY_COVER
100
AcDbPolyline
 90
3
 70
0
 10
-63.16048642374701
 20
-63.55968945479
 10
-63.149118828160596
 20
-63.65311420493002
 10
-63.137751232574175
 20
-63.74653895507003
  0
LWPOLYLINE
  5
175
330
17
100
AcDbEntity
  8
COVER_DISPLAY_COVER
100
AcDbPolyline
 90
3
 70
0
 10
-63.195405999879
 20
-63.374729329690005
 10
-63.17794621181241
 20
-63.467209392239894
 10
-63.16048642374582
 20
-63.55968945478979
  0
LWPOLYLINE
  5
176
330
17
100
AcDbEntity
  8
COVER_DISPLAY_COVER
100
AcDbPolyline
 90
3
 70
0
 10
-63.24236012062
 20
-63.19245224606
 10
-63.21888306024976
 20
-63.28359078787507
 10
-63.19540599987951
 20
-63.37472932969013
  0
LWPOLYLINE
  5
177
330
17
100
AcDbEntity
  8
COVER_DISPLAY_COVER
100
AcDbPolyline
 90
3
 70
0
 10
-63.30114730523399
 20
-63.0136403572
 10
-63.271753712927044
 20
-63.103046301630016
 10
-63.2423601206201
 20
-63.192452246060036
  0
LWPOLYLINE
  5
178
330
17
100
AcDbEntity
  8
COVER_DISPLAY_COVER
100
AcDbPolyline
 90
3
 70
0
 10
-63.37151529715501
 20
-62.839060947229996
 10
-63.33633130119475
 20
-62.9263506522151
 10
-63.301147305234494
 20
-63.0136403572002
  0
LWPOLYLINE
  5
179
330
17
100
AcDbEntity
  8
COVER_DISPLAY_COVER
100
AcDbPolyline
 90
3
 70
0
 10
-63.453162146423
 20
-62.66946313864
 10
-63.4123387217879
 20
-62.75426204293447
 10
-63.37151529715279
 20
-62.839060947228944
  0
LWPOLYLINE
  5
17A
330
17
100
AcDbEntity
  8
COVER_DISPLAY_COVER
100
AcDbPolyline
 90
3
 70
0
 10
-63.545737505358
 20
-62.50557467782
 10
-63.49944982589067
 20
-62.5875189082301
 10
-63.45316214642335
 20
-62.669463138640204
  0
LWPOLYLINE
  5
17B
330
17
100
AcDbEntity
  8
COVER_DISPLAY_COVER
100
AcDbPolyline
 90
3
 70
0
 10
-63.648844131904006
 20
-62.348098812260005
 10
-63.597290818631805
 20
-62.42683674504053
 10
-63.54573750535961
 20
-62.50557467782106
  0
LWPOLYLINE
  5
17C
330
17
100
AcDbEntity
  8
COVER_DISPLAY_COVER
100
AcDbPolyline
 90
3
 70
0
 10
-63.76203959419901
 20
-62.19771127292
 10
-63.705441863051384
 20
-62.272905042589905
 10
-63.64884413190375
 20
-62.348098812259806
  0
LWPOLYLINE
  5
17D
330
17
100
AcDbEntity
  8
COVER_DISPLAY_COVER
100
AcDbPolyline
 90
3
 70
0
 10
-63.884838169057005
 20
-62.05505737467001
 10
-63.823438881627496
 20
-62.12638432379457
 10
-63.76203959419798
 20
-62.19771127291912
  0
LWPOLYLINE
  5
17E
330
17
100
AcDbEntity
  8
COVER_DISPLAY_COVER
100
AcDbPolyline
 90
3
 70
0
 10
-64.016712926213
 20
-61.920749247230006
 10
-63.950775547635864
 20
-61.98790331095085
 10
-63.88483816905872
 20
-62.05505737467169
  0
LWPOLYLINE
  5
17F
330
17
100
AcDbEntity
  8
COVER_DISPLAY_COVER
100
AcDbPolyline
 90
3
 70
0
 10
-64.157097989388
 20
-61.79536320849001
 10
-64.08690545779966
 20
-61.85805622785906
 10
-64.01671292621131
 20
-61.920749247228116
  0
LWPOLYLINE
  5
180
330
17
100
AcDbEntity
  8
COVER_DISPLAY_COVER
100
AcDbPolyline
 90
3
 70
0
 10
-64.30539096446802
 20
-61.679437291570004
 10
-64.23124447692867
 20
-61.73740025003084
 10
-64.15709798938931
 20
-61.79536320849167
  0
LWPOLYLINE
  5
181
330
17
100
AcDbEntity
  8
COVER_DISPLAY_COVER
100
AcDbPolyline
 90
3
 70
0
 10
-64.460955524389
 20
-61.573468936059996
 10
-64.38317324442801
 20
-61.62645311381429
 10
-64.30539096446704
 20
-61.67943729156858
  0
LWPOLYLINE
  5
182
330
17
100
AcDbEntity
  8
COVER_DISPLAY_COVER
100
AcDbPolyline
 90
3
 70
0
 10
-64.623124139622
 20
-61.47791285354
 10
-64.54203983200455
 20
-61.52569089479838
 10
-64.46095552438709
 20
-61.57346893605676
  0
LWPOLYLINE
  5
183
330
17
100
AcDbEntity
  8
COVER_DISPLAY_COVER
100
AcDbPolyline
 90
3
 70
0
 10
-64.791200942553
 20
-61.39317907640001
 10
-64.70716254108835
 20
-61.43554596497168
 10
-64.6231241396237
 20
-61.477912853543344
  0
LWPOLYLINE
  5
184
330
17
100
AcDbEntity
  8
COVER_DISPLAY_COVER
100
AcDbPolyline
 90
3
 70
0
 10
-64.96446471345601
 20
-61.31963119836
 10
-64.87783282800515
 20
-61.356405137381515
 10
-64.7912009425543
 20
-61.39317907640304
  0
LWPOLYLINE
  5
185
330
17
100
AcDbEntity
  8
COVER_DISPLAY_COVER
100
AcDbPolyline
 90
3
 70
0
 10
-65.142171975262
 20
-61.2575848143
 10
-65.05331834435786
 20
-61.288608006326754
 10
-64.96446471345372
 20
-61.319631198353505
  0
LWPOLYLINE
  5
186
330
17
100
AcDbEntity
  8
COVER_DISPLAY_COVER
100
AcDbPolyline
 90
3
 70
0
 10
-65.323560183822
 20
-61.20730616607
 10
-65.23286607954185
 20
-61.232445490184425
 10
-65.14217197526169
 20
-61.25758481429886
  0
LWPOLYLINE
  5
187
330
17
100
AcDbEntity
  8
COVER_DISPLAY_COVER
100
AcDbPolyline
 90
3
 70
0
 10
-65.507851
 20
-61.16901099999999
 10
-65.41570559191184
 20
-61.188158583039055
 10
-65.32356018382369
 20
-61.20730616607812
  0
LWPOLYLINE
  5
188
330
17
100
AcDbEntity
  8
COVER_DISPLAY_COVER
100
AcDbPolyline
 90
168
 70
0
 10
-106.81305807433117
 20
-54.614503780147224
 10
-106.56572150502379
 20
-54.6537523263739
 10
-106.31838493571641
 20
-54.693000872600564
 10
-106.07104836640904
 20
-54.73224941882724
 10
-105.82371179710168
 20
-54.771497965053904
 10
-105.5763752277943
 20
-54.81074651128058
 10
-105.32903865848692
 20
-54.84999505750724
 10
-105.08170208917956
 20
-54.88924360373392
 10
-104.8343655198722
 20
-54.92849214996058
 10
-104.58702895056481
 20
-54.967740696187256
 10
-104.33969238125744
 20
-55.00698924241392
 10
-104.09235581195009
 20
-55.046237788640596
 10
-103.8450192426427
 20
-55.08548633486726
 10
-103.59768267333533
 20
-55.12473488109393
 10
-103.35034610402795
 20
-55.1639834273206
 10
-103.10300953472058
 20
-55.203231973547275
 10
-102.85567296541322
 20
-55.24248051977394
 10
-102.60833639610584
 20
-55.28172906600061
 10
-102.36099982679848
 20
-55.32097761222728
 10
-102.11366325749111
 20
-55.360226158453955
 10
-101.86632668818373
 20
-55.39947470468062
 10
-101.61899011887635
 20
-55.43872325090729
 10
-101.37165354956899
 20
-55.47797179713396
 10
-101.12431698026163
 20
-55.517220343360634
 10
-100.87698041095425
 20
-55.5564688895873
 10
-100.62964384164688
 20
-55.59571743581397
 10
-100.38230727233952
 20
-55.63496598204064
 10
-100.13497070303214
 20
-55.67421452826731
 10
-99.88763413372476
 20
-55.71346307449398
 10
-99.6402975644174
 20
-55.752711620720646
 10
-99.39296099511003
 20
-55.79196016694732
 10
-99.14562442580265
 20
-55.83120871317399
 10
-98.89828785649527
 20
-55.87045725940066
 10
-98.65095128718791
 20
-55.90970580562733
 10
-98.40361471788054
 20
-55.948954351854
 10
-98.15627814857316
 20
-55.98820289808067
 10
-97.90894157926579
 20
-56.02745144430734
 10
-97.66160500995844
 20
-56.066699990534005
 10
-97.41426844065106
 20
-56.10594853676068
 10
-97.16693187134368
 20
-56.14519708298735
 10
-96.91959530203631
 20
-56.18444562921402
 10
-96.67225873272893
 20
-56.22369417544069
 10
-96.42492216342157
 20
-56.26294272166736
 10
-96.17758559411419
 20
-56.30219126789403
 10
-95.93024902480683
 20
-56.3414398141207
 10
-95.68291245549946
 20
-56.38068836034737
 10
-95.43557588619208
 20
-56.41993690657404
 10
-95.1882393168847
 20
-56.45918545280071
 10
-94.94090274757734
 20
-56.49843399902738
 10
-94.69356617826998
 20
-56.53768254525404
 10
-94.4462296089626
 20
-56.576931091480716
 10
-94.19889303965522
 20
-56.61617963770739
 10
-93.95155647034785
 20
-56.655428183934056
 10
-93.70421990104049
 20
-56.69467673016072
 10
-93.45688333173311
 20
-56.733925276387396
 10
-93.20954676242575
 20
-56.77317382261407
 10
-92.96221019311838
 20
-56.812422368840735
 10
-92.714873623811
 20
-56.8516709150674
 10
-92.46753705450362
 20
-56.890919461294075
 10
-92.22020048519626
 20
-56.93016800752075
 10
-91.9728639158889
 20
-56.969416553747415
 10
-91.72552734658152
 20
-57.00866509997408
 10
-91.47819077727414
 20
-57.047913646200755
 10
-91.23085420796677
 20
-57.08716219242743
 10
-90.98351763865941
 20
-57.126410738654094
 10
-90.73618106935203
 20
-57.16565928488076
 10
-90.48884450004466
 20
-57.204907831107434
 10
-90.2415079307373
 20
-57.24415637733411
 10
-89.99417136142992
 20
-57.283404923560774
 10
-89.74683479212254
 20
-57.32265346978744
 10
-89.49949822281518
 20
-57.36190201601411
 10
-89.25216165350781
 20
-57.40115056224079
 10
-89.00482508420043
 20
-57.44039910846745
 10
-88.75748851489305
 20
-57.47964765469412
 10
-88.51015194558569
 20
-57.51889620092079
 10
-88.26281537627833
 20
-57.558144747147466
 10
-88.01547880697095
 20
-57.59739329337413
 10
-87.76814223766358
 20
-57.6366418396008
 10
-87.5208056683562
 20
-57.67589038582747
 10
-87.27346909904884
 20
-57.715138932054145
 10
-87.02613252974146
 20
-57.75438747828081
 10
-86.7787959604341
 20
-57.79363602450748
 10
-86.53145939112672
 20
-57.83288457073415
 10
-86.28412282181935
 20
-57.872133116960825
 10
-86.03678625251199
 20
-57.91138166318749
 10
-85.78944968320461
 20
-57.95063020941416
 10
-85.54211311389724
 20
-57.98987875564083
 10
-85.29477654458987
 20
-58.0291273018675
 10
-85.0474399752825
 20
-58.06837584809417
 10
-84.80010340597512
 20
-58.10762439432084
 10
-84.55276683666776
 20
-58.14687294054751
 10
-84.30543026736038
 20
-58.18612148677418
 10
-84.05809369805301
 20
-58.22537003300085
 10
-83.81075712874565
 20
-58.264618579227516
 10
-83.56342055943827
 20
-58.30386712545419
 10
-83.31608399013089
 20
-58.34311567168086
 10
-83.06874742082353
 20
-58.38236421790753
 10
-82.82141085151616
 20
-58.421612764134196
 10
-82.57407428220878
 20
-58.46086131036087
 10
-82.3267377129014
 20
-58.50010985658754
 10
-82.07940114359404
 20
-58.53935840281421
 10
-81.83206457428668
 20
-58.578606949040875
 10
-81.5847280049793
 20
-58.61785549526755
 10
-81.33739143567193
 20
-58.65710404149422
 10
-81.09005486636455
 20
-58.69635258772089
 10
-80.84271829705719
 20
-58.735601133947554
 10
-80.59538172774981
 20
-58.77484968017423
 10
-80.34804515844245
 20
-58.8140982264009
 10
-80.10070858913508
 20
-58.85334677262757
 10
-79.8533720198277
 20
-58.892595318854234
 10
-79.60603545052032
 20
-58.93184386508091
 10
-79.35869888121296
 20
-58.97109241130758
 10
-79.1113623119056
 20
-59.01034095753425
 10
-78.86402574259822
 20
-59.04958950376091
 10
-78.61668917329084
 20
-59.08883804998759
 10
-78.36935260398347
 20
-59.12808659621426
 10
-78.12201603467611
 20
-59.167335142440926
 10
-77.87467946536873
 20
-59.20658368866759
 10
-77.62734289606136
 20
-59.245832234894266
 10
-77.380006326754
 20
-59.28508078112093
 10
-77.13266975744662
 20
-59.324329327347606
 10
-76.88533318813924
 20
-59.36357787357428
 10
-76.63799661883188
 20
-59.402826419800945
 10
-76.39066004952451
 20
-59.44207496602761
 10
-76.14332348021713
 20
-59.481323512254285
 10
-75.89598691090977
 20
-59.52057205848095
 10
-75.64865034160239
 20
-59.559820604707625
 10
-75.40131377229503
 20
-59.59906915093429
 10
-75.15397720298765
 20
-59.638317697160964
 10
-74.90664063368027
 20
-59.67756624338764
 10
-74.6593040643729
 20
-59.716814789614304
 10
-74.41196749506554
 20
-59.75606333584097
 10
-74.16463092575816
 20
-59.795311882067644
 10
-73.9172943564508
 20
-59.83456042829431
 10
-73.66995778714343
 20
-59.87380897452098
 10
-73.42262121783605
 20
-59.91305752074766
 10
-73.17528464852867
 20
-59.95230606697432
 10
-72.92794807922131
 20
-59.99155461320099
 10
-72.68061150991394
 20
-60.03080315942766
 10
-72.43327494060657
 20
-60.07005170565433
 10
-72.1859383712992
 20
-60.109300251881
 10
-71.93860180199182
 20
-60.14854879810767
 10
-71.69126523268446
 20
-60.18779734433434
 10
-71.44392866337708
 20
-60.22704589056101
 10
-71.19659209406971
 20
-60.26629443678768
 10
-70.94925552476234
 20
-60.30554298301435
 10
-70.70191895545497
 20
-60.34479152924102
 10
-70.45458238614759
 20
-60.384040075467695
 10
-70.20724581684023
 20
-60.42328862169436
 10
-69.95990924753286
 20
-60.46253716792103
 10
-69.71257267822548
 20
-60.5017857141477
 10
-69.4652361089181
 20
-60.541034260374374
 10
-69.21789953961074
 20
-60.58028280660104
 10
-68.97056297030338
 20
-60.61953135282771
 10
-68.723226400996
 20
-60.65877989905438
 10
-68.47588983168863
 20
-60.69802844528105
 10
-68.22855326238125
 20
-60.73727699150772
 10
-67.98121669307389
 20
-60.776525537734386
 10
-67.73388012376651
 20
-60.81577408396106
 10
-67.48654355445915
 20
-60.855022630187726
 10
-67.23920698515177
 20
-60.8942711764144
 10
-66.9918704158444
 20
-60.93351972264107
 10
-66.74453384653704
 20
-60.97276826886774
 10
-66.49719727722966
 20
-61.012016815094405
 10
-66.24986070792228
 20
-61.05126536132108
 10
-66.00252413861492
 20
-61.09051390754775
 10
-65.75518756930755
 20
-61.12976245377442
 10
-65.50785100000017
 20
-61.169011000001085
  0
LWPOLYLINE
  5
189
330
17
100
AcDbEntity
  8
COVER_DISPLAY_COVER
100
AcDbPolyline
 90
3
 70
0
 10
-107.02540414786
 20
-54.89123857099
 10
-106.91923111109435
 20
-54.752871175565495
 10
-106.8130580743287
 20
-54.614503780141
  0
LWPOLYLINE
  5
18A
330
17
100
AcDbEntity
  8
COVER_DISPLAY_COVER
100
AcDbPolyline
 90
3
 70
0
 10
-107.15593034007112
 20
-55.11731656763453
 10
-107.09807621134426
 20
-54.99999999999971
 10
-107.02540414785108
 20
-54.89123857099107
  0
LWPOLYLINE
  5
18B
330
17
100
AcDbEntity
  8
COVER_DISPLAY_COVER
100
AcDbPolyline
 90
3
 70
0
 10
-107.35573118508
 20
-55.599678477430004
 10
-107.25583076257516
 20
-55.358497522532005
 10
-107.1559303400703
 20
-55.11731656763402
  0
LWPOLYLINE
  5
18C
330
17
100
AcDbEntity
  8
COVER_DISPLAY_COVER
100
AcDbPolyline
 90
3
 70
0
 10
-107.42329651394392
 20
-55.8518357175708
 10
-107.3977774788592
 20
-55.723542864687936
 10
-107.35573118508132
 20
-55.59967847742498
  0
LWPOLYLINE
  5
18D
330
17
100
AcDbEntity
  8
COVER_DISPLAY_COVER
100
AcDbPolyline
 90
3
 70
0
 10
-107.49144486137001
 20
-56.36947380778
 10
-107.4573706876588
 20
-56.11065476267515
 10
-107.42329651394758
 20
-55.85183571757032
  0
LWPOLYLINE
  5
18E
330
17
100
AcDbEntity
  8
COVER_DISPLAY_COVER
100
AcDbPolyline
 90
3
 70
0
 10
-107.49144486137375
 20
-56.6305261922205
 10
-107.5
 20
-56.5
 10
-107.49144486137375
 20
-56.3694738077795
  0
LWPOLYLINE
  5
18F
330
17
100
AcDbEntity
  8
COVER_DISPLAY_COVER
100
AcDbPolyline
 90
3
 70
0
 10
-107.42329651395002
 20
-57.14816428242
 10
-107.45737068766059
 20
-56.88934523732008
 10
-107.49144486137115
 20
-56.63052619222016
  0
LWPOLYLINE
  5
190
330
17
100
AcDbEntity
  8
COVER_DISPLAY_COVER
100
AcDbPolyline
 90
3
 70
0
 10
-107.41017971691267
 20
-57.224698947243404
 10
-107.4174812652803
 20
-57.18655897863167
 10
-107.42329651394392
 20
-57.148164282419195
  0
LWPOLYLINE
  5
191
330
17
100
AcDbEntity
  8
COVER_DISPLAY_COVER
100
AcDbPolyline
 90
4
 70
0
 10
-107.21828931816326
 20
-58.13134912274069
 10
-107.28225278441438
 20
-57.82913239757356
 10
-107.34621625066552
 20
-57.526915672406425
 10
-107.41017971691664
 20
-57.22469894723929
  0
LWPOLYLINE
  5
192
330
17
100
AcDbEntity
  8
COVER_DISPLAY_COVER
100
AcDbPolyline
 90
11
 70
0
 10
-104.56501688549048
 20
-58.316884005177
 10
-104.83034412875745
 20
-58.29833051693358
 10
-105.09567137202443
 20
-58.27977702869017
 10
-105.3609986152914
 20
-58.26122354044676
 10
-105.62632585855837
 20
-58.24267005220334
 10
-105.89165310182534
 20
-58.224116563959925
 10
-106.15698034509232
 20
-58.20556307571651
 10
-106.4223075883593
 20
-58.18700958747309
 10
-106.68763483162627
 20
-58.16845609922968
 10
-106.95296207489324
 20
-58.14990261098627
 10
-107.2182893181602
 20
-58.13134912274285
  0
LWPOLYLINE
  5
193
330
17
100
AcDbEntity
  8
COVER_DISPLAY_COVER
100
AcDbPolyline
 90
38
 70
0
 10
-105.2141843532331
 20
-67.60041130607979
 10
-105.19663928653733
 20
-67.34950516281197
 10
-105.17909421984157
 20
-67.09859901954414
 10
-105.16154915314581
 20
-66.8476928762763
 10
-105.14400408645005
 20
-66.59678673300846
 10
-105.1264590197543
 20
-66.34588058974063
 10
-105.10891395305853
 20
-66.0949744464728
 10
-105.09136888636279
 20
-65.84406830320496
 10
-105.07382381966703
 20
-65.59316215993714
 10
-105.05627875297127
 20
-65.3422560166693
 10
-105.0387336862755
 20
-65.09134987340147
 10
-105.02118861957975
 20
-64.84044373013364
 10
-105.00364355288399
 20
-64.5895375868658
 10
-104.98609848618823
 20
-64.33863144359798
 10
-104.96855341949247
 20
-64.08772530033013
 10
-104.9510083527967
 20
-63.836819157062315
 10
-104.93346328610095
 20
-63.585913013794475
 10
-104.91591821940519
 20
-63.33500687052665
 10
-104.89837315270942
 20
-63.084100727258814
 10
-104.88082808601366
 20
-62.83319458399098
 10
-104.8632830193179
 20
-62.582288440723154
 10
-104.84573795262214
 20
-62.33138229745532
 10
-104.8281928859264
 20
-62.08047615418749
 10
-104.81064781923064
 20
-61.82957001091965
 10
-104.79310275253488
 20
-61.57866386765182
 10
-104.77555768583912
 20
-61.32775772438399
 10
-104.75801261914336
 20
-61.07685158111615
 10
-104.7404675524476
 20
-60.825945437848326
 10
-104.72292248575184
 20
-60.57503929458049
 10
-104.70537741905608
 20
-60.324133151312665
 10
-104.68783235236032
 20
-60.073227008044825
 10
-104.67028728566456
 20
-59.82232086477699
 10
-104.6527422189688
 20
-59.571414721509164
 10
-104.63519715227304
 20
-59.32050857824133
 10
-104.61765208557728
 20
-59.069602434973504
 10
-104.60010701888152
 20
-58.81869629170566
 10
-104.58256195218576
 20
-58.56779014843784
 10
-104.56501688549
 20
-58.31688400517
  0
LWPOLYLINE
  5
194
330
17
100
AcDbEntity
  8
COVER_DISPLAY_COVER
100
AcDbPolyline
 90
12
 70
0
 10
-104.6344680154
 20
-70.33947445279
 10
-104.68716950065712
 20
-70.09046871217997
 10
-104.73987098591422
 20
-69.84146297156994
 10
-104.79257247117134
 20
-69.5924572309599
 10
-104.84527395642844
 20
-69.34345149034986
 10
-104.89797544168556
 20
-69.09444574973983
 10
-104.95067692694266
 20
-68.84544000912979
 10
-105.00337841219978
 20
-68.59643426851977
 10
-105.05607989745688
 20
-68.34742852790973
 10
-105.108781382714
 20
-68.0984227872997
 10
-105.1614828679711
 20
-67.84941704668967
 10
-105.21418435322822
 20
-67.60041130607962
  0
LWPOLYLINE
  5
195
330
17
100
AcDbEntity
  8
COVER_DISPLAY_COVER
100
AcDbPolyline
 90
5
 70
0
 10
-103.82023772328004
 20
-71.11885767483021
 10
-104.10383783292059
 20
-71.02659847964009
 10
-104.34761934316869
 20
-70.85480978226332
 10
-104.52990013604
 20
-70.61877060366056
 10
-104.63446801540323
 20
-70.33947445279068
  0
LWPOLYLINE
  5
196
330
17
100
AcDbEntity
  8
COVER_DISPLAY_COVER
100
AcDbPolyline
 90
11
 70
0
 10
-101.28545879466733
 20
-71.54052534364394
 10
-101.53893668752826
 20
-71.49835857676061
 10
-101.79241458038922
 20
-71.45619180987728
 10
-102.04589247325016
 20
-71.41402504299396
 10
-102.2993703661111
 20
-71.37185827611061
 10
-102.55284825897205
 20
-71.32969150922729
 10
-102.80632615183299
 20
-71.28752474234396
 10
-103.05980404469395
 20
-71.24535797546062
 10
-103.31328193755489
 20
-71.2031912085773
 10
-103.56675983041583
 20
-71.16102444169397
 10
-103.82023772327678
 20
-71.11885767481064
  0
LWPOLYLINE
  5
197
330
17
100
AcDbEntity
  8
COVER_DISPLAY_COVER
100
AcDbPolyline
 90
5
 70
0
 10
-101.11569584259904
 20
-70.46868424789015
 10
-101.15813658061657
 20
-70.73664452183264
 10
-101.2005773186341
 20
-71.00460479577514
 10
-101.24301805665164
 20
-71.27256506971763
 10
-101.28545879466917
 20
-71.54052534366012
  0
LWPOLYLINE
  5
198
330
17
100
AcDbEntity
  8
COVER_DISPLAY_COVER
100
AcDbPolyline
 90
69
 70
0
 10
-84.2756096354528
 20
-73.13589187682238
 10
-84.52325796202848
 20
-73.09666823522043
 10
-84.77090628860418
 20
-73.05744459361848
 10
-85.01855461517988
 20
-73.01822095201655
 10
-85.26620294175557
 20
-72.9789973104146
 10
-85.51385126833127
 20
-72.93977366881265
 10
-85.76149959490695
 20
-72.9005500272107
 10
-86.00914792148265
 20
-72.86132638560875
 10
-86.25679624805835
 20
-72.82210274400681
 10
-86.50444457463405
 20
-72.78287910240486
 10
-86.75209290120974
 20
-72.74365546080291
 10
-86.99974122778544
 20
-72.70443181920096
 10
-87.24738955436112
 20
-72.66520817759903
 10
-87.49503788093682
 20
-72.62598453599708
 10
-87.7426862075125
 20
-72.58676089439513
 10
-87.99033453408822
 20
-72.54753725279318
 10
-88.2379828606639
 20
-72.50831361119123
 10
-88.48563118723959
 20
-72.46908996958929
 10
-88.73327951381529
 20
-72.42986632798734
 10
-88.98092784039099
 20
-72.39064268638539
 10
-89.22857616696669
 20
-72.35141904478344
 10
-89.47622449354238
 20
-72.3121954031815
 10
-89.72387282011806
 20
-72.27297176157956
 10
-89.97152114669376
 20
-72.2337481199776
 10
-90.21916947326946
 20
-72.19452447837566
 10
-90.46681779984515
 20
-72.1553008367737
 10
-90.71446612642085
 20
-72.11607719517177
 10
-90.96211445299653
 20
-72.07685355356982
 10
-91.20976277957223
 20
-72.03762991196787
 10
-91.45741110614793
 20
-71.99840627036592
 10
-91.70505943272363
 20
-71.95918262876398
 10
-91.95270775929932
 20
-71.91995898716203
 10
-92.20035608587501
 20
-71.88073534556008
 10
-92.4480044124507
 20
-71.84151170395813
 10
-92.6956527390264
 20
-71.80228806235618
 10
-92.9433010656021
 20
-71.76306442075425
 10
-93.19094939217779
 20
-71.7238407791523
 10
-93.43859771875347
 20
-71.68461713755035
 10
-93.68624604532917
 20
-71.6453934959484
 10
-93.93389437190487
 20
-71.60616985434645
 10
-94.18154269848057
 20
-71.56694621274451
 10
-94.42919102505626
 20
-71.52772257114256
 10
-94.67683935163195
 20
-71.48849892954061
 10
-94.92448767820765
 20
-71.44927528793866
 10
-95.17213600478334
 20
-71.41005164633671
 10
-95.41978433135904
 20
-71.37082800473478
 10
-95.66743265793474
 20
-71.33160436313283
 10
-95.91508098451042
 20
-71.29238072153088
 10
-96.16272931108612
 20
-71.25315707992893
 10
-96.41037763766181
 20
-71.21393343832699
 10
-96.65802596423751
 20
-71.17470979672504
 10
-96.90567429081321
 20
-71.13548615512309
 10
-97.1533226173889
 20
-71.09626251352114
 10
-97.40097094396458
 20
-71.0570388719192
 10
-97.64861927054028
 20
-71.01781523031725
 10
-97.89626759711598
 20
-70.9785915887153
 10
-98.14391592369168
 20
-70.93936794711335
 10
-98.39156425026736
 20
-70.9001443055114
 10
-98.63921257684306
 20
-70.86092066390947
 10
-98.88686090341875
 20
-70.82169702230752
 10
-99.13450922999445
 20
-70.78247338070557
 10
-99.38215755657015
 20
-70.74324973910362
 10
-99.62980588314585
 20
-70.70402609750167
 10
-99.87745420972153
 20
-70.66480245589973
 10
-100.12510253629722
 20
-70.62557881429778
 10
-100.37275086287292
 20
-70.58635517269583
 10
-100.62039918944862
 20
-70.54713153109388
 10
-100.86804751602432
 20
-70.50790788949195
 10
-101.1156958426
 20
-70.46868424789
  0
LWPOLYLINE
  5
199
330
17
100
AcDbEntity
  8
COVER_DISPLAY_COVER
100
AcDbPolyline
 90
3
 70
0
 10
-84.2756118569526
 20
-73.13590590282008
 10
-84.2756107462033
 20
-73.13589888982504
 10
-84.275609635454
 20
-73.13589187683002
  0
LWPOLYLINE
  5
19A
330
17
100
AcDbEntity
  8
COVER_DISPLAY_COVER
100
AcDbPolyline
 90
69
 70
0
 10
-67.48490963545285
 20
-75.79529187682272
 10
-67.7318317269455
 20
-75.75618325955794
 10
-67.97875381843815
 20
-75.71707464229317
 10
-68.22567590993079
 20
-75.6779660250284
 10
-68.47259800142344
 20
-75.63885740776361
 10
-68.71952009291607
 20
-75.59974879049884
 10
-68.96644218440872
 20
-75.56064017323406
 10
-69.21336427590137
 20
-75.52153155596929
 10
-69.46028636739402
 20
-75.48242293870452
 10
-69.70720845888665
 20
-75.44331432143974
 10
-69.9541305503793
 20
-75.40420570417497
 10
-70.20105264187194
 20
-75.3650970869102
 10
-70.44797473336459
 20
-75.32598846964542
 10
-70.69489682485724
 20
-75.28687985238065
 10
-70.94181891634989
 20
-75.24777123511588
 10
-71.18874100784252
 20
-75.2086626178511
 10
-71.43566309933517
 20
-75.16955400058633
 10
-71.68258519082781
 20
-75.13044538332156
 10
-71.92950728232046
 20
-75.09133676605677
 10
-72.17642937381311
 20
-75.052228148792
 10
-72.42335146530576
 20
-75.01311953152722
 10
-72.6702735567984
 20
-74.97401091426245
 10
-72.91719564829104
 20
-74.93490229699768
 10
-73.16411773978369
 20
-74.8957936797329
 10
-73.41103983127633
 20
-74.85668506246813
 10
-73.65796192276898
 20
-74.81757644520336
 10
-73.90488401426163
 20
-74.77846782793858
 10
-74.15180610575426
 20
-74.73935921067381
 10
-74.39872819724691
 20
-74.70025059340904
 10
-74.64565028873956
 20
-74.66114197614426
 10
-74.8925723802322
 20
-74.62203335887949
 10
-75.13949447172484
 20
-74.5829247416147
 10
-75.3864165632175
 20
-74.54381612434993
 10
-75.63333865471013
 20
-74.50470750708516
 10
-75.88026074620278
 20
-74.46559888982038
 10
-76.12718283769543
 20
-74.42649027255561
 10
-76.37410492918806
 20
-74.38738165529084
 10
-76.62102702068071
 20
-74.34827303802606
 10
-76.86794911217336
 20
-74.30916442076129
 10
-77.114871203666
 20
-74.27005580349652
 10
-77.36179329515865
 20
-74.23094718623175
 10
-77.6087153866513
 20
-74.19183856896697
 10
-77.85563747814393
 20
-74.1527299517022
 10
-78.10255956963658
 20
-74.11362133443743
 10
-78.34948166112923
 20
-74.07451271717265
 10
-78.59640375262187
 20
-74.03540409990788
 10
-78.84332584411452
 20
-73.99629548264309
 10
-79.09024793560717
 20
-73.95718686537832
 10
-79.3371700270998
 20
-73.91807824811355
 10
-79.58409211859245
 20
-73.87896963084877
 10
-79.8310142100851
 20
-73.839861013584
 10
-80.07793630157775
 20
-73.80075239631923
 10
-80.32485839307039
 20
-73.76164377905445
 10
-80.57178048456304
 20
-73.72253516178968
 10
-80.81870257605568
 20
-73.6834265445249
 10
-81.06562466754832
 20
-73.64431792726013
 10
-81.31254675904097
 20
-73.60520930999536
 10
-81.55946885053362
 20
-73.56610069273059
 10
-81.80639094202625
 20
-73.52699207546581
 10
-82.0533130335189
 20
-73.48788345820103
 10
-82.30023512501154
 20
-73.44877484093625
 10
-82.54715721650419
 20
-73.40966622367148
 10
-82.79407930799684
 20
-73.3705576064067
 10
-83.04100139948949
 20
-73.33144898914193
 10
-83.28792349098212
 20
-73.29234037187716
 10
-83.53484558247477
 20
-73.25323175461239
 10
-83.78176767396741
 20
-73.21412313734761
 10
-84.02868976546006
 20
-73.17501452008284
 10
-84.27561185695271
 20
-73.13590590281807
  0
LWPOLYLINE
  5
19B
330
17
100
AcDbEntity
  8
COVER_DISPLAY_COVER
100
AcDbPolyline
 90
6
 70
0
 10
-67.69602517861246
 20
-77.12822295721995
 10
-67.65380206998076
 20
-76.86163674114195
 10
-67.61157896134907
 20
-76.59505052506397
 10
-67.56935585271738
 20
-76.32846430898599
 10
-67.52713274408569
 20
-76.061878092908
 10
-67.484909635454
 20
-75.79529187683002
  0
LWPOLYLINE
  5
19C
330
17
100
AcDbEntity
  8
COVER_DISPLAY_COVER
100
AcDbPolyline
 90
3
 70
0
 10
-66.980841862427
 20
-77.24719573165
 10
-67.33843352051883
 20
-77.187709344431
 10
-67.69602517861067
 20
-77.12822295721199
  0
LWPOLYLINE
  5
19D
330
17
100
AcDbEntity
  8
COVER_DISPLAY_COVER
100
AcDbPolyline
 90
3
 70
0
 10
-66.9472702824242
 20
-77.25219651394391
 10
-66.96407729101747
 20
-77.24983856884093
 10
-66.98084186242698
 20
-77.2471957316499
  0
LWPOLYLINE
  5
19E
330
17
100
AcDbEntity
  8
COVER_DISPLAY_COVER
100
AcDbPolyline
 90
3
 70
0
 10
-66.42963219222
 20
-77.32034486137
 10
-66.68845123732238
 20
-77.28627068765911
 10
-66.94727028242477
 20
-77.25219651394822
  0
LWPOLYLINE
  5
19F
330
17
100
AcDbEntity
  8
COVER_DISPLAY_COVER
100
AcDbPolyline
 90
3
 70
0
 10
-66.16857980777951
 20
-77.32034486137375
 10
-66.299106
 20
-77.3289
 10
-66.4296321922205
 20
-77.32034486137375
  0
LWPOLYLINE
  5
1A0
330
17
100
AcDbEntity
  8
COVER_DISPLAY_COVER
100
AcDbPolyline
 90
3
 70
0
 10
-65.650941717575
 20
-77.25219651395
 10
-65.9097607626774
 20
-77.2862706876609
 10
-66.16857980777978
 20
-77.3203448613718
  0
LWPOLYLINE
  5
1A1
330
17
100
AcDbEntity
  8
COVER_DISPLAY_COVER
100
AcDbPolyline
 90
3
 70
0
 10
-65.39878447742953
 20
-77.18463118508113
 10
-65.5226488646927
 20
-77.22667747885912
 10
-65.65094171757579
 20
-77.25219651394391
  0
LWPOLYLINE
  5
1A2
330
17
100
AcDbEntity
  8
COVER_DISPLAY_COVER
100
AcDbPolyline
 90
3
 70
0
 10
-65.16286811210634
 20
-77.08691142698645
 10
-65.28082629476653
 20
-77.13577130603719
 10
-65.39878447742672
 20
-77.18463118508794
  0
LWPOLYLINE
  5
1A3
330
17
100
AcDbEntity
  8
COVER_DISPLAY_COVER
100
AcDbPolyline
 90
3
 70
0
 10
-65.084
 20
-76.5887
 10
-65.12343405605367
 20
-76.83780571349013
 10
-65.16286811210735
 20
-77.08691142698027
  0
LWPOLYLINE
  5
1A4
330
17
100
AcDbEntity
  8
COVER_DISPLAY_COVER
100
AcDbPolyline
 90
113
 70
0
 10
-71.45352125539254
 20
-61.46328162412086
 10
-71.70044334054134
 20
-61.42417300786085
 10
-71.94736542569015
 20
-61.38506439160085
 10
-72.19428751083893
 20
-61.34595577534084
 10
-72.44120959598774
 20
-61.30684715908083
 10
-72.68813168113654
 20
-61.26773854282082
 10
-72.93505376628534
 20
-61.228629926560814
 10
-73.18197585143413
 20
-61.189521310300805
 10
-73.42889793658293
 20
-61.1504126940408
 10
-73.67582002173174
 20
-61.111304077780794
 10
-73.92274210688053
 20
-61.072195461520785
 10
-74.16966419202933
 20
-61.033086845260776
 10
-74.41658627717813
 20
-60.99397822900077
 10
-74.66350836232692
 20
-60.954869612740765
 10
-74.91043044747573
 20
-60.915760996480756
 10
-75.15735253262453
 20
-60.87665238022075
 10
-75.40427461777332
 20
-60.83754376396074
 10
-75.65119670292212
 20
-60.79843514770073
 10
-75.89811878807092
 20
-60.75932653144072
 10
-76.14504087321973
 20
-60.72021791518071
 10
-76.39196295836852
 20
-60.68110929892071
 10
-76.63888504351732
 20
-60.6420006826607
 10
-76.88580712866612
 20
-60.60289206640069
 10
-77.13272921381491
 20
-60.56378345014068
 10
-77.37965129896372
 20
-60.524674833880674
 10
-77.62657338411252
 20
-60.48556621762067
 10
-77.87349546926131
 20
-60.44645760136066
 10
-78.12041755441011
 20
-60.407348985100654
 10
-78.3673396395589
 20
-60.368240368840645
 10
-78.61426172470772
 20
-60.329131752580636
 10
-78.8611838098565
 20
-60.29002313632063
 10
-79.10810589500531
 20
-60.250914520060626
 10
-79.3550279801541
 20
-60.21180590380062
 10
-79.6019500653029
 20
-60.17269728754061
 10
-79.84887215045171
 20
-60.1335886712806
 10
-80.0957942356005
 20
-60.09448005502059
 10
-80.3427163207493
 20
-60.05537143876058
 10
-80.5896384058981
 20
-60.01626282250058
 10
-80.8365604910469
 20
-59.97715420624057
 10
-81.0834825761957
 20
-59.93804558998056
 10
-81.3304046613445
 20
-59.89893697372055
 10
-81.5773267464933
 20
-59.85982835746054
 10
-81.8242488316421
 20
-59.820719741200534
 10
-82.07117091679089
 20
-59.78161112494053
 10
-82.31809300193969
 20
-59.74250250868052
 10
-82.56501508708848
 20
-59.703393892420515
 10
-82.8119371722373
 20
-59.664285276160506
 10
-83.05885925738609
 20
-59.6251766599005
 10
-83.30578134253489
 20
-59.586068043640495
 10
-83.5527034276837
 20
-59.546959427380486
 10
-83.79962551283248
 20
-59.50785081112048
 10
-84.04654759798129
 20
-59.46874219486047
 10
-84.29346968313008
 20
-59.42963357860046
 10
-84.54039176827888
 20
-59.39052496234045
 10
-84.78731385342769
 20
-59.35141634608044
 10
-85.03423593857647
 20
-59.31230772982044
 10
-85.28115802372528
 20
-59.27319911356043
 10
-85.52808010887408
 20
-59.23409049730042
 10
-85.77500219402287
 20
-59.19498188104041
 10
-86.02192427917169
 20
-59.1558732647804
 10
-86.26884636432047
 20
-59.1167646485204
 10
-86.51576844946928
 20
-59.07765603226039
 10
-86.76269053461807
 20
-59.038547416000384
 10
-87.00961261976687
 20
-58.999438799740375
 10
-87.25653470491567
 20
-58.960330183480366
 10
-87.50345679006446
 20
-58.92122156722036
 10
-87.75037887521327
 20
-58.88211295096035
 10
-87.99730096036207
 20
-58.843004334700346
 10
-88.24422304551086
 20
-58.80389571844034
 10
-88.49114513065967
 20
-58.76478710218033
 10
-88.73806721580846
 20
-58.72567848592032
 10
-88.98498930095727
 20
-58.68656986966032
 10
-89.23191138610605
 20
-58.64746125340031
 10
-89.47883347125486
 20
-58.6083526371403
 10
-89.72575555640366
 20
-58.56924402088029
 10
-89.97267764155245
 20
-58.53013540462028
 10
-90.21959972670126
 20
-58.49102678836027
 10
-90.46652181185006
 20
-58.451918172100264
 10
-90.71344389699885
 20
-58.412809555840255
 10
-90.96036598214766
 20
-58.37370093958025
 10
-91.20728806729645
 20
-58.334592323320244
 10
-91.45421015244524
 20
-58.295483707060235
 10
-91.70113223759404
 20
-58.256375090800226
 10
-91.94805432274285
 20
-58.217266474540224
 10
-92.19497640789164
 20
-58.178157858280215
 10
-92.44189849304044
 20
-58.13904924202021
 10
-92.68882057818925
 20
-58.0999406257602
 10
-92.93574266333803
 20
-58.06083200950019
 10
-93.18266474848684
 20
-58.02172339324018
 10
-93.42958683363562
 20
-57.98261477698017
 10
-93.67650891878444
 20
-57.94350616072017
 10
-93.92343100393323
 20
-57.90439754446016
 10
-94.17035308908203
 20
-57.86528892820015
 10
-94.41727517423084
 20
-57.82618031194014
 10
-94.66419725937963
 20
-57.78707169568013
 10
-94.91111934452843
 20
-57.74796307942013
 10
-95.15804142967724
 20
-57.70885446316012
 10
-95.40496351482602
 20
-57.66974584690011
 10
-95.65188559997483
 20
-57.630637230640104
 10
-95.89880768512361
 20
-57.591528614380096
 10
-96.14572977027242
 20
-57.55241999812009
 10
-96.39265185542122
 20
-57.513311381860085
 10
-96.63957394057002
 20
-57.474202765600076
 10
-96.88649602571883
 20
-57.43509414934007
 10
-97.13341811086762
 20
-57.39598553308006
 10
-97.38034019601642
 20
-57.35687691682005
 10
-97.62726228116523
 20
-57.31776830056004
 10
-97.87418436631401
 20
-57.27865968430004
 10
-98.12110645146282
 20
-57.23955106804003
 10
-98.3680285366116
 20
-57.20044245178002
 10
-98.61495062176041
 20
-57.16133383552001
 10
-98.86187270690921
 20
-57.12222521926
 10
-99.108794792058
 20
-57.08311660299999
  0
LWPOLYLINE
  5
1A5
330
17
100
AcDbEntity
  8
COVER_DISPLAY_COVER
100
AcDbPolyline
 90
53
 70
0
 10
-73.51845619392145
 20
-74.50076771998059
 10
-73.47874590664208
 20
-74.2500468335219
 10
-73.43903561936271
 20
-73.99932594706324
 10
-73.39932533208334
 20
-73.74860506060458
 10
-73.35961504480396
 20
-73.49788417414592
 10
-73.31990475752458
 20
-73.24716328768724
 10
-73.2801944702452
 20
-72.99644240122859
 10
-73.24048418296584
 20
-72.74572151476993
 10
-73.20077389568647
 20
-72.49500062831126
 10
-73.16106360840709
 20
-72.2442797418526
 10
-73.12135332112771
 20
-71.99355885539393
 10
-73.08164303384834
 20
-71.74283796893526
 10
-73.04193274656896
 20
-71.4921170824766
 10
-73.0022224592896
 20
-71.24139619601793
 10
-72.96251217201022
 20
-70.99067530955926
 10
-72.92280188473084
 20
-70.73995442310061
 10
-72.88309159745147
 20
-70.48923353664193
 10
-72.84338131017209
 20
-70.23851265018328
 10
-72.80367102289273
 20
-69.9877917637246
 10
-72.76396073561335
 20
-69.73707087726595
 10
-72.72425044833398
 20
-69.48634999080727
 10
-72.6845401610546
 20
-69.23562910434862
 10
-72.64482987377522
 20
-68.98490821788994
 10
-72.60511958649585
 20
-68.73418733143129
 10
-72.56540929921648
 20
-68.48346644497262
 10
-72.5256990119371
 20
-68.23274555851395
 10
-72.48598872465773
 20
-67.98202467205529
 10
-72.44627843737835
 20
-67.73130378559662
 10
-72.40656815009898
 20
-67.48058289913796
 10
-72.3668578628196
 20
-67.22986201267929
 10
-72.32714757554024
 20
-66.97914112622064
 10
-72.28743728826086
 20
-66.72842023976196
 10
-72.24772700098148
 20
-66.47769935330331
 10
-72.20801671370211
 20
-66.22697846684463
 10
-72.16830642642273
 20
-65.97625758038598
 10
-72.12859613914335
 20
-65.7255366939273
 10
-72.08888585186399
 20
-65.47481580746864
 10
-72.04917556458462
 20
-65.22409492100996
 10
-72.00946527730524
 20
-64.97337403455131
 10
-71.96975499002586
 20
-64.72265314809265
 10
-71.93004470274649
 20
-64.47193226163398
 10
-71.89033441546712
 20
-64.22121137517532
 10
-71.85062412818775
 20
-63.97049048871664
 10
-71.81091384090837
 20
-63.71976960225798
 10
-71.771203553629
 20
-63.46904871579932
 10
-71.73149326634962
 20
-63.21832782934065
 10
-71.69178297907024
 20
-62.967606942881986
 10
-71.65207269179086
 20
-62.71688605642333
 10
-71.6123624045115
 20
-62.466165169964654
 10
-71.57265211723212
 20
-62.215444283505995
 10
-71.53294182995275
 20
-61.96472339704733
 10
-71.49323154267337
 20
-61.714002510588664
 10
-71.453521255394
 20
-61.46328162413
  0
LWPOLYLINE
  5
1A6
330
17
100
AcDbEntity
  8
COVER_DISPLAY_COVER
100
AcDbPolyline
 90
112
 70
0
 10
-101.17372973058015
 20
-70.12060269886076
 10
-100.92458312214181
 20
-70.16006364499698
 10
-100.67543651370349
 20
-70.19952459113318
 10
-100.42628990526515
 20
-70.2389855372694
 10
-100.17714329682681
 20
-70.2784464834056
 10
-99.92799668838848
 20
-70.31790742954182
 10
-99.67885007995014
 20
-70.35736837567802
 10
-99.4297034715118
 20
-70.39682932181424
 10
-99.18055686307346
 20
-70.43629026795044
 10
-98.93141025463514
 20
-70.47575121408666
 10
-98.6822636461968
 20
-70.51521216022286
 10
-98.43311703775846
 20
-70.55467310635908
 10
-98.18397042932014
 20
-70.59413405249528
 10
-97.9348238208818
 20
-70.6335949986315
 10
-97.68567721244347
 20
-70.6730559447677
 10
-97.43653060400513
 20
-70.71251689090391
 10
-97.18738399556679
 20
-70.75197783704012
 10
-96.93823738712845
 20
-70.79143878317632
 10
-96.68909077869013
 20
-70.83089972931253
 10
-96.43994417025179
 20
-70.87036067544875
 10
-96.19079756181345
 20
-70.90982162158495
 10
-95.94165095337512
 20
-70.94928256772117
 10
-95.6925043449368
 20
-70.98874351385737
 10
-95.44335773649846
 20
-71.02820445999359
 10
-95.19421112806012
 20
-71.06766540612979
 10
-94.94506451962178
 20
-71.107126352266
 10
-94.69591791118344
 20
-71.14658729840221
 10
-94.4467713027451
 20
-71.18604824453843
 10
-94.19762469430678
 20
-71.22550919067463
 10
-93.94847808586843
 20
-71.26497013681083
 10
-93.6993314774301
 20
-71.30443108294705
 10
-93.45018486899178
 20
-71.34389202908325
 10
-93.20103826055345
 20
-71.38335297521947
 10
-92.95189165211511
 20
-71.42281392135567
 10
-92.70274504367677
 20
-71.46227486749189
 10
-92.45359843523843
 20
-71.50173581362809
 10
-92.2044518268001
 20
-71.5411967597643
 10
-91.95530521836176
 20
-71.5806577059005
 10
-91.70615860992343
 20
-71.62011865203672
 10
-91.4570120014851
 20
-71.65957959817293
 10
-91.20786539304677
 20
-71.69904054430914
 10
-90.95871878460844
 20
-71.73850149044534
 10
-90.7095721761701
 20
-71.77796243658156
 10
-90.46042556773176
 20
-71.81742338271776
 10
-90.21127895929342
 20
-71.85688432885398
 10
-89.96213235085509
 20
-71.89634527499018
 10
-89.71298574241675
 20
-71.9358062211264
 10
-89.46383913397842
 20
-71.9752671672626
 10
-89.21469252554007
 20
-72.01472811339882
 10
-88.96554591710176
 20
-72.05418905953502
 10
-88.71639930866343
 20
-72.09365000567124
 10
-88.46725270022509
 20
-72.13311095180744
 10
-88.21810609178675
 20
-72.17257189794366
 10
-87.96895948334841
 20
-72.21203284407986
 10
-87.71981287491008
 20
-72.25149379021607
 10
-87.47066626647174
 20
-72.29095473635228
 10
-87.22151965803342
 20
-72.33041568248849
 10
-86.97237304959506
 20
-72.3698766286247
 10
-86.72322644115674
 20
-72.40933757476091
 10
-86.4740798327184
 20
-72.44879852089711
 10
-86.22493322428008
 20
-72.48825946703333
 10
-85.97578661584174
 20
-72.52772041316953
 10
-85.7266400074034
 20
-72.56718135930575
 10
-85.47749339896507
 20
-72.60664230544195
 10
-85.22834679052673
 20
-72.64610325157817
 10
-84.97920018208839
 20
-72.68556419771437
 10
-84.73005357365007
 20
-72.72502514385059
 10
-84.48090696521172
 20
-72.76448608998679
 10
-84.23176035677339
 20
-72.803947036123
 10
-83.98261374833507
 20
-72.84340798225921
 10
-83.73346713989673
 20
-72.88286892839542
 10
-83.4843205314584
 20
-72.92232987453163
 10
-83.23517392302006
 20
-72.96179082066784
 10
-82.98602731458172
 20
-73.00125176680405
 10
-82.73688070614338
 20
-73.04071271294026
 10
-82.48773409770504
 20
-73.08017365907646
 10
-82.2385874892667
 20
-73.11963460521267
 10
-81.98944088082838
 20
-73.15909555134888
 10
-81.74029427239006
 20
-73.19855649748509
 10
-81.49114766395172
 20
-73.2380174436213
 10
-81.24200105551338
 20
-73.2774783897575
 10
-80.99285444707505
 20
-73.31693933589372
 10
-80.74370783863671
 20
-73.35640028202994
 10
-80.49456123019837
 20
-73.39586122816614
 10
-80.24541462176003
 20
-73.43532217430234
 10
-79.99626801332171
 20
-73.47478312043856
 10
-79.74712140488337
 20
-73.51424406657476
 10
-79.49797479644504
 20
-73.55370501271098
 10
-79.24882818800671
 20
-73.59316595884718
 10
-78.99968157956837
 20
-73.6326269049834
 10
-78.75053497113004
 20
-73.6720878511196
 10
-78.5013883626917
 20
-73.71154879725582
 10
-78.25224175425336
 20
-73.75100974339202
 10
-78.00309514581502
 20
-73.79047068952823
 10
-77.75394853737669
 20
-73.82993163566444
 10
-77.50480192893835
 20
-73.86939258180065
 10
-77.25565532050003
 20
-73.90885352793686
 10
-77.0065087120617
 20
-73.94831447407307
 10
-76.75736210362335
 20
-73.98777542020927
 10
-76.50821549518503
 20
-74.02723636634549
 10
-76.25906888674669
 20
-74.0666973124817
 10
-76.00992227830835
 20
-74.10615825861791
 10
-75.76077566987001
 20
-74.14561920475411
 10
-75.51162906143168
 20
-74.18508015089033
 10
-75.26248245299335
 20
-74.22454109702653
 10
-75.01333584455502
 20
-74.26400204316275
 10
-74.76418923611668
 20
-74.30346298929895
 10
-74.51504262767834
 20
-74.34292393543517
 10
-74.26589601924
 20
-74.38238488157137
 10
-74.01674941080168
 20
-74.42184582770759
 10
-73.76760280236334
 20
-74.46130677384379
 10
-73.518456193925
 20
-74.50076771998
  0
LWPOLYLINE
  5
1A7
330
17
100
AcDbEntity
  8
COVER_DISPLAY_COVER
100
AcDbPolyline
 90
53
 70
0
 10
-99.10879479205121
 20
-57.08311660300109
 10
-99.14850507933062
 20
-57.33383748945991
 10
-99.18821536661002
 20
-57.58455837591873
 10
-99.22792565388941
 20
-57.835279262377554
 10
-99.26763594116882
 20
-58.08600014883638
 10
-99.30734622844822
 20
-58.33672103529521
 10
-99.34705651572762
 20
-58.587441921754035
 10
-99.38676680300702
 20
-58.83816280821286
 10
-99.42647709028641
 20
-59.088883694671686
 10
-99.46618737756582
 20
-59.339604581130516
 10
-99.50589766484522
 20
-59.59032546758934
 10
-99.54560795212461
 20
-59.84104635404816
 10
-99.58531823940402
 20
-60.09176724050699
 10
-99.62502852668342
 20
-60.34248812696582
 10
-99.66473881396281
 20
-60.593209013424634
 10
-99.70444910124222
 20
-60.84392989988346
 10
-99.74415938852161
 20
-61.09465078634229
 10
-99.78386967580101
 20
-61.345371672801114
 10
-99.82357996308042
 20
-61.596092559259944
 10
-99.86329025035981
 20
-61.846813445718766
 10
-99.90300053763922
 20
-62.097534332177595
 10
-99.9427108249186
 20
-62.34825521863642
 10
-99.98242111219801
 20
-62.59897610509524
 10
-100.02213139947742
 20
-62.84969699155407
 10
-100.06184168675681
 20
-63.1004178780129
 10
-100.10155197403621
 20
-63.35113876447172
 10
-100.1412622613156
 20
-63.60185965093054
 10
-100.18097254859501
 20
-63.852580537389365
 10
-100.22068283587441
 20
-64.1033014238482
 10
-100.2603931231538
 20
-64.35402231030702
 10
-100.30010341043321
 20
-64.60474319676584
 10
-100.33981369771261
 20
-64.85546408322466
 10
-100.379523984992
 20
-65.10618496968351
 10
-100.41923427227141
 20
-65.35690585614233
 10
-100.4589445595508
 20
-65.60762674260116
 10
-100.4986548468302
 20
-65.85834762905998
 10
-100.53836513410961
 20
-66.1090685155188
 10
-100.578075421389
 20
-66.35978940197762
 10
-100.6177857086684
 20
-66.61051028843644
 10
-100.65749599594781
 20
-66.86123117489527
 10
-100.6972062832272
 20
-67.1119520613541
 10
-100.73691657050661
 20
-67.36267294781294
 10
-100.776626857786
 20
-67.61339383427176
 10
-100.8163371450654
 20
-67.86411472073058
 10
-100.85604743234481
 20
-68.1148356071894
 10
-100.8957577196242
 20
-68.36555649364823
 10
-100.9354680069036
 20
-68.61627738010705
 10
-100.975178294183
 20
-68.86699826656587
 10
-101.0148885814624
 20
-69.11771915302471
 10
-101.0545988687418
 20
-69.36844003948353
 10
-101.0943091560212
 20
-69.61916092594237
 10
-101.1340194433006
 20
-69.86988181240119
 10
-101.17372973058
 20
-70.12060269886001
  0
CIRCLE
  5
1A8
330
17
100
AcDbEntity
  8
COVER_STANDOFFS
100
AcDbCircle
 10
-199.0
 20
-99.5
 30
0.0
 40
1.5
  0
CIRCLE
  5
1A9
330
17
100
AcDbEntity
  8
COVER_STANDOFFS
100
AcDbCircle
 10
-180.0
 20
-99.5
 30
0.0
 40
1.5
  0
CIRCLE
  5
1AA
330
17
100
AcDbEntity
  8
COVER_STANDOFFS
100
AcDbCircle
 10
-198.920161
 20
-58.0
 30
0.0
 40
1.5
  0
CIRCLE
  5
1AB
330
17
100
AcDbEntity
  8
COVER_STANDOFFS
100
AcDbCircle
 10
-180.046793
 20
-58.0
 30
0.0
 40
1.5
  0
CIRCLE
  5
1AC
330
17
100
AcDbEntity
  8
COVER_STANDOFFS
100
AcDbCircle
 10
-138.612806
 20
-130.378892
 30
0.0
 40
1.5
  0
CIRCLE
  5
1AD
330
17
100
AcDbEntity
  8
COVER_STANDOFFS
100
AcDbCircle
 10
-134.5
 20
-109.5
 30
0.0
 40
1.5
  0
CIRCLE
  5
1AE
330
17
100
AcDbEntity
  8
COVER_STANDOFFS
100
AcDbCircle
 10
-116.616507
 20
-130.277058
 30
0.0
 40
1.5
  0
CIRCLE
  5
1AF
330
17
100
AcDbEntity
  8
COVER_STANDOFFS
100
AcDbCircle
 10
-104.5
 20
-56.5
 30
0.0
 40
1.5
  0
CIRCLE
  5
1B0
330
17
100
AcDbEntity
  8
COVER_STANDOFFS
100
AcDbCircle
 10
-66.299106
 20
-74.3289
 30
0.0
 40
1.5
  0
CIRCLE
  5
1B1
330
17
100
AcDbEntity
  8
COVER_STANDOFFS
100
AcDbCircle
 10
-64.66975
 20
-63.839924
 30
0.0
 40
1.5
  0
TEXT
  5
1B2
330
17
100
AcDbEntity
  8
LABELS
100
AcDbText
 10
-63.0
 20
-145.0
 30
0.0
 40
2.5
  1
SUCRALOSE RIGHT - top view, mm, same frame as STEP
 11
-63.0
 21
-145.0
 31
0.0
100
AcDbText
  0
ENDSEC
  0
SECTION
  2
OBJECTS
  0
DICTIONARY
  5
A
330
0
100
AcDbDictionary
281
1
  3
ACAD_COLOR
350
B
  3
ACAD_GROUP
350
C
  3
ACAD_LAYOUT
350
D
  3
ACAD_MATERIAL
350
E
  3
ACAD_MLEADERSTYLE
350
F
  3
ACAD_MLINESTYLE
350
10
  3
ACAD_PLOTSETTINGS
350
11
  3
ACAD_PLOTSTYLENAME
350
12
  3
ACAD_SCALELIST
350
14
  3
ACAD_TABLESTYLE
350
15
  3
ACAD_VISUALSTYLE
350
16
  3
EZDXF_META
350
2D
  0
DICTIONARY
  5
B
330
A
100
AcDbDictionary
281
1
  0
DICTIONARY
  5
C
330
A
100
AcDbDictionary
281
1
  0
DICTIONARY
  5
D
330
A
100
AcDbDictionary
281
1
  3
Model
350
1A
  3
Layout1
350
1E
  0
DICTIONARY
  5
E
330
A
100
AcDbDictionary
281
1
  3
ByBlock
350
1F
  3
ByLayer
350
20
  3
Global
350
21
  0
DICTIONARY
  5
F
330
A
100
AcDbDictionary
281
1
  3
Standard
350
2C
  0
DICTIONARY
  5
10
330
A
100
AcDbDictionary
281
1
  3
Standard
350
22
  0
DICTIONARY
  5
11
330
A
100
AcDbDictionary
281
1
  0
ACDBDICTIONARYWDFLT
  5
12
330
A
100
AcDbDictionary
281
1
  3
Normal
350
13
100
AcDbDictionaryWithDefault
340
13
  0
ACDBPLACEHOLDER
  5
13
330
12
  0
DICTIONARY
  5
14
330
A
100
AcDbDictionary
281
1
  0
DICTIONARY
  5
15
330
A
100
AcDbDictionary
281
1
  0
DICTIONARY
  5
16
330
A
100
AcDbDictionary
281
1
  3
2dWireframe
350
5A
  3
Basic
350
5B
  3
Brighten
350
5C
  3
ColorChange
350
5D
  3
Conceptual
350
5E
  3
Dim
350
5F
  3
EdgeColorOff
350
60
  3
Facepattern
350
61
  3
Flat
350
62
  3
FlatWithEdges
350
63
  3
Gouraud
350
64
  3
GouraudWithEdges
350
65
  3
Hidden
350
66
  3
JitterOff
350
67
  3
Linepattern
350
68
  3
Modeling
350
69
  3
OverhangOff
350
6A
  3
Realistic
350
6B
  3
Shaded
350
6C
  3
Shaded with edges
350
6D
  3
Shades of Gray
350
6E
  3
Sketchy
350
6F
  3
Thicken
350
70
  3
Wireframe
350
71
  3
X-Ray
350
72
  0
LAYOUT
  5
1A
330
D
100
AcDbPlotSettings
  1

  4
A3
  6

 40
7.5
 41
20.0
 42
7.5
 43
20.0
 44
420.0
 45
297.0
 46
0.0
 47
0.0
 48
0.0
 49
0.0
140
0.0
141
0.0
142
1.0
143
1.0
 70
1024
 72
1
 73
0
 74
5
  7

 75
16
 76
0
 77
2
 78
300
147
1.0
148
0.0
149
0.0
100
AcDbLayout
  1
Model
 70
1
 71
0
 10
0.0
 20
0.0
 11
420.0
 21
297.0
 12
0.0
 22
0.0
 32
0.0
 14
1e+20
 24
1e+20
 34
1e+20
 15
-1e+20
 25
-1e+20
 35
-1e+20
146
0.0
 13
0.0
 23
0.0
 33
0.0
 16
1.0
 26
0.0
 36
0.0
 17
0.0
 27
1.0
 37
0.0
 76
1
330
17
  0
LAYOUT
  5
1E
330
D
100
AcDbPlotSettings
  1

  4
A3
  6

 40
7.5
 41
20.0
 42
7.5
 43
20.0
 44
420.0
 45
297.0
 46
0.0
 47
0.0
 48
0.0
 49
0.0
140
0.0
141
0.0
142
1.0
143
1.0
 70
0
 72
1
 73
0
 74
5
  7

 75
16
 76
0
 77
2
 78
300
147
1.0
148
0.0
149
0.0
100
AcDbLayout
  1
Layout1
 70
1
 71
1
 10
0.0
 20
0.0
 11
420.0
 21
297.0
 12
0.0
 22
0.0
 32
0.0
 14
1e+20
 24
1e+20
 34
1e+20
 15
-1e+20
 25
-1e+20
 35
-1e+20
146
0.0
 13
0.0
 23
0.0
 33
0.0
 16
1.0
 26
0.0
 36
0.0
 17
0.0
 27
1.0
 37
0.0
 76
1
330
1B
  0
MATERIAL
  5
1F
102
{ACAD_REACTORS
330
E
102
}
330
E
100
AcDbMaterial
  1
ByBlock
  2

 70
0
 40
1.0
 71
1
 41
1.0
 91
-1023410177
 42
1.0
 72
1
  3

 73
1
 74
1
 75
1
 44
0.5
 73
0
 45
1.0
 46
1.0
 77
1
  4

 78
1
 79
1
170
1
 48
1.0
171
1
  6

172
1
173
1
174
1
140
1.0
141
1.0
175
1
  7

176
1
177
1
178
1
143
1.0
179
1
  8

270
1
271
1
272
1
145
1.0
146
1.0
273
1
  9

274
1
275
1
276
1
 42
1.0
 72
1
  3

 73
1
 74
1
 75
1
 94
63
  0
MATERIAL
  5
20
102
{ACAD_REACTORS
330
E
102
}
330
E
100
AcDbMaterial
  1
ByLayer
  2

 70
0
 40
1.0
 71
1
 41
1.0
 91
-1023410177
 42
1.0
 72
1
  3

 73
1
 74
1
 75
1
 44
0.5
 73
0
 45
1.0
 46
1.0
 77
1
  4

 78
1
 79
1
170
1
 48
1.0
171
1
  6

172
1
173
1
174
1
140
1.0
141
1.0
175
1
  7

176
1
177
1
178
1
143
1.0
179
1
  8

270
1
271
1
272
1
145
1.0
146
1.0
273
1
  9

274
1
275
1
276
1
 42
1.0
 72
1
  3

 73
1
 74
1
 75
1
 94
63
  0
MATERIAL
  5
21
102
{ACAD_REACTORS
330
E
102
}
330
E
100
AcDbMaterial
  1
Global
  2

 70
0
 40
1.0
 71
1
 41
1.0
 91
-1023410177
 42
1.0
 72
1
  3

 73
1
 74
1
 75
1
 44
0.5
 73
0
 45
1.0
 46
1.0
 77
1
  4

 78
1
 79
1
170
1
 48
1.0
171
1
  6

172
1
173
1
174
1
140
1.0
141
1.0
175
1
  7

176
1
177
1
178
1
143
1.0
179
1
  8

270
1
271
1
272
1
145
1.0
146
1.0
273
1
  9

274
1
275
1
276
1
 42
1.0
 72
1
  3

 73
1
 74
1
 75
1
 94
63
  0
MLINESTYLE
  5
22
102
{ACAD_REACTORS
330
10
102
}
330
10
100
AcDbMlineStyle
  2
Standard
 70
0
  3

 62
256
 51
90.0
 52
90.0
 71
2
 49
0.5
 62
256
  6
BYLAYER
 49
-0.5
 62
256
  6
BYLAYER
  0
MLEADERSTYLE
  5
2C
102
{ACAD_REACTORS
330
F
102
}
330
F
100
AcDbMLeaderStyle
179
2
170
2
171
1
172
0
 90
2
 40
0.0
 41
0.0
173
1
 91
-1056964608
 92
-2
290
1
 42
2.0
291
1
 43
8.0
  3
Standard
 44
4.0
300

342
29
174
1
175
1
176
0
178
1
 93
-1056964608
 45
4.0
292
0
297
0
 46
4.0
 94
-1056964608
 47
1.0
 49
1.0
140
1.0
294
1
141
0.0
177
0
142
1.0
295
0
296
0
143
3.75
271
0
272
9
273
9
  0
DICTIONARY
  5
2D
330
A
100
AcDbDictionary
280
1
281
1
  3
CREATED_BY_EZDXF
350
2E
  3
WRITTEN_BY_EZDXF
350
1B5
  0
DICTIONARYVAR
  5
2E
330
2D
100
DictionaryVariables
280
0
  1
1.4.4 @ 2026-10-04T17:50:15.245560+00:00
  0
VISUALSTYLE
  5
5A
102
{ACAD_REACTORS
330
16
102
}
330
16
100
AcDbVisualStyle
  2
2dWireframe
 70
4
 90
0
 40
0.6
 62
7
290
0
291
0
  0
VISUALSTYLE
  5
5B
102
{ACAD_REACTORS
330
16
102
}
330
16
100
AcDbVisualStyle
  2
Basic
 70
7
 90
1
 40
0.6
 62
7
290
0
291
1
  0
VISUALSTYLE
  5
5C
102
{ACAD_REACTORS
330
16
102
}
330
16
100
AcDbVisualStyle
  2
Brighten
 70
12
 90
2
 40
0.6
 62
7
290
0
291
1
  0
VISUALSTYLE
  5
5D
102
{ACAD_REACTORS
330
16
102
}
330
16
100
AcDbVisualStyle
  2
ColorChange
 70
16
 90
2
 40
0.6
 62
8
290
0
291
1
  0
VISUALSTYLE
  5
5E
102
{ACAD_REACTORS
330
16
102
}
330
16
100
AcDbVisualStyle
  2
Conceptual
 70
9
 90
3
 40
0.6
 62
7
290
0
291
0
  0
VISUALSTYLE
  5
5F
102
{ACAD_REACTORS
330
16
102
}
330
16
100
AcDbVisualStyle
  2
Dim
 70
11
 90
2
 40
0.6
 62
7
290
0
291
1
  0
VISUALSTYLE
  5
60
102
{ACAD_REACTORS
330
16
102
}
330
16
100
AcDbVisualStyle
  2
EdgeColorOff
 70
22
 90
2
 40
0.6
 62
7
290
0
291
1
  0
VISUALSTYLE
  5
61
102
{ACAD_REACTORS
330
16
102
}
330
16
100
AcDbVisualStyle
  2
Facepattern
 70
15
 90
2
 40
0.6
 62
7
290
0
291
1
  0
VISUALSTYLE
  5
62
102
{ACAD_REACTORS
330
16
102
}
330
16
100
AcDbVisualStyle
  2
Flat
 70
0
 90
2
 40
0.6
 62
7
290
0
291
1
  0
VISUALSTYLE
  5
63
102
{ACAD_REACTORS
330
16
102
}
330
16
100
AcDbVisualStyle
  2
FlatWithEdges
 70
1
 90
2
 40
0.6
 62
7
290
0
291
1
  0
VISUALSTYLE
  5
64
102
{ACAD_REACTORS
330
16
102
}
330
16
100
AcDbVisualStyle
  2
Gouraud
 70
2
 90
2
 40
0.6
 62
7
290
0
291
1
  0
VISUALSTYLE
  5
65
102
{ACAD_REACTORS
330
16
102
}
330
16
100
AcDbVisualStyle
  2
GouraudWithEdges
 70
3
 90
2
 40
0.6
 62
7
290
0
291
1
  0
VISUALSTYLE
  5
66
102
{ACAD_REACTORS
330
16
102
}
330
16
100
AcDbVisualStyle
  2
Hidden
 70
6
 90
1
 40
0.6
 62
7
290
0
291
0
  0
VISUALSTYLE
  5
67
102
{ACAD_REACTORS
330
16
102
}
330
16
100
AcDbVisualStyle
  2
JitterOff
 70
20
 90
2
 40
0.6
 62
7
290
0
291
1
  0
VISUALSTYLE
  5
68
102
{ACAD_REACTORS
330
16
102
}
330
16
100
AcDbVisualStyle
  2
Linepattern
 70
14
 90
2
 40
0.6
 62
7
290
0
291
1
  0
VISUALSTYLE
  5
69
102
{ACAD_REACTORS
330
16
102
}
330
16
100
AcDbVisualStyle
  2
Modeling
 70
10
 90
2
 40
0.6
 62
7
290
0
291
0
  0
VISUALSTYLE
  5
6A
102
{ACAD_REACTORS
330
16
102
}
330
16
100
AcDbVisualStyle
  2
OverhangOff
 70
21
 90
2
 40
0.6
 62
7
290
0
291
1
  0
VISUALSTYLE
  5
6B
102
{ACAD_REACTORS
330
16
102
}
330
16
100
AcDbVisualStyle
  2
Realistic
 70
8
 90
2
 40
0.6
 62
7
290
0
291
0
  0
VISUALSTYLE
  5
6C
102
{ACAD_REACTORS
330
16
102
}
330
16
100
AcDbVisualStyle
  2
Shaded
 70
27
 90
2
 40
0.6
 62
7
290
0
291
0
  0
VISUALSTYLE
  5
6D
102
{ACAD_REACTORS
330
16
102
}
330
16
100
AcDbVisualStyle
  2
Shaded with edges
 70
26
 90
2
 40
0.6
 62
7
290
0
291
0
  0
VISUALSTYLE
  5
6E
102
{ACAD_REACTORS
330
16
102
}
330
16
100
AcDbVisualStyle
  2
Shades of Gray
 70
23
 90
2
 40
0.6
 62
7
290
0
291
0
  0
VISUALSTYLE
  5
6F
102
{ACAD_REACTORS
330
16
102
}
330
16
100
AcDbVisualStyle
  2
Sketchy
 70
24
 90
1
 40
0.6
 62
7
290
0
291
0
  0
VISUALSTYLE
  5
70
102
{ACAD_REACTORS
330
16
102
}
330
16
100
AcDbVisualStyle
  2
Thicken
 70
13
 90
2
 40
0.6
 62
7
290
0
291
1
  0
VISUALSTYLE
  5
71
102
{ACAD_REACTORS
330
16
102
}
330
16
100
AcDbVisualStyle
  2
Wireframe
 70
5
 90
0
 40
0.6
 62
7
290
0
291
0
  0
VISUALSTYLE
  5
72
102
{ACAD_REACTORS
330
16
102
}
330
16
100
AcDbVisualStyle
  2
X-Ray
 70
25
 90
2
 40
0.5
 62
7
290
0
291
0
  0
DICTIONARYVAR
  5
1B5
330
2D
100
DictionaryVariables
280
0
  1
1.4.4 @ 2026-10-04T17:50:15.273973+00:00
  0
ENDSEC
  0
EOF
